<?xml version="1.0" encoding="UTF-8"?>
<svg xmlns="http://www.w3.org/2000/svg" viewBox="0 0 704.77 455.13">
  <defs>
    <style>
      .cls-1, .cls-2, .cls-3, .cls-4, .cls-5, .cls-6, .cls-7, .cls-8, .cls-9, .cls-10, .cls-11, .cls-12, .cls-13 {
        stroke: #263238;
      }

      .cls-1, .cls-2, .cls-3, .cls-4, .cls-14, .cls-15 {
        stroke-linecap: round;
      }

      .cls-1, .cls-2, .cls-3, .cls-4, .cls-14, .cls-15, .cls-9, .cls-10 {
        stroke-linejoin: round;
      }

      .cls-1, .cls-16 {
        fill: #41c7a8;
      }

      .cls-2, .cls-7, .cls-10, .cls-17 {
        fill: #263238;
      }

      .cls-3, .cls-18, .cls-19, .cls-9 {
        fill: #fff;
      }

      .cls-4, .cls-5, .cls-14, .cls-15, .cls-6, .cls-8, .cls-11, .cls-12, .cls-13 {
        fill: none;
      }

      .cls-18 {
        opacity: .7;
      }

      .cls-18, .cls-17, .cls-16 {
        stroke-width: 0px;
      }

      .cls-5 {
        stroke-dasharray: 0 5;
      }

      .cls-5, .cls-6, .cls-19, .cls-7, .cls-8, .cls-11, .cls-12, .cls-13 {
        stroke-miterlimit: 10;
      }

      .cls-14 {
        stroke: #92e3a9;
      }

      .cls-14, .cls-15 {
        stroke-width: 2px;
      }

      .cls-15, .cls-19 {
        stroke: #fff;
      }

      .cls-6 {
        stroke-dasharray: 0 0 5.02 5.02;
      }

      .cls-11 {
        stroke-dasharray: 0 0 4.7 4.7;
      }

      .cls-12 {
        stroke-dasharray: 0 0 5.01 5.01;
      }

      .cls-13 {
        stroke-dasharray: 0 0 5.01 5.01;
      }
    </style>
  </defs>
  <g id="Background_Simple" data-name="Background Simple">
    <g>
      <path class="cls-16" d="m676.11,251.74s10-178-141-227c-151-49-227-13-275,33s-64,76-119,82S35.11,155.74,9.11,222.74s7,120,57,153,108-2,154,19c46,21,75,56,169,60s97-23,145-65,133,2,142-138Z"/>
      <path class="cls-18" d="m676.11,251.74s10-178-141-227c-151-49-227-13-275,33s-64,76-119,82S35.11,155.74,9.11,222.74s7,120,57,153,108-2,154,19c46,21,75,56,169,60s97-23,145-65,133,2,142-138Z"/>
    </g>
  </g>
  <g id="Plant">
    <g>
      <g>
        <path class="cls-17" d="m580.21,266.71c3.72,1.63,12.83,1.42,12.84,1.42.09,0-1.96-5.96-2.13-6.32-2-4.18-8.32-11.08-13.46-10.39-3.7.5-5.76,4.21-4.93,7.69.85,3.56,4.51,6.21,7.68,7.59Z"/>
        <path class="cls-17" d="m583.36,293.09c3.86.56,11.99-1.79,12.63-1.98,1.28,4.55,2.97,9.11,4.93,13.64,1.12,2.59,2.32,5.16,3.57,7.72-.74-1.09-1.41-2.05-1.52-2.18-3.03-3.5-10.95-8.49-15.72-6.46-3.44,1.46-4.45,5.58-2.72,8.72,1.76,3.21,5.99,4.8,9.41,5.3,3.47.51,10.44-1.36,12.28-1.88.49.98.96,1.96,1.45,2.94,2.35,4.69,4.72,9.35,6.9,14,.77,1.64,1.47,3.28,2.17,4.92-.66-.96-1.22-1.77-1.32-1.88-3.03-3.5-10.95-8.49-15.72-6.46-3.44,1.46-4.45,5.58-2.72,8.72,1.77,3.21,5.99,4.8,9.41,5.29,3.31.48,9.76-1.18,11.95-1.79.67,1.7,1.35,3.4,1.92,5.08.37,1.15.8,2.24,1.1,3.42.32,1.16.65,2.31.96,3.45.53,2.22,1.09,4.5,1.56,6.67.33,1.51.63,2.96.92,4.41-.75-1.64-2.28-4.82-2.44-5.07-2.46-3.92-9.53-10.05-14.56-8.77-3.62.92-5.24,4.84-4.01,8.21,1.26,3.44,5.19,5.65,8.5,6.66,3.64,1.11,11.71.1,12.72-.04.48,2.41.93,4.76,1.32,6.98.86,4.91,1.52,9.3,2.01,13.02h3.4c-.59-3.85-1.37-8.44-2.39-13.59-.48-2.45-1.04-5.06-1.65-7.73.61-.24,4.05-1.63,7.09-3.34,2.65,2.88,9.46,6.24,10.34,6.67-.93,2.28-1.85,4.48-2.75,6.55-1.88,4.33-3.67,8.17-5.25,11.44h3.68c1.36-3.01,2.85-6.44,4.4-10.24.95-2.31,1.92-4.79,2.89-7.35.98.2,8.96,1.83,12.68.99,3.37-.76,7.46-2.67,8.97-6.01,1.48-3.27.15-7.29-3.39-8.48-4.92-1.65-12.42,3.93-15.17,7.66-.16.22-1.66,2.8-2.57,4.45.39-1.05.78-2.06,1.17-3.15.79-2.14,1.51-4.3,2.29-6.62.34-1.13.68-2.28,1.03-3.43.37-1.14.61-2.39.92-3.59.67-2.81,1.21-5.69,1.69-8.6,1.87.68,8.57,3.01,12.03,2.77,3.45-.24,7.78-1.51,9.78-4.58,1.96-3,1.26-7.19-2.06-8.9-4.61-2.38-12.88,2.01-16.16,5.27-.2.2-2.3,2.81-3.42,4.27.28-1.75.56-3.5.78-5.28.64-5.14,1.12-10.37,1.63-15.58.15-1.6.33-3.19.5-4.78.66.25,8.56,3.19,12.44,2.92,3.45-.24,7.78-1.51,9.78-4.58,1.96-3,1.26-7.19-2.06-8.9-4.61-2.38-12.88,2.01-16.16,5.27-.25.25-3.25,4.01-3.97,5,.37-3.5.77-6.99,1.31-10.42.73-4.72,1.71-9.32,2.99-13.7.31.12,8.54,3.22,12.51,2.94,3.45-.24,7.78-1.51,9.78-4.58,1.96-3,1.26-7.19-2.06-8.9-4.61-2.38-12.88,2.01-16.16,5.27-.26.26-3.49,4.3-4.02,5.08.08-.26.13-.54.21-.8,1.42-4.66,3.39-8.99,5.43-12.96,1.18-2.31,2.44-4.45,3.71-6.5,1.47.74,8.24,4.02,11.85,4.17,3.46.14,7.9-.65,10.22-3.48,2.28-2.77,2.04-7.01-1.07-9.07-4.32-2.87-13.02.58-16.64,3.47-.2.16-2.02,1.98-3.33,3.32.59-.92,1.18-1.88,1.76-2.75,2.17-3.27,4.36-6.13,6.32-8.64,1.13-1.42,2.17-2.68,3.16-3.86,1.82-.03,9.16-.25,12.37-1.76,3.13-1.47,6.71-4.21,7.47-7.8.74-3.51-1.42-7.16-5.13-7.56-5.16-.56-11.29,6.51-13.17,10.74-.16.37-2.05,6.38-1.96,6.38,0,0,.09,0,.11,0-.98,1.11-2.01,2.31-3.11,3.64-2.02,2.48-4.27,5.3-6.52,8.53-2.26,3.23-4.62,6.79-6.76,10.78-2.16,3.99-4.22,8.3-5.78,13.01-.02.05-.03.11-.05.16.03-1.52-.04-5.77-.08-6.1-.6-4.59-4.44-13.12-9.55-14.06-3.67-.68-6.79,2.2-7.08,5.77-.3,3.65,2.35,7.3,4.93,9.61,2.91,2.6,10.99,5.12,11.63,5.32-1.44,4.5-2.55,9.24-3.41,14.09-.5,2.78-.91,5.59-1.29,8.41-.02-1.31-.05-2.49-.07-2.65-.6-4.59-4.45-13.12-9.55-14.06-3.68-.68-6.79,2.2-7.08,5.77-.3,3.65,2.35,7.3,4.93,9.61,2.62,2.34,9.46,4.62,11.28,5.2-.13,1.08-.28,2.17-.41,3.25-.62,5.21-1.22,10.4-1.96,15.48-.26,1.79-.58,3.54-.9,5.3-.02-1.17-.04-2.15-.06-2.3-.6-4.59-4.45-13.12-9.55-14.06-3.68-.68-6.79,2.2-7.08,5.77-.3,3.65,2.35,7.3,4.93,9.61,2.5,2.23,8.8,4.4,10.95,5.1-.38,1.79-.75,3.58-1.2,5.3-.33,1.16-.57,2.31-.97,3.46-.37,1.15-.74,2.28-1.1,3.41-.78,2.14-1.57,4.36-2.38,6.43-.55,1.44-1.11,2.81-1.66,4.19.28-1.78.76-5.27.76-5.57.07-3.08-1.02-8.08-3.2-11.6.01-.45-.01-.91-.08-1.36-.57-3.54-3.9-6.17-7.51-5.21-5.01,1.33-8.19,10.13-8.43,14.76-.01.27.16,3.25.31,5.13-.25-1.09-.48-2.15-.76-3.27-.53-2.22-1.12-4.41-1.74-6.78-.34-1.13-.69-2.27-1.04-3.43-.32-1.15-.81-2.33-1.21-3.51-.99-2.71-2.13-5.41-3.33-8.1,1.94-.47,8.81-2.22,11.56-4.33,2.75-2.11,5.66-5.55,5.63-9.21-.03-3.59-2.91-6.69-6.63-6.29-5.16.56-9.63,8.78-10.57,13.31-.06.28-.36,3.61-.5,5.45-.74-1.61-1.46-3.23-2.26-4.84-2.3-4.64-4.78-9.27-7.23-13.9-.75-1.42-1.48-2.84-2.22-4.26.69-.16,8.9-2.06,11.99-4.43,2.74-2.11,5.66-5.55,5.63-9.21-.03-3.58-2.91-6.69-6.63-6.28-5.16.56-9.63,8.78-10.57,13.31-.07.34-.5,5.13-.55,6.36-1.62-3.13-3.21-6.26-4.66-9.41-1.99-4.34-3.71-8.72-5.06-13.08.32-.07,8.9-2.02,12.06-4.45,2.75-2.11,5.66-5.55,5.63-9.21-.02-3.59-2.91-6.69-6.63-6.28-5.16.56-9.63,8.78-10.57,13.31-.07.36-.54,5.51-.55,6.45-.08-.26-.19-.52-.27-.78-1.38-4.67-2.14-9.37-2.62-13.81-.29-2.58-.42-5.05-.5-7.47,1.63-.2,9.09-1.19,12.18-3.06,2.96-1.79,6.23-4.9,6.61-8.54.37-3.57-2.16-6.97-5.9-6.98-5.19,0-10.54,7.67-11.97,12.07-.08.24-.6,2.76-.95,4.61-.02-1.09-.06-2.22-.05-3.26,0-3.92.25-7.51.5-10.69.15-1.81.33-3.44.51-4.96,1.5-1.03,7.5-5.27,9.35-8.29,1.8-2.95,3.27-7.22,1.93-10.62-1.32-3.34-5.13-5.19-8.45-3.47-4.61,2.38-5.82,11.66-5.06,16.23.07.39,1.81,6.45,1.89,6.4,0,0,.07-.05.09-.06-.2,1.46-.4,3.03-.59,4.75-.32,3.18-.64,6.78-.74,10.71-.1,3.93-.1,8.21.3,12.72.4,4.52,1.05,9.25,2.36,14.04.01.05.04.11.05.16-.82-1.28-3.22-4.79-3.43-5.04-3.03-3.5-10.95-8.49-15.72-6.46-3.44,1.46-4.45,5.58-2.72,8.72,1.76,3.21,5.99,4.8,9.41,5.29Z"/>
        <path class="cls-17" d="m672.31,268.72c.08.05,1.66-6.05,1.71-6.45.64-4.59-.82-13.83-5.5-16.09-3.36-1.63-7.13.33-8.35,3.7-1.25,3.44.33,7.66,2.22,10.57,2.21,3.41,9.91,8.26,9.92,8.27Z"/>
      </g>
      <polygon class="cls-3" points="660.52 434.95 610.75 434.95 604.53 379.68 666.74 379.68 660.52 434.95"/>
      <g>
        <polygon class="cls-17" points="605.67 389.8 606.27 395.16 665 395.16 665.6 389.8 605.67 389.8"/>
        <polygon class="cls-17" points="663.67 406.94 664.27 401.59 606.99 401.59 607.6 406.94 663.67 406.94"/>
      </g>
    </g>
  </g>
  <g id="Device">
    <g>
      <rect class="cls-2" x="371.16" y="312.3" width="30.22" height="121.93"/>
      <rect class="cls-2" x="203.24" y="111.17" width="381.42" height="231.35"/>
      <rect class="cls-1" x="195.56" y="111.17" width="381.42" height="231.35"/>
      <g>
        <rect class="cls-3" x="209.3" y="119.51" width="353.93" height="214.68"/>
        <rect class="cls-3" x="209.3" y="321.26" width="353.93" height="12.93"/>
      </g>
      <polygon class="cls-2" points="387.92 420.56 275.87 427.8 275.87 435.09 496.67 435.09 496.67 427.8 387.92 420.56"/>
      <rect class="cls-3" x="209.3" y="119.51" width="353.93" height="214.68"/>
    </g>
  </g>
  <g id="Icon_5" data-name="Icon 5">
    <g>
      <line class="cls-5" x1="332.84" y1="70.27" x2="302.49" y2="116.28"/>
      <g>
        <path class="cls-1" d="m381.15,45.73v-10.45l-10.44-1.16c-.57-2.21-1.44-4.29-2.56-6.22l6.59-8.24-7.39-7.39-8.21,6.56c-1.92-1.13-4-2.01-6.2-2.6l-1.17-10.49h-10.45l-1.16,10.44c-2.21.57-4.29,1.44-6.22,2.56l-8.24-6.59-7.39,7.39,6.56,8.21c-1.13,1.92-2.01,4-2.6,6.2l-10.49,1.17v10.45l10.44,1.16c.57,2.21,1.44,4.29,2.56,6.22l-6.59,8.24,7.39,7.39,8.21-6.56c1.92,1.13,4,2.01,6.2,2.6l1.17,10.49h10.45l1.16-10.44c2.21-.57,4.29-1.44,6.22-2.56l8.24,6.59,7.39-7.39-6.56-8.21c1.13-1.92,2.01-4,2.6-6.2l10.49-1.17Zm-34.68,7.17c-6.89,0-12.47-5.58-12.47-12.47s5.58-12.47,12.47-12.47,12.47,5.58,12.47,12.47-5.58,12.47-12.47,12.47Z"/>
        <path class="cls-7" d="m422.23,24.75l-1.16-6.92-7.04.39c-.62-1.4-1.43-2.68-2.38-3.83l3.45-6.19-5.71-4.07-4.71,5.26c-1.4-.53-2.87-.89-4.39-1.03l-1.93-6.81-6.92,1.16.39,7.04c-1.4.62-2.68,1.43-3.83,2.38l-6.19-3.45-4.07,5.71,5.26,4.71c-.53,1.4-.89,2.87-1.03,4.39l-6.81,1.93,1.16,6.92,7.04-.39c.62,1.4,1.43,2.68,2.38,3.83l-3.45,6.19,5.71,4.07,4.71-5.26c1.4.53,2.87.89,4.39,1.03l1.93,6.81,6.92-1.16-.39-7.04c1.4-.62,2.68-1.43,3.83-2.38l6.19,3.45,4.07-5.71-5.26-4.71c.53-1.4.89-2.87,1.03-4.39l6.81-1.93Zm-22.17,8.59c-4.56.76-8.88-2.32-9.64-6.88-.76-4.56,2.32-8.88,6.88-9.64,4.56-.76,8.88,2.32,9.64,6.88.76,4.56-2.32,8.88-6.88,9.64Z"/>
      </g>
    </g>
  </g>
  <g id="Icon_4" data-name="Icon 4">
    <g>
      <g>
        <line class="cls-8" x1="243.68" y1="70.75" x2="244.17" y2="73.2"/>
        <line class="cls-11" x1="245.09" y1="77.81" x2="251.96" y2="112.39"/>
        <line class="cls-8" x1="252.42" y1="114.7" x2="252.91" y2="117.15"/>
      </g>
      <g>
        <g>
          <rect class="cls-1" x="250.72" y="13.89" width="14.12" height="52.57" transform="translate(515.56 80.34) rotate(180)"/>
          <rect class="cls-7" x="231.89" y="25.66" width="14.12" height="40.8" transform="translate(477.9 92.11) rotate(180)"/>
          <rect class="cls-1" x="213.06" y="35.07" width="14.12" height="31.38" transform="translate(440.25 101.52) rotate(180)"/>
          <rect class="cls-7" x="194.24" y="42.92" width="14.12" height="23.54" transform="translate(402.59 109.37) rotate(180)"/>
        </g>
        <g>
          <polygon class="cls-17" points="200.84 39.44 199.46 37.63 213.9 26.65 221.06 29.03 232.88 16.3 239.83 18.42 252.44 3.97 257.78 7.43 263.32 3.5 264.64 5.36 257.84 10.17 252.86 6.95 240.58 21.03 233.58 18.9 221.73 31.66 214.32 29.19 200.84 39.44"/>
          <polygon class="cls-17" points="265.79 9.69 270.25 0 259.63 .98 265.79 9.69"/>
        </g>
      </g>
    </g>
  </g>
  <g id="Icon_3" data-name="Icon 3">
    <g>
      <g>
        <line class="cls-8" x1="132.99" y1="68.88" x2="135.07" y2="70.26"/>
        <line class="cls-13" x1="139.25" y1="73.03" x2="204.06" y2="115.87"/>
        <line class="cls-8" x1="206.15" y1="117.26" x2="208.23" y2="118.63"/>
      </g>
      <g>
        <g>
          <path class="cls-3" d="m65.62,26h72.6c3.52,0,6.38,2.86,6.38,6.38v49.65H59.25v-49.65c0-3.52,2.86-6.38,6.38-6.38Z"/>
          <g>
            <line class="cls-4" x1="80.78" y1="48.52" x2="121.21" y2="48.52"/>
            <line class="cls-4" x1="80.78" y1="55.04" x2="121.21" y2="55.04"/>
            <line class="cls-4" x1="80.78" y1="61.56" x2="121.21" y2="61.56"/>
            <line class="cls-4" x1="80.78" y1="68.08" x2="121.21" y2="68.08"/>
          </g>
          <path class="cls-1" d="m144.6,34.85v-3.63c0-2.88-2.34-5.22-5.22-5.22h-74.91c-2.88,0-5.22,2.34-5.22,5.22v3.63h85.35Z"/>
          <path class="cls-2" d="m130,30.65c0-.73-.59-1.32-1.32-1.32s-1.32.59-1.32,1.32.59,1.32,1.32,1.32,1.32-.59,1.32-1.32Z"/>
          <path class="cls-2" d="m135.27,30.65c0-.73-.59-1.32-1.32-1.32s-1.32.59-1.32,1.32.59,1.32,1.32,1.32,1.32-.59,1.32-1.32Z"/>
          <path class="cls-2" d="m140.54,30.65c0-.73-.59-1.32-1.32-1.32s-1.32.59-1.32,1.32.59,1.32,1.32,1.32,1.32-.59,1.32-1.32Z"/>
        </g>
        <g>
          <path class="cls-10" d="m48.42,93.94h0c-1.43-1.19-1.6-3.32-.37-4.72l23.97-27.5,3.66,3.03-22.56,28.68c-1.14,1.47-3.27,1.7-4.71.51Z"/>
          <path class="cls-9" d="m65.64,69.04l-17.59,20.19c-1.23,1.4-1.06,3.53.37,4.72,1.43,1.19,3.56.95,4.71-.51l16.64-21.15-4.13-3.24Z"/>
          <path class="cls-10" d="m92.01,41.3c-6.43-5.33-15.97-4.43-21.29,2-5.33,6.43-4.43,15.97,2,21.29,6.43,5.33,15.97,4.43,21.29-2,5.33-6.43,4.43-15.97-2-21.29Zm-17.9,21.62c-5.5-4.56-6.27-12.72-1.71-18.22,4.56-5.5,12.72-6.27,18.22-1.71,5.5,4.56,6.27,12.72,1.71,18.22-4.56,5.5-12.72,6.27-18.22,1.71Z"/>
        </g>
      </g>
    </g>
  </g>
  <g id="Icon_2" data-name="Icon 2">
    <g>
      <g>
        <line class="cls-8" x1="103.13" y1="187.66" x2="105.63" y2="187.66"/>
        <line class="cls-12" x1="110.65" y1="187.66" x2="198.32" y2="187.66"/>
        <line class="cls-8" x1="200.83" y1="187.66" x2="203.33" y2="187.66"/>
      </g>
      <g>
        <line class="cls-4" x1="62" y1="150.45" x2="118.53" y2="150.45"/>
        <line class="cls-4" x1="90.26" y1="178.3" x2="90.26" y2="150.45"/>
        <line class="cls-4" x1="45.47" y1="157.38" x2="45.47" y2="192.61"/>
        <polyline class="cls-4" points="99.86 196.32 151.06 196.32 151.06 227.28"/>
        <line class="cls-4" x1="118.53" y1="196.85" x2="118.53" y2="226.71"/>
        <rect class="cls-7" x="35.33" y="138.72" width="36.8" height="25.07"/>
        <rect class="cls-1" x="104.93" y="138.72" width="36.8" height="25.07"/>
        <rect class="cls-1" x="107.06" y="219.25" width="23.58" height="16.06"/>
        <rect class="cls-3" x="35.07" y="184.58" width="23.58" height="16.06"/>
        <rect class="cls-7" x="138" y="219.25" width="23.58" height="16.06"/>
        <rect class="cls-1" x="77.15" y="183.73" width="26.23" height="26.23" transform="translate(-112.75 121.48) rotate(-45)"/>
      </g>
    </g>
  </g>
  <g id="Icon_1" data-name="Icon 1">
    <g>
      <g>
        <line class="cls-8" x1="158.48" y1="306.45" x2="160.85" y2="305.64"/>
        <line class="cls-6" x1="165.6" y1="304.02" x2="201.2" y2="291.86"/>
        <line class="cls-8" x1="203.57" y1="291.05" x2="205.94" y2="290.25"/>
      </g>
      <g>
        <rect class="cls-3" x="40.16" y="290.9" width="112.71" height="26.47"/>
        <g>
          <rect class="cls-3" x="93.58" y="323.71" width="58.91" height="35.05"/>
          <polygon class="cls-2" points="93.58 358.76 114.09 342.35 122.66 348.69 140.56 334.89 152.12 346.08 152.12 358.76 93.58 358.76"/>
          <circle class="cls-2" cx="103.65" cy="332.66" r="4.1"/>
        </g>
        <g>
          <rect class="cls-3" x="93.58" y="363.6" width="58.91" height="35.05"/>
          <polygon class="cls-2" points="93.58 398.65 114.09 382.24 122.66 388.58 140.56 374.79 152.12 385.97 152.12 398.65 93.58 398.65"/>
          <circle class="cls-2" cx="103.65" cy="372.55" r="4.1"/>
        </g>
        <line class="cls-8" x1="41.87" y1="326.35" x2="86.65" y2="326.35"/>
        <line class="cls-8" x1="41.87" y1="336.3" x2="86.65" y2="336.3"/>
        <line class="cls-8" x1="41.87" y1="346.25" x2="86.65" y2="346.25"/>
        <line class="cls-8" x1="41.87" y1="356.2" x2="86.65" y2="356.2"/>
        <line class="cls-8" x1="41.87" y1="366.15" x2="86.65" y2="366.15"/>
        <line class="cls-8" x1="41.87" y1="376.1" x2="86.65" y2="376.1"/>
        <line class="cls-8" x1="41.87" y1="386.05" x2="86.65" y2="386.05"/>
        <line class="cls-8" x1="41.87" y1="396" x2="86.65" y2="396"/>
      </g>
    </g>
  </g>
  <g id="Screen_2" data-name="Screen 2">
    <g>
      <rect class="cls-3" x="385.2" y="131.16" width="170.66" height="48.35"/>
      <g>
        <rect class="cls-3" x="447.57" y="191.09" width="107.61" height="64.02"/>
        <polygon class="cls-2" points="447.57 255.11 485.03 225.15 500.69 236.72 533.38 211.53 554.49 231.96 554.49 255.11 447.57 255.11"/>
        <path class="cls-2" d="m473.45,207.44c0,4.14-3.35,7.49-7.49,7.49s-7.49-3.35-7.49-7.49,3.35-7.49,7.49-7.49,7.49,3.35,7.49,7.49Z"/>
      </g>
      <g>
        <rect class="cls-3" x="447.57" y="263.97" width="107.61" height="64.02"/>
        <polygon class="cls-2" points="447.57 327.98 485.03 298.02 500.69 309.6 533.38 284.4 554.49 304.83 554.49 327.98 447.57 327.98"/>
        <path class="cls-2" d="m473.45,280.31c0,4.14-3.35,7.49-7.49,7.49s-7.49-3.35-7.49-7.49,3.35-7.49,7.49-7.49,7.49,3.35,7.49,7.49Z"/>
      </g>
      <g>
        <path class="cls-17" d="m394.03,295.03l-4.19-25.72h2.98l2.76,18.48,3.46-18.39h2.54l3.49,18.48,2.7-18.58h2.92l-4.13,25.72h-2.6l-3.59-19.05-3.62,19.05h-2.73Z"/>
        <line class="cls-8" x1="414.61" y1="270.87" x2="439.77" y2="270.87"/>
        <line class="cls-8" x1="414.61" y1="277.81" x2="439.77" y2="277.81"/>
        <line class="cls-8" x1="414.61" y1="284.75" x2="439.77" y2="284.75"/>
        <line class="cls-8" x1="414.61" y1="291.69" x2="439.77" y2="291.69"/>
        <line class="cls-8" x1="414.61" y1="298.63" x2="439.77" y2="298.63"/>
        <line class="cls-8" x1="414.61" y1="305.57" x2="439.77" y2="305.57"/>
        <line class="cls-8" x1="414.61" y1="312.51" x2="439.77" y2="312.51"/>
        <line class="cls-8" x1="414.61" y1="319.45" x2="439.77" y2="319.45"/>
        <line class="cls-8" x1="414.61" y1="326.39" x2="439.77" y2="326.39"/>
      </g>
    </g>
  </g>
  <g id="Screen_1" data-name="Screen 1">
    <g>
      <path class="cls-2" d="m399.59,192.12c-7.14,0-13.78,2.16-19.3,5.85v-78.46h-170.99v214.68h170.99v-78.46c5.52,3.7,12.16,5.85,19.3,5.85,19.18,0,34.73-15.55,34.73-34.73s-15.55-34.73-34.73-34.73Z"/>
      <g>
        <g>
          <g>
            <line class="cls-15" x1="227.09" y1="152.27" x2="304.05" y2="152.27"/>
            <line class="cls-15" x1="227.09" y1="175.3" x2="267.27" y2="175.3"/>
            <g>
              <line class="cls-14" x1="227.09" y1="162.64" x2="264.55" y2="162.64"/>
              <line class="cls-14" x1="272.72" y1="162.64" x2="292.47" y2="162.64"/>
              <line class="cls-14" x1="304.05" y1="162.64" x2="323.8" y2="162.64"/>
            </g>
            <g>
              <line class="cls-15" x1="227.09" y1="185.09" x2="264.55" y2="185.09"/>
              <line class="cls-15" x1="272.72" y1="185.09" x2="292.47" y2="185.09"/>
              <line class="cls-14" x1="304.05" y1="185.09" x2="323.8" y2="185.09"/>
            </g>
            <g>
              <line class="cls-15" x1="227.09" y1="207.54" x2="264.55" y2="207.54"/>
              <line class="cls-14" x1="272.72" y1="207.54" x2="292.47" y2="207.54"/>
              <line class="cls-15" x1="304.05" y1="207.54" x2="323.8" y2="207.54"/>
            </g>
            <g>
              <line class="cls-15" x1="250.24" y1="217.33" x2="278.73" y2="217.33"/>
              <line class="cls-15" x1="284.95" y1="217.33" x2="299.97" y2="217.33"/>
              <line class="cls-15" x1="308.77" y1="217.33" x2="323.8" y2="217.33"/>
            </g>
            <g>
              <line class="cls-15" x1="250.24" y1="229.42" x2="278.73" y2="229.42"/>
              <line class="cls-15" x1="284.95" y1="229.42" x2="299.97" y2="229.42"/>
              <line class="cls-15" x1="308.77" y1="229.42" x2="323.8" y2="229.42"/>
            </g>
          </g>
          <g>
            <line class="cls-14" x1="227.09" y1="242.66" x2="304.05" y2="242.66"/>
            <line class="cls-15" x1="227.09" y1="265.69" x2="267.27" y2="265.69"/>
            <g>
              <line class="cls-14" x1="227.09" y1="253.03" x2="264.55" y2="253.03"/>
              <line class="cls-15" x1="272.72" y1="253.03" x2="292.47" y2="253.03"/>
              <line class="cls-14" x1="304.05" y1="253.03" x2="323.8" y2="253.03"/>
            </g>
            <g>
              <line class="cls-14" x1="227.09" y1="275.48" x2="264.55" y2="275.48"/>
              <line class="cls-14" x1="272.72" y1="275.48" x2="292.47" y2="275.48"/>
              <line class="cls-15" x1="304.05" y1="275.48" x2="323.8" y2="275.48"/>
            </g>
            <g>
              <line class="cls-15" x1="227.09" y1="297.93" x2="264.55" y2="297.93"/>
              <line class="cls-14" x1="272.72" y1="297.93" x2="292.47" y2="297.93"/>
              <line class="cls-14" x1="304.05" y1="297.93" x2="323.8" y2="297.93"/>
            </g>
            <g>
              <line class="cls-15" x1="250.24" y1="307.72" x2="278.73" y2="307.72"/>
              <line class="cls-15" x1="284.95" y1="307.72" x2="299.97" y2="307.72"/>
              <line class="cls-15" x1="308.77" y1="307.72" x2="323.8" y2="307.72"/>
            </g>
            <g>
              <line class="cls-15" x1="250.24" y1="319.81" x2="278.73" y2="319.81"/>
              <line class="cls-15" x1="284.95" y1="319.81" x2="299.97" y2="319.81"/>
              <line class="cls-15" x1="308.77" y1="319.81" x2="323.8" y2="319.81"/>
            </g>
          </g>
        </g>
        <g>
          <path class="cls-19" d="m229.19,138.46l7.24-3.73v1.08l-6.1,3.06v.03l6.1,3.06v1.08l-7.24-3.73v-.84Z"/>
          <path class="cls-19" d="m240.75,143.66l4.35-11.31h1.06l-4.37,11.31h-1.04Z"/>
          <path class="cls-19" d="m257.69,139.32l-7.24,3.71v-1.08l6.14-3.06v-.03l-6.14-3.06v-1.08l7.24,3.71v.87Z"/>
        </g>
      </g>
    </g>
  </g>
  <g id="Table">
    <g>
      <line class="cls-8" x1="66.08" y1="435.09" x2="701.11" y2="435.09"/>
      <line class="cls-8" x1="33.11" y1="435.09" x2="50.2" y2="435.09"/>
    </g>
  </g>
</svg>