<?xml version="1.0" encoding="UTF-8"?>
<svg xmlns="http://www.w3.org/2000/svg" viewBox="0 0 710.66 457.49">
  <defs>
    <style>
      .cls-1 {
        fill: #bdbdbd;
      }

      .cls-1, .cls-2, .cls-3, .cls-4, .cls-5, .cls-6, .cls-7, .cls-8, .cls-9, .cls-10 {
        stroke-linecap: round;
        stroke-linejoin: round;
      }

      .cls-1, .cls-2, .cls-3, .cls-4, .cls-6, .cls-7, .cls-8, .cls-9, .cls-11, .cls-10 {
        stroke: #263238;
      }

      .cls-2, .cls-12 {
        fill: #41c7a8;
      }

      .cls-3, .cls-13 {
        fill: #263238;
      }

      .cls-4, .cls-14, .cls-8, .cls-15 {
        fill: #fff;
      }

      .cls-5 {
        stroke: #858585;
      }

      .cls-5, .cls-6, .cls-7, .cls-9, .cls-11, .cls-10 {
        fill: none;
      }

      .cls-16, .cls-14, .cls-17, .cls-13, .cls-12, .cls-15 {
        stroke-width: 0px;
      }

      .cls-16, .cls-18 {
        opacity: .3;
      }

      .cls-14 {
        opacity: .8;
      }

      .cls-7 {
        stroke-dasharray: 0 0 2.91 2.91;
      }

      .cls-8 {
        stroke-dasharray: 0 3;
      }

      .cls-9 {
        stroke-dasharray: 0 0 3.03 3.03;
      }

      .cls-11 {
        stroke-miterlimit: 10;
      }

      .cls-10 {
        stroke-dasharray: 0 0 3.09 3.09;
      }
    </style>
  </defs>
  <g id="Background_Simple" data-name="Background Simple">
    <g>
      <path class="cls-12" d="m709.53,279.93c12.69-110.87-83.02-211.19-180.84-252.21-71.86-30.13-149.6-11.19-218.83,16.33-23.03,9.16-45.57,20.09-69.17,27.79-17.54,5.72-35.22,8.24-53.6,5.88-22.11-2.84-45.37-9.41-67.67-5.08-20.96,4.07-39.89,16.14-54.46,31.17C9.75,160.79-10.96,247.88,5.49,323.59c.98,4.52,2.08,9.01,3.3,13.47,43.04,158.44,219.6,88.69,299.53,86.11,79.93-2.58,161.62,35.3,256.49,11.19,66.91-17.01,134.27-63.15,144.72-154.43Z"/>
      <path class="cls-14" d="m709.53,279.93c12.69-110.87-83.02-211.19-180.84-252.21-71.86-30.13-149.6-11.19-218.83,16.33-23.03,9.16-45.57,20.09-69.17,27.79-17.54,5.72-35.22,8.24-53.6,5.88-22.11-2.84-45.37-9.41-67.67-5.08-20.96,4.07-39.89,16.14-54.46,31.17C9.75,160.79-10.96,247.88,5.49,323.59c.98,4.52,2.08,9.01,3.3,13.47,43.04,158.44,219.6,88.69,299.53,86.11,79.93-2.58,161.62,35.3,256.49,11.19,66.91-17.01,134.27-63.15,144.72-154.43Z"/>
    </g>
  </g>
  <g id="Floor">
    <g>
      <line class="cls-11" x1="682.93" y1="449.01" x2="694.39" y2="449.01"/>
      <line class="cls-11" x1="5.86" y1="449.01" x2="678.88" y2="449.01"/>
    </g>
  </g>
  <g id="Plants">
    <g class="cls-18">
      <path class="cls-17" d="m123.33,120.25c.12,0-2.44-7.52-2.65-7.97-2.5-5.27-10.43-14-16.91-13.14-4.67.61-7.28,5.27-6.24,9.67,1.06,4.49,5.65,7.84,9.64,9.6,4.68,2.07,16.16,1.85,16.16,1.85Z"/>
      <path class="cls-17" d="m24.94,181.81c5.04-.86,14.49-7.37,14.5-7.38.1-.07-6.18-4.92-6.61-5.19-4.99-3.02-16.42-5.92-21.35-1.63-3.55,3.09-3.16,8.42.13,11.51,3.36,3.16,9.04,3.42,13.34,2.69Z"/>
      <path class="cls-17" d="m46.48,207.42c4.46-2.08,11.39-10.18,11.93-10.82,4.5,3.9,9.43,7.55,14.62,10.96,2.97,1.95,6.02,3.83,9.1,5.67-1.53-.63-2.91-1.18-3.11-1.24-5.62-1.59-17.4-1.37-21.03,4.06-2.61,3.92-.83,8.95,3.16,11.07,4.08,2.16,9.62.91,13.57-.93,4.01-1.87,10.06-8.66,11.63-10.47,1.19.69,2.37,1.4,3.56,2.09,5.72,3.31,11.44,6.58,16.95,9.97,1.94,1.19,3.81,2.44,5.69,3.68-1.36-.56-2.51-1.02-2.69-1.07-5.61-1.59-17.4-1.38-21.03,4.06-2.61,3.92-.83,8.95,3.16,11.07,4.08,2.16,9.62.91,13.57-.93,3.83-1.78,9.46-8,11.35-10.15,1.88,1.33,3.77,2.65,5.53,4.02,1.18.96,2.39,1.81,3.52,2.84,1.15,1,2.28,1.99,3.4,2.97,2.09,1.97,4.26,3.98,6.26,5.95,1.4,1.36,2.7,2.68,4.02,4.01-1.92-1.21-5.73-3.5-6.07-3.65-5.31-2.43-16.99-4-21.4.83-3.18,3.48-2.17,8.72,1.45,11.42,3.7,2.75,9.37,2.36,13.56,1.14,4.61-1.35,12.4-7.99,13.37-8.83,2.17,2.2,4.27,4.37,6.21,6.44,5.35,5.68,9.8,10.75,13.25,14.81l3.27-2.8c-3.59-4.03-8.2-9.06-13.73-14.69-2.2-2.25-4.6-4.6-7.08-7,.47-.67,3.13-4.52,5.17-8.42,4.78,1.19,14.28.03,15.5-.12.6,3.04,1.15,6,1.63,8.8,1.18,6.85,2.04,12.9,2.66,17.88l3.82-3.27c-.69-4.46-1.56-9.61-2.68-15.31-.59-3.09-1.29-6.38-2.04-9.74,1.17-.46,10.7-4.27,14.04-7.73,3.03-3.14,6.01-7.97,5.3-12.53-.7-4.46-4.88-7.79-9.43-6.59-6.32,1.66-10.37,12.73-10.69,18.56-.02.34.19,4.1.37,6.46-.31-1.38-.6-2.71-.94-4.12-.65-2.8-1.38-5.57-2.16-8.55-.43-1.43-.86-2.87-1.29-4.33-.4-1.45-1.01-2.94-1.51-4.42-1.24-3.42-2.66-6.82-4.16-10.22,2.45-.58,11.11-2.75,14.59-5.41,3.47-2.64,7.15-6.97,7.13-11.58-.02-4.52-3.64-8.44-8.33-7.95-6.5.68-12.17,11.01-13.37,16.73-.08.36-.47,4.55-.65,6.86-.92-2.04-1.83-4.07-2.83-6.1-2.88-5.86-5.98-11.7-9.05-17.54-.94-1.79-1.86-3.58-2.78-5.37.87-.2,11.22-2.56,15.12-5.53,3.47-2.64,7.15-6.97,7.13-11.58-.02-4.52-3.64-8.44-8.33-7.95-6.5.68-12.18,11.01-13.37,16.73-.09.43-.66,6.47-.73,8.01-2.03-3.95-4.02-7.9-5.82-11.87-2.49-5.48-4.64-11-6.32-16.5.41-.09,11.22-2.51,15.21-5.55,3.47-2.64,7.15-6.97,7.13-11.58-.02-4.52-3.64-8.44-8.33-7.95-6.5.68-12.18,11.01-13.37,16.73-.08.37-.51,4.97-.67,7.17-.21.02-.17.02-.37.04-1.73-5.91-2.66-11.86-3.26-17.46-.35-3.25-.51-6.37-.59-9.41,2.06-.24,11.46-1.46,15.36-3.8,3.74-2.25,7.87-6.14,8.36-10.73.48-4.49-2.69-8.79-7.4-8.81-6.54-.04-13.31,9.61-15.13,15.15-.1.3-.77,3.48-1.22,5.8-.02-1.37-.06-2.79-.05-4.11.03-4.94.36-9.47.68-13.47.2-2.28.43-4.33.66-6.25,1.9-1.29,9.47-6.6,11.81-10.41,2.28-3.71,4.16-9.08,2.48-13.38-1.65-4.21-6.44-6.56-10.63-4.41-5.82,2.98-7.38,14.66-6.44,20.42.08.5,2.25,8.14,2.35,8.07,0,0,.09-.06.11-.08-.26,1.84-.52,3.82-.76,5.99-.41,4.01-.84,8.53-.97,13.5-.15,4.96-.17,10.35.33,16.03.49,5.69,1.29,11.66,2.91,17.7.02.07.05.14.06.21-1.02-1.62-4.03-6.05-4.3-6.36-3.8-4.43-13.75-10.75-19.78-8.21-4.34,1.83-5.63,7.01-3.47,10.98,2.21,4.05,7.52,6.07,11.83,6.71,4.86.73,15.11-2.21,15.93-2.44,1.6,5.74,3.7,11.49,6.15,17.2,1.4,3.27,2.9,6.51,4.46,9.75-.93-1.37-1.77-2.59-1.91-2.75-3.8-4.43-13.75-10.75-19.78-8.21-4.34,1.83-5.63,7.01-3.47,10.98,2.21,4.05,7.52,6.07,11.83,6.71,4.37.65,13.16-1.67,15.48-2.32.61,1.23,1.2,2.47,1.82,3.71,2.94,5.91,5.91,11.8,8.64,17.67.96,2.07,1.84,4.14,2.72,6.21-.83-1.22-1.53-2.24-1.66-2.38-3.8-4.43-13.75-10.75-19.78-8.21-4.34,1.82-5.63,7.01-3.47,10.98,2.21,4.05,7.52,6.07,11.83,6.71,4.18.62,12.31-1.45,15.06-2.2.84,2.15,1.68,4.29,2.4,6.41.45,1.46.99,2.83,1.37,4.32.4,1.47.8,2.92,1.2,4.35.66,2.8,1.36,5.67,1.93,8.42.41,1.9.77,3.73,1.14,5.56-.93-2.07-2.85-6.08-3.05-6.4-2.05-3.29-6.66-7.8-11.38-10-.3-.49-.64-.95-1.03-1.37-3.05-3.34-8.37-3.81-11.51-.3-4.36,4.87-1.62,16.34,1.32,21.37.17.3,2.42,3.31,3.87,5.19-1.02-.97-2-1.93-3.06-2.92-2.09-1.97-4.23-3.88-6.52-5.94-1.14-.96-2.3-1.92-3.46-2.89-1.14-.99-2.46-1.89-3.7-2.86-2.92-2.17-5.98-4.23-9.11-6.23,1.72-1.83,7.74-8.42,9.19-12.56,1.44-4.12,2.12-9.76-.44-13.6-2.51-3.76-7.69-5.03-11.33-2.04-5.04,4.16-4.08,15.9-1.93,21.33.13.34,2.12,4.06,3.24,6.08-1.89-1.19-3.77-2.39-5.73-3.53-5.64-3.3-11.45-6.46-17.23-9.64-1.77-.97-3.52-1.96-5.28-2.95.62-.65,7.95-8.32,9.56-12.96,1.44-4.12,2.12-9.76-.44-13.6-2.51-3.76-7.69-5.03-11.33-2.04-5.04,4.16-4.08,15.9-1.93,21.33.16.41,3.02,5.76,3.81,7.08-3.87-2.17-7.71-4.37-11.41-6.69-5.11-3.2-9.94-6.61-14.37-10.27.29-.3,7.97-8.28,9.63-13.02,1.44-4.12,2.12-9.76-.44-13.6-2.51-3.76-7.69-5.03-11.33-2.04-5.05,4.16-4.08,15.9-1.93,21.33.14.36,2.32,4.44,3.39,6.35-.16.13-.13.11-.29.24-4.71-3.98-8.76-8.42-12.36-12.77-2.09-2.51-3.94-5.03-5.69-7.52,1.58-1.34,8.75-7.54,10.71-11.65,1.88-3.93,3.18-9.47,1.06-13.56-2.08-4.01-7.1-5.85-11.04-3.27-5.47,3.58-5.8,15.36-4.26,20.99.08.31,1.28,3.32,2.18,5.51-.77-1.14-1.59-2.3-2.31-3.4-2.71-4.14-4.93-8.09-6.87-11.61-1.09-2.01-2.03-3.85-2.89-5.58.87-2.13,4.26-10.73,4.11-15.2-.15-4.36-1.54-9.87-5.31-12.52-3.69-2.6-8.99-1.92-11.3,2.19-3.21,5.69,1.93,16.3,5.89,20.59.34.37,6.36,5.55,6.41,5.44,0,0,.04-.1.05-.13.8,1.68,1.67,3.47,2.67,5.41,1.87,3.57,4.01,7.58,6.63,11.79,2.61,4.22,5.57,8.72,9.11,13.19,3.55,4.48,7.5,9.01,12.19,13.16.05.05.11.09.17.14-1.75-.79-6.7-2.82-7.1-2.93-5.61-1.59-17.4-1.37-21.03,4.06-2.61,3.92-.83,8.95,3.16,11.07,4.08,2.16,9.62.91,13.57-.93Z"/>
      <path class="cls-16" d="m24.94,181.81c5.04-.86,14.49-7.37,14.5-7.38.1-.07-6.18-4.92-6.61-5.19-4.99-3.02-16.42-5.92-21.35-1.63-3.55,3.09-3.16,8.42.13,11.51,3.36,3.16,9.04,3.42,13.34,2.69Z"/>
      <path class="cls-16" d="m123.33,120.25c.12,0-2.44-7.52-2.65-7.97-2.5-5.27-10.43-14-16.91-13.14-4.67.61-7.28,5.27-6.24,9.67,1.06,4.49,5.65,7.84,9.64,9.6,4.68,2.07,16.16,1.85,16.16,1.85Z"/>
      <path class="cls-16" d="m46.48,207.42c4.46-2.08,11.39-10.18,11.93-10.82,4.5,3.9,9.43,7.55,14.62,10.96,2.97,1.95,6.02,3.83,9.1,5.67-1.53-.63-2.91-1.18-3.11-1.24-5.62-1.59-17.4-1.37-21.03,4.06-2.61,3.92-.83,8.95,3.16,11.07,4.08,2.16,9.62.91,13.57-.93,4.01-1.87,10.06-8.66,11.63-10.47,1.19.69,2.37,1.4,3.56,2.09,5.72,3.31,11.44,6.58,16.95,9.97,1.94,1.19,3.81,2.44,5.69,3.68-1.36-.56-2.51-1.02-2.69-1.07-5.61-1.59-17.4-1.38-21.03,4.06-2.61,3.92-.83,8.95,3.16,11.07,4.08,2.16,9.62.91,13.57-.93,3.83-1.78,9.46-8,11.35-10.15,1.88,1.33,3.77,2.65,5.53,4.02,1.18.96,2.39,1.81,3.52,2.84,1.15,1,2.28,1.99,3.4,2.97,2.09,1.97,4.26,3.98,6.26,5.95,1.4,1.36,2.7,2.68,4.02,4.01-1.92-1.21-5.73-3.5-6.07-3.65-5.31-2.43-16.99-4-21.4.83-3.18,3.48-2.17,8.72,1.45,11.42,3.7,2.75,9.37,2.36,13.56,1.14,4.61-1.35,12.4-7.99,13.37-8.83,2.17,2.2,4.27,4.37,6.21,6.44,5.35,5.68,9.8,10.75,13.25,14.81l3.27-2.8c-3.59-4.03-8.2-9.06-13.73-14.69-2.2-2.25-4.6-4.6-7.08-7,.47-.67,3.13-4.52,5.17-8.42,4.78,1.19,14.28.03,15.5-.12.6,3.04,1.15,6,1.63,8.8,1.18,6.85,2.04,12.9,2.66,17.88l3.82-3.27c-.69-4.46-1.56-9.61-2.68-15.31-.59-3.09-1.29-6.38-2.04-9.74,1.17-.46,10.7-4.27,14.04-7.73,3.03-3.14,6.01-7.97,5.3-12.53-.7-4.46-4.88-7.79-9.43-6.59-6.32,1.66-10.37,12.73-10.69,18.56-.02.34.19,4.1.37,6.46-.31-1.38-.6-2.71-.94-4.12-.65-2.8-1.38-5.57-2.16-8.55-.43-1.43-.86-2.87-1.29-4.33-.4-1.45-1.01-2.94-1.51-4.42-1.24-3.42-2.66-6.82-4.16-10.22,2.45-.58,11.11-2.75,14.59-5.41,3.47-2.64,7.15-6.97,7.13-11.58-.02-4.52-3.64-8.44-8.33-7.95-6.5.68-12.17,11.01-13.37,16.73-.08.36-.47,4.55-.65,6.86-.92-2.04-1.83-4.07-2.83-6.1-2.88-5.86-5.98-11.7-9.05-17.54-.94-1.79-1.86-3.58-2.78-5.37.87-.2,11.22-2.56,15.12-5.53,3.47-2.64,7.15-6.97,7.13-11.58-.02-4.52-3.64-8.44-8.33-7.95-6.5.68-12.18,11.01-13.37,16.73-.09.43-.66,6.47-.73,8.01-2.03-3.95-4.02-7.9-5.82-11.87-2.49-5.48-4.64-11-6.32-16.5.41-.09,11.22-2.51,15.21-5.55,3.47-2.64,7.15-6.97,7.13-11.58-.02-4.52-3.64-8.44-8.33-7.95-6.5.68-12.18,11.01-13.37,16.73-.08.37-.51,4.97-.67,7.17-.21.02-.17.02-.37.04-1.73-5.91-2.66-11.86-3.26-17.46-.35-3.25-.51-6.37-.59-9.41,2.06-.24,11.46-1.46,15.36-3.8,3.74-2.25,7.87-6.14,8.36-10.73.48-4.49-2.69-8.79-7.4-8.81-6.54-.04-13.31,9.61-15.13,15.15-.1.3-.77,3.48-1.22,5.8-.02-1.37-.06-2.79-.05-4.11.03-4.94.36-9.47.68-13.47.2-2.28.43-4.33.66-6.25,1.9-1.29,9.47-6.6,11.81-10.41,2.28-3.71,4.16-9.08,2.48-13.38-1.65-4.21-6.44-6.56-10.63-4.41-5.82,2.98-7.38,14.66-6.44,20.42.08.5,2.25,8.14,2.35,8.07,0,0,.09-.06.11-.08-.26,1.84-.52,3.82-.76,5.99-.41,4.01-.84,8.53-.97,13.5-.15,4.96-.17,10.35.33,16.03.49,5.69,1.29,11.66,2.91,17.7.02.07.05.14.06.21-1.02-1.62-4.03-6.05-4.3-6.36-3.8-4.43-13.75-10.75-19.78-8.21-4.34,1.83-5.63,7.01-3.47,10.98,2.21,4.05,7.52,6.07,11.83,6.71,4.86.73,15.11-2.21,15.93-2.44,1.6,5.74,3.7,11.49,6.15,17.2,1.4,3.27,2.9,6.51,4.46,9.75-.93-1.37-1.77-2.59-1.91-2.75-3.8-4.43-13.75-10.75-19.78-8.21-4.34,1.83-5.63,7.01-3.47,10.98,2.21,4.05,7.52,6.07,11.83,6.71,4.37.65,13.16-1.67,15.48-2.32.61,1.23,1.2,2.47,1.82,3.71,2.94,5.91,5.91,11.8,8.64,17.67.96,2.07,1.84,4.14,2.72,6.21-.83-1.22-1.53-2.24-1.66-2.38-3.8-4.43-13.75-10.75-19.78-8.21-4.34,1.82-5.63,7.01-3.47,10.98,2.21,4.05,7.52,6.07,11.83,6.71,4.18.62,12.31-1.45,15.06-2.2.84,2.15,1.68,4.29,2.4,6.41.45,1.46.99,2.83,1.37,4.32.4,1.47.8,2.92,1.2,4.35.66,2.8,1.36,5.67,1.93,8.42.41,1.9.77,3.73,1.14,5.56-.93-2.07-2.85-6.08-3.05-6.4-2.05-3.29-6.66-7.8-11.38-10-.3-.49-.64-.95-1.03-1.37-3.05-3.34-8.37-3.81-11.51-.3-4.36,4.87-1.62,16.34,1.32,21.37.17.3,2.42,3.31,3.87,5.19-1.02-.97-2-1.93-3.06-2.92-2.09-1.97-4.23-3.88-6.52-5.94-1.14-.96-2.3-1.92-3.46-2.89-1.14-.99-2.46-1.89-3.7-2.86-2.92-2.17-5.98-4.23-9.11-6.23,1.72-1.83,7.74-8.42,9.19-12.56,1.44-4.12,2.12-9.76-.44-13.6-2.51-3.76-7.69-5.03-11.33-2.04-5.04,4.16-4.08,15.9-1.93,21.33.13.34,2.12,4.06,3.24,6.08-1.89-1.19-3.77-2.39-5.73-3.53-5.64-3.3-11.45-6.46-17.23-9.64-1.77-.97-3.52-1.96-5.28-2.95.62-.65,7.95-8.32,9.56-12.96,1.44-4.12,2.12-9.76-.44-13.6-2.51-3.76-7.69-5.03-11.33-2.04-5.04,4.16-4.08,15.9-1.93,21.33.16.41,3.02,5.76,3.81,7.08-3.87-2.17-7.71-4.37-11.41-6.69-5.11-3.2-9.94-6.61-14.37-10.27.29-.3,7.97-8.28,9.63-13.02,1.44-4.12,2.12-9.76-.44-13.6-2.51-3.76-7.69-5.03-11.33-2.04-5.05,4.16-4.08,15.9-1.93,21.33.14.36,2.32,4.44,3.39,6.35-.16.13-.13.11-.29.24-4.71-3.98-8.76-8.42-12.36-12.77-2.09-2.51-3.94-5.03-5.69-7.52,1.58-1.34,8.75-7.54,10.71-11.65,1.88-3.93,3.18-9.47,1.06-13.56-2.08-4.01-7.1-5.85-11.04-3.27-5.47,3.58-5.8,15.36-4.26,20.99.08.31,1.28,3.32,2.18,5.51-.77-1.14-1.59-2.3-2.31-3.4-2.71-4.14-4.93-8.09-6.87-11.61-1.09-2.01-2.03-3.85-2.89-5.58.87-2.13,4.26-10.73,4.11-15.2-.15-4.36-1.54-9.87-5.31-12.52-3.69-2.6-8.99-1.92-11.3,2.19-3.21,5.69,1.93,16.3,5.89,20.59.34.37,6.36,5.55,6.41,5.44,0,0,.04-.1.05-.13.8,1.68,1.67,3.47,2.67,5.41,1.87,3.57,4.01,7.58,6.63,11.79,2.61,4.22,5.57,8.72,9.11,13.19,3.55,4.48,7.5,9.01,12.19,13.16.05.05.11.09.17.14-1.75-.79-6.7-2.82-7.1-2.93-5.61-1.59-17.4-1.37-21.03,4.06-2.61,3.92-.83,8.95,3.16,11.07,4.08,2.16,9.62.91,13.57-.93Z"/>
    </g>
    <g class="cls-18">
      <path class="cls-17" d="m601.16,48.73c-.11,0,2.19-6.74,2.38-7.15,2.24-4.73,9.35-12.55,15.16-11.78,4.19.55,6.53,4.73,5.6,8.67-.95,4.03-5.07,7.03-8.64,8.61-4.2,1.85-14.48,1.66-14.49,1.66Z"/>
      <path class="cls-17" d="m689.38,103.93c-4.52-.77-13-6.61-13-6.61-.09-.06,5.54-4.42,5.93-4.65,4.48-2.71,14.72-5.31,19.15-1.47,3.19,2.77,2.83,7.54-.12,10.32-3.01,2.83-8.1,3.07-11.96,2.41Z"/>
      <path class="cls-17" d="m698.51,54.4c-2.07-3.68-6.82-4.29-10.13-1.96-3.38,2.38-4.63,7.32-4.76,11.23-.13,4,2.91,11.72,3.69,13.63-.78,1.55-1.62,3.2-2.59,5-1.74,3.15-3.73,6.7-6.16,10.41-.64.99-1.38,2.03-2.07,3.05.81-1.96,1.88-4.66,1.96-4.94,1.38-5.05,1.09-15.61-3.82-18.82-3.53-2.31-8.03-.67-9.9,2.93-1.9,3.67-.74,8.63.95,12.16,1.76,3.68,8.18,9.24,9.6,10.44-1.57,2.23-3.23,4.49-5.1,6.75-3.22,3.9-6.86,7.88-11.08,11.45-.14-.12-.12-.1-.26-.21.97-1.72,2.92-5.37,3.04-5.69,1.93-4.86,2.79-15.4-1.73-19.12-3.26-2.68-7.91-1.54-10.16,1.83-2.29,3.44-1.68,8.5-.39,12.19,1.48,4.25,8.37,11.41,8.63,11.68-3.98,3.28-8.31,6.34-12.89,9.21-3.31,2.08-6.76,4.05-10.23,6,.71-1.19,3.27-5.98,3.42-6.35,1.93-4.86,2.79-15.4-1.73-19.12-3.26-2.68-7.91-1.54-10.16,1.83-2.29,3.44-1.68,8.5-.39,12.19,1.45,4.15,8.02,11.04,8.57,11.62-1.58.88-3.15,1.77-4.74,2.64-5.18,2.85-10.39,5.68-15.44,8.64-1.75,1.02-3.44,2.1-5.13,3.16,1.01-1.81,2.79-5.15,2.91-5.45,1.93-4.86,2.79-15.4-1.73-19.12-3.26-2.68-7.91-1.54-10.16,1.83-2.29,3.44-1.68,8.5-.39,12.19,1.29,3.71,6.69,9.62,8.24,11.26-2.81,1.8-5.55,3.64-8.17,5.59-1.11.86-2.3,1.67-3.32,2.56-1.05.87-2.08,1.74-3.11,2.6-2.06,1.85-3.98,3.56-5.85,5.32-.95.89-1.83,1.75-2.74,2.62,1.3-1.68,3.31-4.39,3.47-4.65,2.64-4.52,5.09-14.8,1.19-19.16-2.81-3.15-7.58-2.73-10.32.27-.35.38-.65.79-.92,1.23-4.23,1.97-8.37,6.02-10.21,8.97-.18.28-1.89,3.88-2.73,5.73.33-1.65.65-3.28,1.02-4.99.52-2.46,1.14-5.04,1.73-7.55.35-1.29.71-2.59,1.07-3.9.34-1.33.82-2.56,1.23-3.87.64-1.9,1.4-3.82,2.15-5.75,2.47.68,9.76,2.54,13.5,1.98,3.87-.58,8.63-2.39,10.61-6.02,1.94-3.56.78-8.2-3.11-9.84-5.4-2.27-14.32,3.39-17.73,7.36-.11.13-.74,1.04-1.49,2.13.79-1.85,1.57-3.71,2.44-5.56,2.45-5.26,5.1-10.54,7.74-15.84.55-1.1,1.08-2.22,1.63-3.32,2.08.58,9.96,2.66,13.88,2.08,3.87-.58,8.63-2.39,10.61-6.02,1.94-3.56.78-8.2-3.11-9.84-5.4-2.27-14.32,3.39-17.73,7.36-.12.14-.88,1.23-1.71,2.46,1.39-2.9,2.75-5.81,4-8.74,2.2-5.12,4.08-10.28,5.51-15.42.73.21,9.92,2.84,14.28,2.19,3.87-.58,8.63-2.39,10.61-6.02,1.94-3.56.78-8.2-3.11-9.84-5.4-2.27-14.32,3.39-17.73,7.36-.24.28-2.94,4.25-3.86,5.71.02-.06.04-.12.06-.18,1.45-5.41,2.17-10.76,2.61-15.87.44-5.09.42-9.92.29-14.37-.12-4.45-.5-8.51-.87-12.1-.22-1.94-.45-3.72-.68-5.37.02.01.1.07.1.07.09.06,2.03-6.79,2.1-7.23.84-5.16-.56-15.64-5.78-18.31-3.76-1.93-8.06.18-9.53,3.95-1.51,3.85.18,8.66,2.22,11.99,2.1,3.41,8.89,8.17,10.59,9.33.21,1.72.41,3.56.59,5.6.29,3.59.58,7.65.61,12.08,0,1.18-.03,2.45-.04,3.68-.41-2.08-1-4.93-1.09-5.2-1.63-4.97-7.71-13.62-13.57-13.59-4.22.02-7.07,3.88-6.64,7.9.44,4.11,4.15,7.61,7.5,9.62,3.5,2.1,11.92,3.19,13.77,3.41-.07,2.73-.21,5.53-.53,8.44-.54,5.03-1.37,10.36-2.93,15.66-.18-.02-.15-.02-.33-.03-.14-1.97-.53-6.09-.6-6.42-1.08-5.12-6.16-14.38-11.99-15-4.2-.44-7.45,3.08-7.46,7.13-.01,4.14,3.29,8.02,6.4,10.39,3.58,2.73,13.28,4.9,13.64,4.98-1.51,4.93-3.43,9.88-5.67,14.79-1.62,3.56-3.4,7.11-5.22,10.65-.06-1.38-.57-6.8-.65-7.18-1.08-5.12-6.16-14.38-11.99-15-4.2-.44-7.45,3.08-7.46,7.13-.01,4.14,3.29,8.02,6.4,10.39,3.5,2.66,12.78,4.78,13.56,4.96-.83,1.61-1.65,3.21-2.49,4.82-2.75,5.24-5.53,10.47-8.12,15.73-.9,1.82-1.71,3.65-2.54,5.47-.16-2.07-.52-5.83-.58-6.15-1.08-5.12-6.16-14.38-11.99-15-4.2-.44-7.45,3.08-7.46,7.13-.02,4.14,3.29,8.02,6.4,10.39,3.12,2.38,10.89,4.33,13.08,4.85-1.35,3.05-2.62,6.1-3.73,9.17-.45,1.33-1,2.66-1.35,3.97-.39,1.31-.78,2.6-1.16,3.88-.7,2.68-1.36,5.16-1.94,7.67-.3,1.27-.56,2.47-.84,3.7.15-2.12.35-5.49.33-5.79-.29-5.22-3.91-15.15-9.58-16.64-4.08-1.07-7.83,1.91-8.46,5.91-.64,4.09,2.04,8.42,4.75,11.23,2.99,3.1,11.54,6.52,12.59,6.93-.67,3.02-1.3,5.97-1.83,8.74-1,5.11-1.78,9.72-2.4,13.71h3.81c.52-3.84,1.17-8.24,2.01-13.09.43-2.51.92-5.17,1.46-7.89,1.1.14,9.61,1.18,13.9.11,1.82,3.5,4.21,6.94,4.63,7.55-2.23,2.15-4.37,4.26-6.35,6.28-2.45,2.49-4.7,4.85-6.74,7.04h4.96c1.35-1.49,2.77-3.03,4.29-4.64,1.74-1.86,3.62-3.8,5.57-5.78.87.75,7.85,6.71,11.98,7.92,3.75,1.1,8.84,1.45,12.15-1.02,3.25-2.42,4.15-7.12,1.3-10.24-3.95-4.33-14.43-2.92-19.19-.74-.3.14-3.72,2.19-5.44,3.27,1.18-1.19,2.35-2.38,3.61-3.59,1.79-1.77,3.73-3.57,5.61-5.34,1.01-.88,2.02-1.77,3.05-2.66,1.02-.93,2.1-1.68,3.16-2.55,1.58-1.23,3.27-2.42,4.96-3.61,1.69,1.93,6.74,7.5,10.17,9.1,3.54,1.65,8.51,2.77,12.17.83,3.58-1.9,5.18-6.41,2.84-9.92-3.25-4.87-13.82-5.07-18.85-3.64-.16.05-1.2.46-2.42.96,1.68-1.11,3.36-2.23,5.1-3.3,4.94-3.04,10.07-5.97,15.2-8.94,1.07-.62,2.13-1.25,3.19-1.87,1.41,1.63,6.83,7.71,10.43,9.39,3.54,1.65,8.51,2.77,12.17.83,3.58-1.9,5.18-6.41,2.84-9.92-3.25-4.87-13.82-5.07-18.85-3.64-.18.05-1.41.55-2.78,1.11,2.76-1.65,5.49-3.33,8.15-5.08,4.66-3.06,9.08-6.32,13.11-9.82.49.58,6.71,7.84,10.7,9.7,3.54,1.65,8.51,2.77,12.17.83,3.58-1.9,5.18-6.41,2.84-9.92-3.25-4.87-13.82-5.07-18.85-3.64-.36.1-4.8,1.93-6.36,2.63.05-.04.1-.08.15-.12,4.2-3.71,7.75-7.78,10.93-11.8,3.18-4,5.83-8.04,8.17-11.82,2.35-3.78,4.27-7.38,5.95-10.57.89-1.74,1.68-3.35,2.39-4.85,0,.02.05.11.05.11.04.1,5.44-4.54,5.75-4.87,3.55-3.84,8.16-13.35,5.28-18.46Z"/>
      <path class="cls-16" d="m689.38,103.93c-4.52-.77-13-6.61-13-6.61-.09-.06,5.54-4.42,5.93-4.65,4.48-2.71,14.72-5.31,19.15-1.47,3.19,2.77,2.83,7.54-.12,10.32-3.01,2.83-8.1,3.07-11.96,2.41Z"/>
      <path class="cls-16" d="m601.16,48.73c-.11,0,2.19-6.74,2.38-7.15,2.24-4.73,9.35-12.55,15.16-11.78,4.19.55,6.53,4.73,5.6,8.67-.95,4.03-5.07,7.03-8.64,8.61-4.2,1.85-14.48,1.66-14.49,1.66Z"/>
      <path class="cls-16" d="m698.51,54.4c-2.07-3.68-6.82-4.29-10.13-1.96-3.38,2.38-4.63,7.32-4.76,11.23-.13,4,2.91,11.72,3.69,13.63-.78,1.55-1.62,3.2-2.59,5-1.74,3.15-3.73,6.7-6.16,10.41-.64.99-1.38,2.03-2.07,3.05.81-1.96,1.88-4.66,1.96-4.94,1.38-5.05,1.09-15.61-3.82-18.82-3.53-2.31-8.03-.67-9.9,2.93-1.9,3.67-.74,8.63.95,12.16,1.76,3.68,8.18,9.24,9.6,10.44-1.57,2.23-3.23,4.49-5.1,6.75-3.22,3.9-6.86,7.88-11.08,11.45-.14-.12-.12-.1-.26-.21.97-1.72,2.92-5.37,3.04-5.69,1.93-4.86,2.79-15.4-1.73-19.12-3.26-2.68-7.91-1.54-10.16,1.83-2.29,3.44-1.68,8.5-.39,12.19,1.48,4.25,8.37,11.41,8.63,11.68-3.98,3.28-8.31,6.34-12.89,9.21-3.31,2.08-6.76,4.05-10.23,6,.71-1.19,3.27-5.98,3.42-6.35,1.93-4.86,2.79-15.4-1.73-19.12-3.26-2.68-7.91-1.54-10.16,1.83-2.29,3.44-1.68,8.5-.39,12.19,1.45,4.15,8.02,11.04,8.57,11.62-1.58.88-3.15,1.77-4.74,2.64-5.18,2.85-10.39,5.68-15.44,8.64-1.75,1.02-3.44,2.1-5.13,3.16,1.01-1.81,2.79-5.15,2.91-5.45,1.93-4.86,2.79-15.4-1.73-19.12-3.26-2.68-7.91-1.54-10.16,1.83-2.29,3.44-1.68,8.5-.39,12.19,1.29,3.71,6.69,9.62,8.24,11.26-2.81,1.8-5.55,3.64-8.17,5.59-1.11.86-2.3,1.67-3.32,2.56-1.05.87-2.08,1.74-3.11,2.6-2.06,1.85-3.98,3.56-5.85,5.32-.95.89-1.83,1.75-2.74,2.62,1.3-1.68,3.31-4.39,3.47-4.65,2.64-4.52,5.09-14.8,1.19-19.16-2.81-3.15-7.58-2.73-10.32.27-.35.38-.65.79-.92,1.23-4.23,1.97-8.37,6.02-10.21,8.97-.18.28-1.89,3.88-2.73,5.73.33-1.65.65-3.28,1.02-4.99.52-2.46,1.14-5.04,1.73-7.55.35-1.29.71-2.59,1.07-3.9.34-1.33.82-2.56,1.23-3.87.64-1.9,1.4-3.82,2.15-5.75,2.47.68,9.76,2.54,13.5,1.98,3.87-.58,8.63-2.39,10.61-6.02,1.94-3.56.78-8.2-3.11-9.84-5.4-2.27-14.32,3.39-17.73,7.36-.11.13-.74,1.04-1.49,2.13.79-1.85,1.57-3.71,2.44-5.56,2.45-5.26,5.1-10.54,7.74-15.84.55-1.1,1.08-2.22,1.63-3.32,2.08.58,9.96,2.66,13.88,2.08,3.87-.58,8.63-2.39,10.61-6.02,1.94-3.56.78-8.2-3.11-9.84-5.4-2.27-14.32,3.39-17.73,7.36-.12.14-.88,1.23-1.71,2.46,1.39-2.9,2.75-5.81,4-8.74,2.2-5.12,4.08-10.28,5.51-15.42.73.21,9.92,2.84,14.28,2.19,3.87-.58,8.63-2.39,10.61-6.02,1.94-3.56.78-8.2-3.11-9.84-5.4-2.27-14.32,3.39-17.73,7.36-.24.28-2.94,4.25-3.86,5.71.02-.06.04-.12.06-.18,1.45-5.41,2.17-10.76,2.61-15.87.44-5.09.42-9.92.29-14.37-.12-4.45-.5-8.51-.87-12.1-.22-1.94-.45-3.72-.68-5.37.02.01.1.07.1.07.09.06,2.03-6.79,2.1-7.23.84-5.16-.56-15.64-5.78-18.31-3.76-1.93-8.06.18-9.53,3.95-1.51,3.85.18,8.66,2.22,11.99,2.1,3.41,8.89,8.17,10.59,9.33.21,1.72.41,3.56.59,5.6.29,3.59.58,7.65.61,12.08,0,1.18-.03,2.45-.04,3.68-.41-2.08-1-4.93-1.09-5.2-1.63-4.97-7.71-13.62-13.57-13.59-4.22.02-7.07,3.88-6.64,7.9.44,4.11,4.15,7.61,7.5,9.62,3.5,2.1,11.92,3.19,13.77,3.41-.07,2.73-.21,5.53-.53,8.44-.54,5.03-1.37,10.36-2.93,15.66-.18-.02-.15-.02-.33-.03-.14-1.97-.53-6.09-.6-6.42-1.08-5.12-6.16-14.38-11.99-15-4.2-.44-7.45,3.08-7.46,7.13-.01,4.14,3.29,8.02,6.4,10.39,3.58,2.73,13.28,4.9,13.64,4.98-1.51,4.93-3.43,9.88-5.67,14.79-1.62,3.56-3.4,7.11-5.22,10.65-.06-1.38-.57-6.8-.65-7.18-1.08-5.12-6.16-14.38-11.99-15-4.2-.44-7.45,3.08-7.46,7.13-.01,4.14,3.29,8.02,6.4,10.39,3.5,2.66,12.78,4.78,13.56,4.96-.83,1.61-1.65,3.21-2.49,4.82-2.75,5.24-5.53,10.47-8.12,15.73-.9,1.82-1.71,3.65-2.54,5.47-.16-2.07-.52-5.83-.58-6.15-1.08-5.12-6.16-14.38-11.99-15-4.2-.44-7.45,3.08-7.46,7.13-.02,4.14,3.29,8.02,6.4,10.39,3.12,2.38,10.89,4.33,13.08,4.85-1.35,3.05-2.62,6.1-3.73,9.17-.45,1.33-1,2.66-1.35,3.97-.39,1.31-.78,2.6-1.16,3.88-.7,2.68-1.36,5.16-1.94,7.67-.3,1.27-.56,2.47-.84,3.7.15-2.12.35-5.49.33-5.79-.29-5.22-3.91-15.15-9.58-16.64-4.08-1.07-7.83,1.91-8.46,5.91-.64,4.09,2.04,8.42,4.75,11.23,2.99,3.1,11.54,6.52,12.59,6.93-.67,3.02-1.3,5.97-1.83,8.74-1,5.11-1.78,9.72-2.4,13.71h3.81c.52-3.84,1.17-8.24,2.01-13.09.43-2.51.92-5.17,1.46-7.89,1.1.14,9.61,1.18,13.9.11,1.82,3.5,4.21,6.94,4.63,7.55-2.23,2.15-4.37,4.26-6.35,6.28-2.45,2.49-4.7,4.85-6.74,7.04h4.96c1.35-1.49,2.77-3.03,4.29-4.64,1.74-1.86,3.62-3.8,5.57-5.78.87.75,7.85,6.71,11.98,7.92,3.75,1.1,8.84,1.45,12.15-1.02,3.25-2.42,4.15-7.12,1.3-10.24-3.95-4.33-14.43-2.92-19.19-.74-.3.14-3.72,2.19-5.44,3.27,1.18-1.19,2.35-2.38,3.61-3.59,1.79-1.77,3.73-3.57,5.61-5.34,1.01-.88,2.02-1.77,3.05-2.66,1.02-.93,2.1-1.68,3.16-2.55,1.58-1.23,3.27-2.42,4.96-3.61,1.69,1.93,6.74,7.5,10.17,9.1,3.54,1.65,8.51,2.77,12.17.83,3.58-1.9,5.18-6.41,2.84-9.92-3.25-4.87-13.82-5.07-18.85-3.64-.16.05-1.2.46-2.42.96,1.68-1.11,3.36-2.23,5.1-3.3,4.94-3.04,10.07-5.97,15.2-8.94,1.07-.62,2.13-1.25,3.19-1.87,1.41,1.63,6.83,7.71,10.43,9.39,3.54,1.65,8.51,2.77,12.17.83,3.58-1.9,5.18-6.41,2.84-9.92-3.25-4.87-13.82-5.07-18.85-3.64-.18.05-1.41.55-2.78,1.11,2.76-1.65,5.49-3.33,8.15-5.08,4.66-3.06,9.08-6.32,13.11-9.82.49.58,6.71,7.84,10.7,9.7,3.54,1.65,8.51,2.77,12.17.83,3.58-1.9,5.18-6.41,2.84-9.92-3.25-4.87-13.82-5.07-18.85-3.64-.36.1-4.8,1.93-6.36,2.63.05-.04.1-.08.15-.12,4.2-3.71,7.75-7.78,10.93-11.8,3.18-4,5.83-8.04,8.17-11.82,2.35-3.78,4.27-7.38,5.95-10.57.89-1.74,1.68-3.35,2.39-4.85,0,.02.05.11.05.11.04.1,5.44-4.54,5.75-4.87,3.55-3.84,8.16-13.35,5.28-18.46Z"/>
    </g>
  </g>
  <g id="Gears">
    <g>
      <path class="cls-2" d="m103.41,345.02v-14.08l-11.98-.63c-.52-2.28-1.32-4.45-2.37-6.48l8.04-8.93-9.96-9.96-8.57,7.71c-2.05-1.23-4.28-2.19-6.62-2.87l-.62-11.73h-14.08l-.62,11.73c-2.26.64-4.4,1.57-6.38,2.73l-9.05-8.14-9.96,9.96,8.38,9.31c-.96,1.83-1.73,3.77-2.26,5.82l-13,.69v14.08l13.36.7c.56,1.78,1.29,3.48,2.18,5.09l-9.23,10.26,9.96,9.96,10.27-9.24c1.52.84,3.13,1.53,4.8,2.07l.74,14.05h14.08l.72-13.57c1.8-.46,3.53-1.1,5.17-1.89l10.17,9.15,9.96-9.96-8.6-9.55c1.09-1.74,1.98-3.61,2.67-5.58l12.81-.68Zm-39.12,6.8c-8.43,0-15.26-6.83-15.26-15.26s6.83-15.26,15.26-15.26,15.26,6.83,15.26,15.26-6.83,15.26-15.26,15.26Z"/>
      <path class="cls-4" d="m79.83,271.42l-1.35-12.08-10.34.61c-.67-1.91-1.56-3.69-2.66-5.34l6.04-8.44-9.5-7.59-6.61,7.44c-1.88-.86-3.88-1.47-5.96-1.82l-1.66-10-12.08,1.35.59,10.12c-1.88.77-3.62,1.76-5.21,2.95l-8.55-6.12-7.59,9.5,8.08,7.18c-.65,1.66-1.12,3.4-1.38,5.21l-11.09,1.84,1.35,12.08,11.53-.68c.65,1.47,1.44,2.86,2.36,4.16l-6.93,9.69,9.5,7.59,7.92-8.91c1.38.57,2.83,1.01,4.32,1.32l1.99,11.99,12.08-1.35-.69-11.71c1.5-.57,2.92-1.28,4.25-2.12l9.6,6.87,7.59-9.5-8.29-7.37c.77-1.6,1.36-3.29,1.76-5.05l10.93-1.81Zm-32.91,9.59c-7.23.81-13.75-4.4-14.56-11.63-.81-7.23,4.4-13.75,11.63-14.56,7.23-.81,13.75,4.4,14.56,11.63.81,7.23-4.4,13.75-11.63,14.56Z"/>
    </g>
  </g>
  <g id="Graphics">
    <g>
      <rect class="cls-6" x="680.98" y="216.44" width="24.22" height="24.22" rx="5.47" ry="5.47"/>
      <rect class="cls-6" x="680.98" y="186.35" width="24.22" height="24.22" rx="5.47" ry="5.47"/>
      <rect class="cls-6" x="680.98" y="156.26" width="24.22" height="24.22" rx="5.47" ry="5.47"/>
      <rect class="cls-6" x="652.76" y="216.44" width="24.22" height="24.22" rx="5.47" ry="5.47"/>
    </g>
    <path class="cls-6" d="m27.04,83.52l5.17-5.17c1.56-1.56,1.56-4.09,0-5.66-1.56-1.56-4.09-1.56-5.66,0l-5.17,5.17-5.17-5.17c-1.56-1.56-4.09-1.56-5.66,0-1.56,1.56-1.56,4.09,0,5.66l5.17,5.17-5.17,5.17c-1.56,1.56-1.56,4.09,0,5.66.78.78,1.8,1.17,2.83,1.17s2.05-.39,2.83-1.17l5.17-5.17,5.17,5.17c.78.78,1.8,1.17,2.83,1.17s2.05-.39,2.83-1.17c1.56-1.56,1.56-4.09,0-5.66l-5.17-5.17Z"/>
    <path class="cls-6" d="m58.63,60.53l3.98-3.98c1.2-1.2,1.2-3.15,0-4.35-1.2-1.2-3.15-1.2-4.35,0l-3.98,3.98-3.98-3.98c-1.2-1.2-3.15-1.2-4.35,0-1.2,1.2-1.2,3.15,0,4.35l3.98,3.98-3.98,3.98c-1.2,1.2-1.2,3.15,0,4.35.6.6,1.39.9,2.18.9s1.58-.3,2.18-.9l3.98-3.98,3.98,3.98c.6.6,1.39.9,2.18.9s1.58-.3,2.18-.9c1.2-1.2,1.2-3.15,0-4.35l-3.98-3.98Z"/>
    <path class="cls-6" d="m93.34,410.62l3.98-3.98c1.2-1.2,1.2-3.15,0-4.35-1.2-1.2-3.15-1.2-4.35,0l-3.98,3.98-3.98-3.98c-1.2-1.2-3.15-1.2-4.35,0-1.2,1.2-1.2,3.15,0,4.35l3.98,3.98-3.98,3.98c-1.2,1.2-1.2,3.15,0,4.35.6.6,1.39.9,2.18.9s1.58-.3,2.18-.9l3.98-3.98,3.98,3.98c.6.6,1.39.9,2.18.9s1.58-.3,2.18-.9c1.2-1.2,1.2-3.15,0-4.35l-3.98-3.98Z"/>
    <path class="cls-6" d="m649.21,373.97l3.98-3.98c1.2-1.2,1.2-3.15,0-4.35-1.2-1.2-3.15-1.2-4.35,0l-3.98,3.98-3.98-3.98c-1.2-1.2-3.15-1.2-4.35,0-1.2,1.2-1.2,3.15,0,4.35l3.98,3.98-3.98,3.98c-1.2,1.2-1.2,3.15,0,4.35.6.6,1.39.9,2.18.9s1.58-.3,2.18-.9l3.98-3.98,3.98,3.98c.6.6,1.39.9,2.18.9s1.58-.3,2.18-.9c1.2-1.2,1.2-3.15,0-4.35l-3.98-3.98Z"/>
    <path class="cls-6" d="m674.29,373.97l3.98-3.98c1.2-1.2,1.2-3.15,0-4.35-1.2-1.2-3.15-1.2-4.35,0l-3.98,3.98-3.98-3.98c-1.2-1.2-3.15-1.2-4.35,0-1.2,1.2-1.2,3.15,0,4.35l3.98,3.98-3.98,3.98c-1.2,1.2-1.2,3.15,0,4.35.6.6,1.39.9,2.18.9s1.58-.3,2.18-.9l3.98-3.98,3.98,3.98c.6.6,1.39.9,2.18.9s1.58-.3,2.18-.9c1.2-1.2,1.2-3.15,0-4.35l-3.98-3.98Z"/>
    <path class="cls-6" d="m659.61,49.54l3.98-3.98c1.2-1.2,1.2-3.15,0-4.35-1.2-1.2-3.15-1.2-4.35,0l-3.98,3.98-3.98-3.98c-1.2-1.2-3.15-1.2-4.35,0-1.2,1.2-1.2,3.15,0,4.35l3.98,3.98-3.98,3.98c-1.2,1.2-1.2,3.15,0,4.35.6.6,1.39.9,2.18.9s1.58-.3,2.18-.9l3.98-3.98,3.98,3.98c.6.6,1.39.9,2.18.9s1.58-.3,2.18-.9c1.2-1.2,1.2-3.15,0-4.35l-3.98-3.98Z"/>
  </g>
  <g id="Web_Page" data-name="Web Page">
    <g>
      <rect class="cls-4" x="150.92" y="33.49" width="428.53" height="367.08"/>
      <rect class="cls-2" x="150.92" y="33.49" width="218.76" height="367.08"/>
      <g>
        <rect class="cls-2" x="376.75" y="313.26" width="184.22" height="73.38"/>
        <g>
          <circle class="cls-3" cx="395.11" cy="333.66" r="12.9" transform="translate(-65.79 99.11) rotate(-13.21)"/>
          <path class="cls-4" d="m400.08,329.3c0-2.75-2.23-4.97-4.97-4.97s-4.97,2.23-4.97,4.97,2.23,4.97,4.97,4.97,4.97-2.23,4.97-4.97Z"/>
          <path class="cls-4" d="m395.11,335.22c-4.54,0-8.21,3.68-8.21,8.21,0,.06,0,.12,0,.19,2.23,1.84,5.09,2.94,8.2,2.94s5.97-1.1,8.2-2.94c0-.06,0-.12,0-.19,0-4.54-3.68-8.21-8.21-8.21Z"/>
        </g>
        <line class="cls-6" x1="419.2" y1="328.1" x2="491.09" y2="328.1"/>
        <line class="cls-6" x1="447.66" y1="341.02" x2="538.88" y2="341.02"/>
        <line class="cls-6" x1="419.2" y1="341.02" x2="442.3" y2="341.02"/>
        <line class="cls-6" x1="419.2" y1="353.5" x2="538.88" y2="353.5"/>
        <line class="cls-6" x1="530.07" y1="365.98" x2="538.88" y2="365.98"/>
        <line class="cls-6" x1="419.2" y1="365.98" x2="523.89" y2="365.98"/>
      </g>
      <g>
        <g>
          <rect class="cls-15" x="163.63" y="167.42" width="98.76" height="58.29"/>
          <g>
            <polyline class="cls-6" points="262.39 224.21 262.39 225.71 260.89 225.71"/>
            <line class="cls-10" x1="257.8" y1="225.71" x2="166.67" y2="225.71"/>
            <polyline class="cls-6" points="165.13 225.71 163.63 225.71 163.63 224.21"/>
            <line class="cls-7" x1="163.63" y1="221.3" x2="163.63" y2="170.38"/>
            <polyline class="cls-6" points="163.63 168.92 163.63 167.42 165.13 167.42"/>
            <line class="cls-10" x1="168.22" y1="167.42" x2="259.35" y2="167.42"/>
            <polyline class="cls-6" points="260.89 167.42 262.39 167.42 262.39 168.92"/>
            <line class="cls-7" x1="262.39" y1="171.83" x2="262.39" y2="222.76"/>
          </g>
        </g>
        <g>
          <rect class="cls-15" x="270.72" y="167.42" width="98.76" height="58.29"/>
          <g>
            <polyline class="cls-6" points="369.48 224.21 369.48 225.71 367.98 225.71"/>
            <line class="cls-10" x1="364.89" y1="225.71" x2="273.76" y2="225.71"/>
            <polyline class="cls-6" points="272.22 225.71 270.72 225.71 270.72 224.21"/>
            <line class="cls-7" x1="270.72" y1="221.3" x2="270.72" y2="170.38"/>
            <polyline class="cls-6" points="270.72 168.92 270.72 167.42 272.22 167.42"/>
            <line class="cls-10" x1="275.31" y1="167.42" x2="366.44" y2="167.42"/>
            <polyline class="cls-6" points="367.98 167.42 369.48 167.42 369.48 168.92"/>
            <line class="cls-7" x1="369.48" y1="171.83" x2="369.48" y2="222.76"/>
          </g>
        </g>
      </g>
      <g>
        <rect class="cls-3" x="150.92" y="33.49" width="428.53" height="17.21"/>
        <rect class="cls-2" x="369.29" y="33.49" width="210.15" height="17.21"/>
        <g>
          <circle class="cls-4" cx="536.61" cy="42.34" r="3.87"/>
          <circle class="cls-4" cx="550.99" cy="42.34" r="3.87"/>
          <circle class="cls-3" cx="565.37" cy="42.34" r="3.87"/>
        </g>
      </g>
      <g>
        <rect class="cls-15" x="163.8" y="89.21" width="205.85" height="58.29"/>
        <g>
          <polyline class="cls-6" points="369.66 146 369.66 147.5 368.16 147.5"/>
          <line class="cls-9" x1="365.13" y1="147.5" x2="166.82" y2="147.5"/>
          <polyline class="cls-6" points="165.3 147.5 163.8 147.5 163.8 146"/>
          <line class="cls-7" x1="163.8" y1="143.09" x2="163.8" y2="92.17"/>
          <polyline class="cls-6" points="163.8 90.71 163.8 89.21 165.3 89.21"/>
          <line class="cls-9" x1="168.33" y1="89.21" x2="366.64" y2="89.21"/>
          <polyline class="cls-6" points="368.16 89.21 369.66 89.21 369.66 90.71"/>
          <line class="cls-7" x1="369.66" y1="93.62" x2="369.66" y2="144.55"/>
        </g>
      </g>
      <circle class="cls-8" cx="345.87" cy="373.28" r="14.76" transform="translate(-71.47 82.1) rotate(-12.28)"/>
      <circle class="cls-8" cx="298.65" cy="373.28" r="14.76" transform="translate(-171.12 284.71) rotate(-40.66)"/>
      <path class="cls-8" d="m210.25,79.91h-38.83c-4.04,0-7.31-3.27-7.31-7.31h0c0-4.04,3.27-7.31,7.31-7.31h38.83c4.04,0,7.31,3.27,7.31,7.31h0c0,4.04-3.27,7.31-7.31,7.31Z"/>
      <path class="cls-8" d="m280.89,79.91h-38.83c-4.04,0-7.31-3.27-7.31-7.31h0c0-4.04,3.27-7.31,7.31-7.31h38.83c4.04,0,7.31,3.27,7.31,7.31h0c0,4.04-3.27,7.31-7.31,7.31Z"/>
      <path class="cls-8" d="m351.54,79.91h-38.83c-4.04,0-7.31-3.27-7.31-7.31h0c0-4.04,3.27-7.31,7.31-7.31h38.83c4.04,0,7.31,3.27,7.31,7.31h0c0,4.04-3.27,7.31-7.31,7.31Z"/>
      <path class="cls-2" d="m422.19,79.91h-38.83c-4.04,0-7.31-3.27-7.31-7.31h0c0-4.04,3.27-7.31,7.31-7.31h38.83c4.04,0,7.31,3.27,7.31,7.31h0c0,4.04-3.27,7.31-7.31,7.31Z"/>
      <path class="cls-2" d="m492.83,79.91h-38.83c-4.04,0-7.31-3.27-7.31-7.31h0c0-4.04,3.27-7.31,7.31-7.31h38.83c4.04,0,7.31,3.27,7.31,7.31h0c0,4.04-3.27,7.31-7.31,7.31Z"/>
      <path class="cls-2" d="m563.48,79.91h-38.83c-4.04,0-7.31-3.27-7.31-7.31h0c0-4.04,3.27-7.31,7.31-7.31h38.83c4.04,0,7.31,3.27,7.31,7.31h0c0,4.04-3.27,7.31-7.31,7.31Z"/>
      <line class="cls-11" x1="369.48" y1="7.42" x2="369.48" y2="419.8"/>
      <g>
        <g>
          <line class="cls-6" x1="430.76" y1="167.18" x2="439.77" y2="167.18"/>
          <line class="cls-6" x1="381.54" y1="167.18" x2="424.99" y2="167.18"/>
          <line class="cls-6" x1="381.54" y1="178.98" x2="439.77" y2="178.98"/>
          <line class="cls-6" x1="395.32" y1="190.79" x2="439.77" y2="190.79"/>
          <line class="cls-6" x1="381.54" y1="190.79" x2="389.56" y2="190.79"/>
          <line class="cls-6" x1="381.54" y1="202.59" x2="439.77" y2="202.59"/>
          <line class="cls-6" x1="381.54" y1="214.4" x2="439.77" y2="214.4"/>
          <line class="cls-6" x1="381.54" y1="226.2" x2="439.77" y2="226.2"/>
          <line class="cls-6" x1="419.22" y1="238.01" x2="439.77" y2="238.01"/>
          <line class="cls-6" x1="381.54" y1="238.01" x2="411.81" y2="238.01"/>
          <line class="cls-6" x1="381.54" y1="249.81" x2="467.32" y2="249.81"/>
          <line class="cls-6" x1="381.54" y1="261.61" x2="467.32" y2="261.61"/>
          <line class="cls-6" x1="415.93" y1="273.42" x2="467.32" y2="273.42"/>
          <line class="cls-6" x1="381.54" y1="273.42" x2="409.33" y2="273.42"/>
          <line class="cls-6" x1="381.54" y1="285.22" x2="467.32" y2="285.22"/>
          <line class="cls-6" x1="457.55" y1="297.03" x2="467.32" y2="297.03"/>
          <line class="cls-6" x1="381.54" y1="297.03" x2="451.78" y2="297.03"/>
        </g>
        <g>
          <line class="cls-6" x1="478.34" y1="249.81" x2="564.12" y2="249.81"/>
          <line class="cls-6" x1="521.83" y1="261.61" x2="564.12" y2="261.61"/>
          <line class="cls-6" x1="478.34" y1="261.61" x2="516.47" y2="261.61"/>
          <line class="cls-6" x1="478.34" y1="273.42" x2="564.12" y2="273.42"/>
          <line class="cls-6" x1="540.37" y1="285.22" x2="564.12" y2="285.22"/>
          <line class="cls-6" x1="478.34" y1="285.22" x2="532.54" y2="285.22"/>
          <line class="cls-6" x1="478.34" y1="297.03" x2="564.12" y2="297.03"/>
        </g>
      </g>
    </g>
  </g>
  <g id="Video">
    <g>
      <rect class="cls-4" x="626.53" y="279.93" width="82.25" height="56.68"/>
      <rect class="cls-2" x="626.53" y="336.61" width="82.25" height="7.97"/>
      <polygon class="cls-3" points="683.99 309.59 656.34 293.63 656.34 325.55 683.99 309.59"/>
    </g>
  </g>
  <g id="Text">
    <g>
      <path class="cls-13" d="m385.51,148.81v-49.76h-9.39v-5.76h26.25v5.76h-9.12v49.76h-7.74Z"/>
      <path class="cls-13" d="m407.71,148.81v-55.51h21.52v5.76h-13.78v18.37h11.17v5.48h-11.17v20.35h13.91v5.55h-21.66Z"/>
      <path class="cls-13" d="m432.18,148.81l11.58-29.06-11.38-26.45h7.2l8.43,19.6,7.68-19.6h7.2l-11.65,27.07,12.2,28.44h-7.2l-9.05-20.9-7.81,20.9h-7.2Z"/>
      <path class="cls-13" d="m474.73,148.81v-49.76h-9.39v-5.76h26.25v5.76h-9.12v49.76h-7.74Z"/>
    </g>
  </g>
  <g id="Character_2" data-name="Character 2">
    <g>
      <polygon class="cls-3" points="579.44 118.73 508.7 115.28 503.94 213.11 579.44 216.78 579.44 118.73"/>
      <g>
        <g>
          <rect class="cls-4" x="501.08" y="108.26" width="138.47" height="97.94" transform="translate(8.32 -27.54) rotate(2.79)"/>
          <polygon class="cls-2" points="639.39 162.04 614.8 137.81 574.37 176.78 554.17 161.61 498.78 202.78 637.08 209.51 639.39 162.04"/>
          <circle class="cls-2" cx="534.39" cy="131.8" r="13.71" transform="translate(-15.97 138.56) rotate(-14.56)"/>
        </g>
        <g>
          <g>
            <path class="cls-4" d="m575.43,157.94s-4.76,2.29-5.64,4.93c-.88,2.64-1.06,6.52-2.29,7.75-1.23,1.23-7.93,4.4-7.93,5.81s2.29,4.05,2.29,4.05c0,0-.53,11.1,1.23,12.86,1.76,1.76,8.98,2.47,8.98,2.47l-.18,7.75s4.23-.18,11.27,0c7.05.18,9.69.53,9.69.53l.18-14.8s8.63-5.11,8.98-13.21c.35-8.1-5.99-15.5-12.86-18.32-6.87-2.82-13.74.18-13.74.18Z"/>
            <path class="cls-3" d="m584.06,151.77s1.41-4.23-1.06-4.4c-2.47-.18-12.68,7.4-10.92,10.57s8.45,1.59,7.93,3.35-4.93,4.05-4.23,6.16c.7,2.11,1.94,5.46,1.76,5.99-.18.53-3.52,2.11-3.17,3.35.35,1.23-.18,1.94,1.06,2.11,1.23.18,4.4-4.05,6.69-2.11,2.29,1.94,3.52,7.57,2.29,10.04-1.23,2.47-1.94,3.35,0,5.28,1.94,1.94,8.98,3.17,10.04,1.59,1.06-1.59,10.04-6.69,11.63-12.51,1.59-5.81,1.23-14.97-3.35-19.2-4.58-4.23-10.74-7.57-10.74-7.57,0,0,2.29-2.64.35-3.35-1.94-.7-6.87-.35-8.28.7Z"/>
            <path class="cls-6" d="m577.77,178.26s3.82-3.03,5.01.66c1.19,3.69-3.03,8.57-5.4,8.96s-4.35-1.98-4.09-2.37"/>
            <path class="cls-6" d="m570.39,167.32s1.85-1.19,3.16,1.19"/>
            <path class="cls-13" d="m571.43,172.12c-.18,1.19-.67,2.1-1.11,2.03-.43-.07-.64-1.08-.46-2.27.18-1.19.67-2.1,1.11-2.03.43.07.64,1.08.46,2.27Z"/>
            <path class="cls-6" d="m562.74,183.14s3.69,1.32,6.06-1.58"/>
          </g>
          <path class="cls-1" d="m595.63,199.77s-15.89-1.77-18.83-1.37c-2.94.39-9.41,3.14-11.57,4.51-2.16,1.37-3.33,2.75-3.33,2.75,0,0,17.06-1.37,23.14-.59,6.08.78,15.69,3.33,15.69,3.33,0,0-2.94-7.84-5.1-8.63Z"/>
          <path class="cls-4" d="m635.25,224.29s-4.9-9.22-5.1-11.57c-.2-2.35,1.37-7.84,1.77-9.02.39-1.18,0-5.49,1.57-4.9,1.57.59,1.77,2.16,1.77,3.53s-.78,3.14-.78,4.12,2.94-2.55,2.94-2.55c0,0,.39-4.71.78-5.49.39-.78,2.55-1.37,3.33-.2s.98,5.49.98,5.49c0,0,1.57,6.08,1.77,8.43.2,2.35-3.14,8.83-3.73,9.22-.59.39-.78,4.51-.78,4.51l-4.51-1.57Z"/>
          <g>
            <path class="cls-4" d="m514.63,185.46s-3.92-12.75-5.69-15.3c-1.77-2.55-4.12-3.92-5.49-5.49-1.37-1.57-2.55-5.88-4.31-3.92-1.77,1.96-.39,4.9.2,5.49s-4.9,3.73-4.9,4.71,1.77,2.94,1.96,3.53c.2.59,2.16,6.67,3.33,7.06,1.18.39,5.88,2.75,5.88,2.75l4.12,4.9,4.9-3.73Z"/>
            <line class="cls-6" x1="499.33" y1="166.24" x2="503.65" y2="170.94"/>
          </g>
          <path class="cls-3" d="m550.41,283.5s-1.16,26.2-1.16,36.91,4.35,85.48,4.35,89.12,2.72,27.59,2.72,27.59c0,0-3.43.21-3.43,1.29s.43,6.21.43,6.21c0,0-3.64,3.43-8.14,5.36-4.5,1.93-5.78,3.21-4.5,4.71s13.92,2.78,19.07,2.14c5.14-.64,8.57-.64,9-2.14.43-1.5.64-7.28.64-8.14s1.29-4.28,1.5-7.28c.21-3-.21-3.86-.21-6.64s9.57-103.08,9.57-103.08l21.16,51.51,19.35,57.36s-1.29.86-.86,1.93c.43,1.07,4.07,9.85,4.07,9.85,0,0-.21,4.28.43,4.71.64.43,4.71,1.5,10.93,1.71,6.21.21,14.57-.64,14.35-1.93-.21-1.29-3.64-3-5.14-4.28-1.5-1.29-7.71-9.21-7.71-9.21,0,0-1.29-4.5-1.71-5.14-.43-.64-2.78-4.07-2.78-4.07,0,0-8.11-53.02-9.18-56.45-1.07-3.43-15.2-67.11-15.2-67.11l-4.62-22.13-52.91-2.78Z"/>
          <g>
            <path class="cls-1" d="m561.9,205.66s-12.94,1.57-17.45,3.14c-4.51,1.57-18.83,2.94-18.83,2.94,0,0-8.83-27.06-9.41-27.26-.59-.2-6.67,0-7.26,2.35l-.59,2.35s5.69,44.52,6.67,46.68c.98,2.16,2.94,1.77,4.31,1.57,1.37-.2,27.46-3.53,27.46-3.53l1.82,47.91s-.05,1.71.73,3.08c.78,1.37,9.81,7.26,27.85,6.86,18.04-.39,26.87-1.96,27.46-3.53.59-1.57-.78-7.45-.98-8.63-.2-1.18,5.1-26.08,5.1-26.08,0,0,27.46,15.3,31.97,15.49s4.71-5.69,4.51-7.45-5.1-39.62-5.1-39.62c0,0-1.77-1.57-4.12-1.57h-2.35l-2.94,22.95s-11.96-16.28-13.73-19.22c-1.77-2.94-4.9-7.45-8.04-10.2-3.14-2.75-8.24-5.49-8.24-5.49,0,0-10.79-8.04-38.83-2.75Z"/>
            <line class="cls-6" x1="611.4" y1="231.95" x2="611.91" y2="227.82"/>
            <line class="cls-6" x1="608.77" y1="253.51" x2="610.88" y2="236.27"/>
            <path class="cls-6" d="m580.19,239.04c1.33,4.02,2.52,7.98,3.28,11.33"/>
            <path class="cls-6" d="m571.31,215.46s4.43,10.55,8.13,21.34"/>
            <path class="cls-6" d="m583.86,241.55s3.14,8.24,3.73,16.08"/>
            <line class="cls-6" x1="546.24" y1="229.21" x2="544.83" y2="217.23"/>
            <line class="cls-6" x1="546.8" y1="233.9" x2="546.45" y2="230.93"/>
            <path class="cls-6" d="m525.61,211.74s-4.9,1.18-6.86,4.71"/>
            <line class="cls-6" x1="638.56" y1="250.98" x2="640.54" y2="252.92"/>
            <line class="cls-6" x1="630.74" y1="243.31" x2="636.58" y2="249.04"/>
          </g>
        </g>
      </g>
    </g>
  </g>
  <g id="Character_1" data-name="Character 1">
    <g>
      <rect class="cls-3" x="151.1" y="229.95" width="153.04" height="102.03"/>
      <g>
        <rect class="cls-4" x="119.06" y="220.02" width="178.52" height="102.32"/>
        <line class="cls-6" x1="119.06" y1="322.35" x2="297.57" y2="220.02"/>
        <line class="cls-6" x1="119.06" y1="220.02" x2="297.57" y2="322.35"/>
      </g>
      <g>
        <g>
          <g>
            <path class="cls-4" d="m193.09,245.66s1.36,4.36,1.23,8.72c-.14,4.36.55,6.81,1.36,8.04.82,1.23,3.27,2.45,2.04,3.41s-3.81,2.72-3.81,2.72c0,0-1.5,7.36-2.72,10.76-1.23,3.41-8.45-.95-8.45-.95,0,0-2.86,5.72-3.13,7.22-.27,1.5-.82,1.63-.82,1.63l-16.21-5.04,2.04-7.08s-3.68-12.26-3.27-21.39c.41-9.13,13.08-14.85,19.75-14.58,6.68.27,11.99,6.54,11.99,6.54Z"/>
            <path class="cls-13" d="m193.36,259.56c0,.9-.24,1.63-.54,1.63s-.54-.73-.54-1.63.24-1.63.54-1.63.54.73.54,1.63Z"/>
            <path class="cls-6" d="m190.77,256.84s1.63-1.91,3.13-.82"/>
            <path class="cls-6" d="m189.41,269.91s1.36,1.77,3.13,1.09"/>
          </g>
          <path class="cls-3" d="m199.49,243.76s-1.5,5.04-5.31,8.31c-3.81,3.27-8.45,4.63-8.45,4.63,0,0,.95.95-.14,1.36-1.09.41-2.86-.95-3.95-.14s-3.81,9.67-2.72,14.17c1.09,4.5,6.95,3.54,6.95,3.54,0,0-6.54,5.86-11.58,6.27-5.04.41-15.67-3.27-18.12-5.86-2.45-2.59-6.13-11.72-4.09-17.17,2.04-5.45,5.72-15.67,9.54-19.35,3.81-3.68,12.26-6.27,16.35-6.54,4.09-.27,8.99.68,11.99,3.27,3,2.59,4.36,5.31,4.9,5.31s4.9.27,4.63,2.18Z"/>
          <path class="cls-6" d="m185.46,259.97s-2.18-2.18-3.81-2.04c-1.63.14-2.32,7.77-1.09,9.4s4.09.27,4.09.27"/>
        </g>
        <path class="cls-1" d="m161.21,280.54s20.57,6.13,20.98,6.95,2.04,6.27,2.04,6.27l-26.29-9.54,3.27-3.68Z"/>
        <g>
          <path class="cls-4" d="m247.03,323.35s4.83-4.02,6.43-4.67c1.61-.64,6.27-.16,7.72.16,1.45.32,4.02-1.29,5.63-.64s.97,1.45,0,2.41c-.97.97-3.22,2.09-3.22,2.09l5.33-.04s-.02.2-.02,1.49-.97,2.09-1.45,2.57-1.45,2.25-4.18,4.02c-2.73,1.77-7.88,0-9.81-.8-1.93-.8-4.5-1.29-4.5-1.29l-1.93.64-2.09-5.95h2.09Z"/>
          <line class="cls-6" x1="263.6" y1="322.7" x2="260.62" y2="323.83"/>
        </g>
        <g>
          <path class="cls-4" d="m128.15,294.39s.16-5.63.32-6.6c.16-.97,1.29-5.79.97-7.08-.32-1.29-4.02-5.63-4.34-7.08-.32-1.45-.48-4.83-1.29-5.63-.8-.8-2.57-.16-2.9,1.29-.32,1.45-.32,2.25-.32,2.25l.48,4.5s-1.29.48-1.77-.97c-.48-1.45-.8-2.73-.8-2.73,0,0-3.7,1.29-3.38,3.06.32,1.77.8,3.06.8,3.06,0,0-2.57,6.43-1.29,7.88,1.29,1.45,5.31,5.47,5.79,6.11s2.09,5.47,2.09,5.47l5.63-3.54Z"/>
          <path class="cls-6" d="m121.07,276.05s1.77.16,2.9,1.93"/>
        </g>
        <g>
          <path class="cls-3" d="m135.55,347.64s-5.95,12.39-8.04,19.47-.64,15.6,1.61,23.49c2.25,7.88,9.97,40.22,9.97,40.22,0,0-27.19,7.24-28.47,7.56-1.29.32-3.22-2.25-5.15-1.77-1.93.48-7.4,3.06-8.2,3.54s-8.2-5.47-9.81-5.31-5.63,2.25-8.04,4.5c-2.41,2.25-13.03,4.83-15.12,8.04-2.09,3.22-3.86,4.02-2.73,4.83,1.13.8,32.66-1.61,35.39-1.61s41.5,2.09,46.81,1.77c5.31-.32,13.51-1.45,14.16-2.57.64-1.13.8-27.99,1.77-36.2.97-8.2.97-18.5.97-18.5,0,0,15.77-1.13,26.7-4.18,10.94-3.06,15.76-4.34,15.76-4.34l-5.31,45.53s-3.06,4.02-3.06,4.67v8.37s-2.25,6.76-1.45,7.24,11.42,4.18,14.64,4.5c3.22.32,15.77,0,17.21-.64,1.45-.64,2.09-2.57,1.61-3.38-.48-.8-5.15-1.93-6.27-3.06-1.13-1.13-8.37-7.56-8.37-7.56,0,0,.48-4.5.16-5.47-.32-.97-1.13-5.47-1.13-5.47l15.12-44.88s4.99-18.98,4.67-20.43c-.32-1.45-2.09-2.73-3.06-3.38-.97-.64-26.22-4.02-33.3-3.38-7.08.64-13.67.48-13.67.48l-3.7-8.69s-12.55,2.25-23.49.16c-10.94-2.09-17.21-6.27-17.21-6.27l-.97,2.73Z"/>
          <line class="cls-5" x1="181.56" y1="361.63" x2="185.74" y2="371.77"/>
          <path class="cls-5" d="m204.88,385.28s12.39-3.7,16.89-7.24"/>
          <path class="cls-5" d="m130.08,383.99s10.62,9.81,28.8,10.3"/>
          <path class="cls-5" d="m140.22,433.1s2.31,4.29,6.77,7.27"/>
        </g>
        <path class="cls-1" d="m157.94,284.22s-17.89,9.2-18.53,10.17-5.31,13.19-5.31,13.19l-5.63-16.41s-4.99.97-6.27,2.73c-1.29,1.77-2.09,3.22-2.09,3.22,0,0,4.02,25.1,4.02,25.58s-.97,3.7.16,5.79,4.67,8.37,8.37,8.69c3.7.32,4.83-1.13,4.83-1.13,0,0-1.93,5.47-2.9,8.37-.97,2.9-.32,4.18,1.29,4.67s14.32,6.27,25.1,6.76c10.78.48,16.57-1.77,17.7-3.22,1.13-1.45,1.61-3.54,1.93-4.99.32-1.45,7.08-14.8,7.08-14.8,0,0,16.09,14,19.3,15.12,3.22,1.13,40.86-17.21,40.86-17.21,0,0,.97-3.38-.32-4.99-1.29-1.61-2.57-3.06-3.54-2.9-.97.16-31.53,6.76-31.53,6.76,0,0-18.18-28.15-19.3-29.6-1.13-1.45-8.9-6.26-8.9-6.26l-26.29-9.54Z"/>
        <line class="cls-6" x1="187.67" y1="332.84" x2="181.72" y2="326.4"/>
        <path class="cls-6" d="m174.13,335c1.04.84,2.18,1.54,3.4,2.02"/>
        <path class="cls-6" d="m163.86,315.78s2.26,10.18,7.73,16.69"/>
        <path class="cls-6" d="m158.55,332.35s8.37,7.08,15.28,8.69"/>
        <path class="cls-6" d="m138.93,308.6c-.07-1.64-.09-2.94,0-3.6"/>
        <path class="cls-6" d="m137.48,336.05s1.93-8.04,2.09-12.71c.09-2.48-.19-6.82-.42-10.71"/>
        <line class="cls-6" x1="126.55" y1="322.41" x2="124.93" y2="325.6"/>
        <line class="cls-6" x1="134.1" y1="307.58" x2="127.71" y2="320.14"/>
      </g>
    </g>
  </g>
</svg>