<?xml version="1.0" encoding="UTF-8"?>
<svg xmlns="http://www.w3.org/2000/svg" viewBox="0 0 482.65 434.99">
  <defs>
    <style>
      .cls-1 {
        fill: gray;
        stroke: #545454;
      }

      .cls-1, .cls-2, .cls-3, .cls-4, .cls-5 {
        stroke-linecap: round;
        stroke-linejoin: round;
      }

      .cls-2, .cls-3, .cls-4, .cls-5, .cls-6, .cls-7, .cls-8, .cls-9, .cls-10, .cls-11 {
        stroke: #263238;
      }

      .cls-2, .cls-9, .cls-12 {
        fill: #41c7a8;
      }

      .cls-3, .cls-8, .cls-13 {
        fill: #263238;
      }

      .cls-4, .cls-14, .cls-7 {
        fill: #fff;
      }

      .cls-5, .cls-6, .cls-10, .cls-11 {
        fill: none;
      }

      .cls-6 {
        stroke-width: 3px;
      }

      .cls-6, .cls-7, .cls-8, .cls-9, .cls-10, .cls-11 {
        stroke-miterlimit: 10;
      }

      .cls-14 {
        opacity: .7;
      }

      .cls-14, .cls-13, .cls-12 {
        stroke-width: 0px;
      }

      .cls-10 {
        stroke-width: 2px;
      }
    </style>
  </defs>
  <g id="Background_Simple" data-name="Background Simple">
    <g>
      <path class="cls-12" d="m321.69,18.96s-79.34-31.17-155.22,12.82C90.59,75.77,54.14,166.28,22.69,238.72c-31.44,72.44-10.21,147.61,49.58,183.28,59.78,35.67,98.47-13.38,180.99-13.52,82.52-.14,105.06,12.73,172.29-33.76,67.23-46.49,76.55-160.45,20.22-246.53-56.33-86.08-124.07-109.22-124.07-109.22Z"/>
      <path class="cls-14" d="m321.69,18.96s-79.34-31.17-155.22,12.82C90.59,75.77,54.14,166.28,22.69,238.72c-31.44,72.44-10.21,147.61,49.58,183.28,59.78,35.67,98.47-13.38,180.99-13.52,82.52-.14,105.06,12.73,172.29-33.76,67.23-46.49,76.55-160.45,20.22-246.53-56.33-86.08-124.07-109.22-124.07-109.22Z"/>
    </g>
  </g>
  <g id="Floor">
    <line class="cls-11" y1="427.84" x2="477.04" y2="427.84"/>
  </g>
  <g id="Plants">
    <g>
      <path class="cls-13" d="m420.5,379.68c1.94.49,6.47-.31,6.47-.31.05,0-1.27-2.7-1.37-2.86-1.2-1.85-4.69-4.66-7.22-3.93-1.82.53-2.67,2.46-2.08,4.07.6,1.64,2.55,2.62,4.2,3.04Z"/>
      <path class="cls-13" d="m448.71,426.88c.03.1.05.19.08.28l1.77.39c-.12-.38-.24-.77-.37-1.17-.36-1.14-.77-2.34-1.2-3.57.29-.16,1.94-1.1,3.37-2.15,1.47,1.17,5.02,2.26,5.48,2.39-.35,1.16-.7,2.29-1.05,3.35-.24.73-.47,1.43-.7,2.1l1.72-.27c.15-.48.3-.97.46-1.48.36-1.18.72-2.45,1.08-3.75.5.02,4.56.18,6.37-.51,1.64-.63,3.59-1.86,4.18-3.57.58-1.68-.28-3.51-2.11-3.8-2.53-.41-6,2.85-7.19,4.85-.07.12-.69,1.47-1.06,2.33.14-.53.29-1.05.43-1.6.29-1.09.54-2.18.81-3.35.11-.57.23-1.14.34-1.72.13-.57.19-1.19.28-1.79.2-1.4.32-2.82.42-4.25.97.18,4.42.78,6.14.39,1.71-.38,3.8-1.33,4.65-2.95.83-1.59.27-3.54-1.47-4.1-2.42-.78-6.32,1.96-7.8,3.78-.09.11-1.01,1.53-1.49,2.31.05-.86.11-1.72.13-2.59.07-2.51.05-5.05.05-7.59,0-.78,0-1.55.01-2.33.34.07,4.42.87,6.35.43,1.71-.38,3.81-1.33,4.65-2.95.83-1.59.27-3.54-1.47-4.1-2.42-.78-6.32,1.96-7.8,3.78-.11.14-1.42,2.17-1.73,2.7.01-1.71.04-3.41.14-5.09.13-2.32.39-4.6.82-6.79.16.03,4.41.88,6.38.44,1.71-.38,3.81-1.33,4.65-2.95.83-1.59.27-3.54-1.47-4.1-2.42-.78-6.32,1.96-7.8,3.78-.12.14-1.53,2.33-1.76,2.74.03-.13.04-.27.06-.4.48-2.34,1.25-4.57,2.07-6.63.47-1.2,1-2.32,1.53-3.4.77.24,4.31,1.29,6.11,1.08,1.73-.2,3.91-.92,4.93-2.46,1-1.5.67-3.51-.98-4.26-2.3-1.04-6.46,1.29-8.13,2.95-.09.09-.91,1.1-1.5,1.85.25-.49.49-.99.74-1.45.92-1.73,1.87-3.27,2.72-4.63.49-.77.95-1.45,1.39-2.09.91-.16,4.56-.83,6.08-1.8,1.49-.95,3.14-2.54,3.34-4.31.2-1.74-1.06-3.32-2.93-3.22-2.6.13-5.31,3.99-6.04,6.17-.06.19-.71,3.21-.66,3.21,0,0,.04,0,.05,0-.43.61-.89,1.26-1.37,1.99-.88,1.34-1.87,2.87-2.83,4.59-.97,1.72-1.97,3.61-2.84,5.69-.88,2.08-1.7,4.3-2.24,6.68,0,.03,0,.06-.02.08-.06-.73-.3-2.76-.34-2.91-.52-2.15-2.86-5.94-5.45-6-1.87-.04-3.28,1.58-3.25,3.31.03,1.77,1.53,3.32,2.93,4.22,1.58,1.02,5.73,1.6,6.06,1.65-.5,2.27-.82,4.62-1.01,7.02-.11,1.37-.18,2.75-.23,4.13-.07-.63-.15-1.19-.16-1.27-.52-2.15-2.86-5.94-5.45-6-1.87-.04-3.28,1.58-3.25,3.31.03,1.77,1.53,3.32,2.93,4.22,1.42.92,4.95,1.48,5.88,1.62-.01.53-.03,1.06-.04,1.59-.05,2.54-.1,5.08-.22,7.57-.04.88-.12,1.74-.19,2.61-.07-.56-.13-1.03-.14-1.1-.52-2.15-2.86-5.94-5.45-6-1.87-.04-3.28,1.58-3.25,3.31.03,1.77,1.53,3.32,2.93,4.22,1.36.88,4.6,1.43,5.71,1.59-.1.89-.2,1.77-.34,2.63-.11.58-.17,1.15-.31,1.73-.13.58-.25,1.15-.38,1.72-.28,1.09-.57,2.21-.87,3.26-.21.74-.42,1.43-.62,2.14.05-.87.12-2.59.11-2.73-.12-1.48-.91-3.79-2.16-5.31-.02-.22-.05-.43-.11-.64-.46-1.65-2.25-2.65-4-1.91-2.43,1.03-3.59,5.49-3.48,7.72,0,.13.24,1.54.41,2.43-.18-.5-.35-.99-.54-1.51-.37-1.02-.77-2.03-1.2-3.11-.23-.52-.46-1.04-.69-1.56-.22-.53-.52-1.05-.78-1.59-.63-1.22-1.33-2.43-2.06-3.62.94-.37,4.28-1.74,5.55-2.97,1.26-1.22,2.55-3.1,2.35-4.85-.19-1.72-1.78-2.98-3.62-2.5-2.54.67-4.37,4.95-4.61,7.2-.01.14,0,1.76.02,2.65-.45-.72-.89-1.43-1.37-2.14-1.38-2.05-2.84-4.07-4.29-6.1-.44-.62-.88-1.24-1.32-1.87.34-.13,4.34-1.68,5.76-3.05,1.26-1.22,2.55-3.1,2.35-4.85-.19-1.72-1.78-2.98-3.61-2.5-2.54.67-4.37,4.95-4.61,7.2-.02.17,0,2.5.04,3.09-.96-1.37-1.91-2.75-2.78-4.15-1.21-1.93-2.28-3.89-3.17-5.87.16-.06,4.34-1.66,5.79-3.07,1.26-1.22,2.55-3.1,2.35-4.85-.19-1.72-1.78-2.98-3.62-2.5-2.54.67-4.37,4.95-4.61,7.2-.02.18,0,2.68.04,3.13-.05-.12-.12-.23-.17-.35-.92-2.13-1.53-4.32-1.99-6.41-.27-1.21-.46-2.39-.62-3.54.8-.22,4.47-1.28,5.92-2.41,1.39-1.09,2.87-2.83,2.87-4.6,0-1.74-1.42-3.17-3.28-2.88-2.59.4-4.88,4.49-5.37,6.71-.03.12-.16,1.37-.25,2.28-.06-.52-.14-1.06-.19-1.56-.19-1.88-.24-3.62-.28-5.16-.01-.88,0-1.67.01-2.42.7-.61,3.48-3.1,4.25-4.7.75-1.55,1.28-3.71.44-5.24-.82-1.5-2.81-2.09-4.38-1.01-2.18,1.5-2.33,6.04-1.72,8.17.05.18,1.22,2.95,1.26,2.92,0,0,.03-.03.04-.04-.03.72-.05,1.48-.06,2.32,0,1.55.01,3.3.16,5.19.14,1.89.35,3.94.78,6.07.42,2.13.98,4.35,1.87,6.54.01.02.02.05.03.07-.47-.55-1.84-2.05-1.96-2.15-1.68-1.44-5.88-3.22-8.16-1.88-1.64.97-1.94,3.02-.93,4.39,1.04,1.4,3.22,1.83,4.95,1.81,1.95-.03,5.89-1.79,6.2-1.93.86,2.08,1.93,4.14,3.13,6.15.68,1.15,1.41,2.29,2.16,3.42-.42-.46-.81-.87-.87-.92-1.68-1.44-5.88-3.22-8.16-1.88-1.64.97-1.94,3.02-.93,4.39,1.04,1.4,3.22,1.83,4.95,1.81,1.76-.03,5.14-1.46,6.03-1.85.29.43.58.86.87,1.29,1.4,2.06,2.81,4.11,4.13,6.17.46.72.89,1.46,1.33,2.19-.38-.41-.7-.75-.75-.8-1.68-1.44-5.88-3.22-8.16-1.88-1.64.97-1.94,3.02-.93,4.39,1.04,1.4,3.22,1.83,4.95,1.81,1.68-.03,4.81-1.32,5.87-1.78.42.76.84,1.53,1.21,2.29.24.52.51,1.01.72,1.55.22.53.44,1.06.65,1.58.37,1.02.77,2.07,1.11,3.08.24.7.46,1.37.68,2.04-.45-.73-1.37-2.13-1.46-2.24-1.42-1.69-5.25-4.08-7.69-3.07-1.76.72-2.37,2.73-1.59,4.24.8,1.55,2.87,2.3,4.57,2.53,1.87.25,5.84-.86,6.34-1,.36,1.12.7,2.21,1,3.24Z"/>
      <path class="cls-13" d="m466.52,373.5s.53-3.03.54-3.22c.09-2.25-1.09-6.56-3.53-7.28-1.76-.52-3.54.71-3.98,2.42-.45,1.75.54,3.65,1.62,4.89,1.27,1.46,5.35,3.19,5.35,3.19Z"/>
    </g>
    <g>
      <path class="cls-13" d="m5.19,400.62c1.11.28,3.69-.18,3.69-.18.03,0-.73-1.54-.78-1.64-.69-1.06-2.68-2.66-4.12-2.25-1.04.3-1.52,1.41-1.19,2.32.34.94,1.46,1.5,2.4,1.74Z"/>
      <path class="cls-13" d="m21.3,427.58c.02.06.03.11.05.16l1.01.22c-.07-.22-.14-.44-.21-.67-.21-.65-.44-1.34-.69-2.04.17-.09,1.11-.63,1.93-1.23.84.67,2.87,1.29,3.13,1.37-.2.66-.4,1.31-.6,1.91-.14.42-.27.82-.4,1.2l.98-.15c.09-.28.17-.56.26-.85.21-.67.41-1.4.62-2.14.28.01,2.6.1,3.64-.29.94-.36,2.05-1.06,2.39-2.04.33-.96-.16-2-1.2-2.17-1.45-.23-3.43,1.63-4.11,2.77-.04.07-.39.84-.61,1.33.08-.3.16-.6.25-.91.16-.62.31-1.24.47-1.91.06-.33.13-.65.2-.98.07-.33.11-.68.16-1.02.11-.8.18-1.61.24-2.43.55.1,2.52.44,3.5.22.98-.22,2.17-.76,2.66-1.69.47-.91.16-2.02-.84-2.34-1.38-.45-3.61,1.12-4.45,2.16-.05.06-.57.87-.85,1.32.03-.49.06-.98.07-1.48.04-1.44.03-2.89.03-4.34,0-.44,0-.89,0-1.33.2.04,2.53.49,3.63.25.98-.22,2.17-.76,2.66-1.69.47-.91.16-2.02-.84-2.34-1.38-.45-3.61,1.12-4.45,2.16-.06.08-.81,1.24-.99,1.54,0-.98.02-1.95.08-2.91.08-1.32.23-2.63.47-3.88.09.02,2.52.5,3.65.25.98-.22,2.17-.76,2.66-1.69.47-.91.16-2.02-.84-2.34-1.38-.45-3.61,1.12-4.45,2.16-.07.08-.87,1.33-1,1.57.01-.07.02-.15.04-.23.27-1.34.71-2.61,1.18-3.79.27-.68.57-1.33.87-1.94.44.14,2.46.74,3.49.62.99-.12,2.23-.53,2.81-1.4.57-.86.38-2.01-.56-2.43-1.31-.59-3.69.73-4.64,1.68-.05.05-.52.63-.86,1.06.14-.28.28-.57.42-.83.53-.99,1.07-1.87,1.56-2.64.28-.44.54-.83.79-1.2.52-.09,2.6-.48,3.47-1.03.85-.54,1.79-1.45,1.91-2.46.11-.99-.61-1.9-1.67-1.84-1.48.08-3.03,2.28-3.45,3.52-.04.11-.41,1.84-.38,1.83,0,0,.03,0,.03,0-.25.35-.51.72-.78,1.13-.5.77-1.07,1.64-1.62,2.62-.55.98-1.12,2.06-1.62,3.25-.5,1.19-.97,2.46-1.28,3.81,0,.02,0,.03,0,.05-.04-.42-.17-1.58-.2-1.66-.3-1.23-1.63-3.39-3.11-3.43-1.07-.02-1.87.9-1.85,1.89.02,1.01.87,1.89,1.67,2.41.9.58,3.27.91,3.46.94-.28,1.3-.47,2.64-.58,4.01-.06.78-.1,1.57-.13,2.36-.04-.36-.08-.68-.09-.72-.3-1.23-1.63-3.39-3.11-3.43-1.07-.02-1.87.9-1.85,1.89.02,1.01.87,1.89,1.67,2.41.81.52,2.82.85,3.36.92,0,.3-.02.61-.02.91-.03,1.45-.05,2.9-.12,4.32-.02.5-.07,1-.11,1.49-.04-.32-.07-.59-.08-.63-.3-1.23-1.63-3.39-3.11-3.43-1.07-.02-1.87.9-1.85,1.89.02,1.01.87,1.89,1.67,2.41.77.5,2.63.81,3.26.91-.06.51-.11,1.01-.19,1.5-.06.33-.1.66-.18.99-.07.33-.15.66-.22.98-.16.62-.32,1.26-.5,1.86-.12.42-.24.82-.36,1.22.03-.5.07-1.48.06-1.56-.07-.84-.52-2.17-1.24-3.03,0-.12-.03-.25-.06-.37-.26-.94-1.28-1.52-2.28-1.09-1.39.59-2.05,3.14-1.98,4.41,0,.08.14.88.23,1.39-.1-.29-.2-.57-.31-.86-.21-.58-.44-1.16-.69-1.78-.13-.29-.26-.59-.39-.89-.12-.3-.3-.6-.44-.91-.36-.7-.76-1.39-1.18-2.07.54-.21,2.45-1,3.17-1.7.72-.7,1.45-1.77,1.34-2.77-.11-.98-1.02-1.7-2.06-1.43-1.45.38-2.5,2.83-2.64,4.11,0,.08,0,1,.01,1.51-.26-.41-.51-.82-.78-1.22-.79-1.17-1.62-2.32-2.45-3.48-.25-.35-.5-.71-.75-1.07.19-.07,2.48-.96,3.29-1.74.72-.7,1.45-1.77,1.34-2.77-.11-.98-1.02-1.7-2.06-1.43-1.45.38-2.5,2.83-2.64,4.11-.01.1,0,1.43.02,1.76-.55-.78-1.09-1.57-1.59-2.37-.69-1.1-1.3-2.22-1.81-3.35.09-.03,2.48-.95,3.31-1.75.72-.7,1.45-1.77,1.34-2.77-.11-.98-1.02-1.7-2.06-1.43-1.45.38-2.5,2.83-2.63,4.11-.01.1,0,1.53.02,1.79-.03-.07-.07-.13-.1-.2-.52-1.22-.87-2.47-1.14-3.66-.15-.69-.26-1.36-.35-2.02.46-.13,2.56-.73,3.38-1.38.79-.62,1.64-1.62,1.64-2.63,0-.99-.81-1.81-1.88-1.65-1.48.23-2.79,2.56-3.07,3.83-.02.07-.09.78-.14,1.3-.04-.3-.08-.6-.11-.89-.11-1.07-.14-2.07-.16-2.95,0-.5,0-.96,0-1.38.4-.35,1.99-1.77,2.43-2.68.43-.89.73-2.12.25-2.99-.47-.85-1.61-1.19-2.5-.58-1.25.86-1.33,3.45-.98,4.66.03.1.7,1.69.72,1.67,0,0,.02-.02.02-.02-.02.41-.03.85-.03,1.33,0,.88,0,1.88.09,2.96.08,1.08.2,2.25.44,3.47.24,1.22.56,2.48,1.07,3.74,0,.01.01.03.02.04-.27-.31-1.05-1.17-1.12-1.23-.96-.82-3.36-1.84-4.66-1.07-.94.55-1.11,1.72-.53,2.51.59.8,1.84,1.05,2.83,1.03,1.12-.02,3.36-1.02,3.54-1.1.49,1.19,1.1,2.36,1.79,3.51.39.66.81,1.31,1.23,1.96-.24-.26-.46-.5-.49-.53-.96-.82-3.36-1.84-4.66-1.07-.94.55-1.11,1.72-.53,2.51.59.8,1.84,1.05,2.83,1.03,1-.01,2.94-.83,3.44-1.06.17.25.33.49.5.74.8,1.18,1.61,2.35,2.36,3.52.27.41.51.83.76,1.25-.21-.23-.4-.43-.43-.46-.96-.82-3.36-1.84-4.66-1.07-.94.55-1.11,1.72-.53,2.51.59.8,1.84,1.05,2.83,1.03.96-.01,2.75-.76,3.35-1.02.24.44.48.87.69,1.31.14.3.29.58.41.89.13.3.25.6.37.9.21.58.44,1.18.63,1.76.14.4.26.78.39,1.17-.26-.42-.78-1.22-.84-1.28-.81-.96-3-2.33-4.39-1.76-1.01.41-1.36,1.56-.91,2.42.45.89,1.64,1.32,2.61,1.45,1.07.14,3.34-.49,3.62-.57.21.64.4,1.26.57,1.85Z"/>
      <path class="cls-13" d="m31.47,397.09s.3-1.73.31-1.84c.05-1.28-.62-3.75-2.02-4.16-1-.3-2.02.41-2.27,1.38-.26,1,.31,2.08.93,2.79.72.84,3.06,1.82,3.06,1.82Z"/>
    </g>
  </g>
  <g id="Graphics">
    <g>
      <circle class="cls-11" cx="36.71" cy="91.35" r="16.22" transform="translate(-44.9 36.29) rotate(-34.1)"/>
      <path class="cls-11" d="m42.47,89.5c0,3.18-2.57,5.75-5.75,5.75s-5.75-2.57-5.75-5.75,2.57-5.75,5.75-5.75,5.75,2.57,5.75,5.75Z"/>
      <path class="cls-11" d="m36.71,107.58c3.67,0,7.04-1.23,9.76-3.28-.78-4.69-4.85-8.26-9.76-8.26s-8.97,3.58-9.76,8.26c2.72,2.05,6.09,3.28,9.76,3.28Z"/>
    </g>
    <g>
      <circle class="cls-11" cx="36.71" cy="132.08" r="16.22"/>
      <path class="cls-11" d="m42.47,130.24c0,3.18-2.57,5.75-5.75,5.75s-5.75-2.57-5.75-5.75,2.57-5.75,5.75-5.75,5.75,2.57,5.75,5.75Z"/>
      <path class="cls-11" d="m36.71,148.31c3.67,0,7.04-1.23,9.76-3.28-.78-4.69-4.85-8.26-9.76-8.26s-8.97,3.58-9.76,8.26c2.72,2.05,6.09,3.28,9.76,3.28Z"/>
    </g>
    <g>
      <circle class="cls-11" cx="36.71" cy="172.82" r="16.22"/>
      <path class="cls-11" d="m42.47,170.97c0,3.18-2.57,5.75-5.75,5.75s-5.75-2.57-5.75-5.75,2.57-5.75,5.75-5.75,5.75,2.57,5.75,5.75Z"/>
      <path class="cls-11" d="m36.71,189.04c3.67,0,7.04-1.23,9.76-3.28-.78-4.69-4.85-8.26-9.76-8.26s-8.97,3.58-9.76,8.26c2.72,2.05,6.09,3.28,9.76,3.28Z"/>
    </g>
    <g>
      <circle class="cls-11" cx="36.71" cy="213.55" r="16.22" transform="translate(-113.41 57.3) rotate(-34.1)"/>
      <path class="cls-11" d="m42.47,211.7c0,3.18-2.57,5.75-5.75,5.75s-5.75-2.57-5.75-5.75,2.57-5.75,5.75-5.75,5.75,2.57,5.75,5.75Z"/>
      <path class="cls-11" d="m36.71,229.77c3.67,0,7.04-1.23,9.76-3.28-.78-4.69-4.85-8.26-9.76-8.26s-8.97,3.58-9.76,8.26c2.72,2.05,6.09,3.28,9.76,3.28Z"/>
    </g>
    <g>
      <g>
        <rect class="cls-11" x="383.95" y="57.28" width="69.44" height="4.67"/>
        <rect class="cls-11" x="383.95" y="66.63" width="34.37" height="4.67"/>
        <rect class="cls-11" x="383.95" y="75.98" width="46.96" height="4.67"/>
        <rect class="cls-11" x="383.95" y="85.33" width="28.97" height="4.67"/>
        <rect class="cls-11" x="383.95" y="94.67" width="53.19" height="4.67"/>
        <rect class="cls-11" x="383.95" y="104.02" width="36.93" height="4.67"/>
        <rect class="cls-11" x="383.95" y="113.37" width="41.42" height="4.67"/>
      </g>
      <line class="cls-11" x1="384.56" y1="48.4" x2="419.5" y2="48.4"/>
      <line class="cls-11" x1="384.56" y1="42.52" x2="419.5" y2="42.52"/>
    </g>
    <g>
      <polyline class="cls-11" points="162 68.86 201.5 .5 211.12 .5"/>
      <g>
        <line class="cls-11" x1="220.23" y1="1.01" x2="244.54" y2="1.01"/>
        <line class="cls-11" x1="220.23" y1="7.08" x2="244.54" y2="7.08"/>
        <line class="cls-11" x1="220.23" y1="13.16" x2="244.54" y2="13.16"/>
      </g>
    </g>
  </g>
  <g id="Character_2" data-name="Character 2">
    <g>
      <path class="cls-8" d="m393.54,169.3s-10.03,1.86-12.03,7.16c-2.01,5.3,1,6.73,1,6.73,0,0-8.16,4.44-6.59,9.6,1.58,5.16,7.3,7.73,7.3,7.73,0,0,2.29,1.58,1.86,2.58-.43,1-1.86.72-1.86.72,0,0,2.86,2.72,7.16,3.72,4.3,1,11.17,2.29,17.19,1,6.02-1.29,10.6-4.15,10.6-4.15,0,0-4.01.29-2.29-2.43,1.72-2.72,8.74-3.87,7.88-11.89-.86-8.02-3.29-7.02-5.16-10.46-1.86-3.44.57-5.87-5.16-9.88s-15.75-7.02-18.91-5.87-1,5.44-1,5.44Z"/>
      <g>
        <path class="cls-9" d="m375.06,260.39s-10.34,13.2-11.8,32.16c-1.46,18.97,12,59.49,12.32,61.11.32,1.62,1.78,15.89,6.97,27.72,5.19,11.83,8.59,29.83,8.59,29.83,0,0-.81,3.73-.81,4.21s-6.65,6.81-8.92,8.1c-2.27,1.3-7.13,1.78-6.97,4.05.16,2.27,11.02,2.59,14.59,2.43s11.67-1.3,12.81-1.3,6.32.32,6.16-2.92-4.57-17.02-4.57-17.02c0,0-3.05-21.07-3.05-27.72s-.32-22.37-.32-22.37c0,0,12,25.61,14.59,32.58,2.59,6.97,5.19,17.02,5.51,18.15.32,1.13,1.13,13.62,4.7,17.83,3.57,4.21,5.85,3.83,8.03,3.91,2.39.08,5.59-2.12,3.64-7.96-1.95-5.84-6.81-9.89-7.78-15.72-.97-5.84-1.46-20.42-1.46-35.34s-5.84-29.83-5.84-29.83c0,0,4.38-25.29,2.27-44.74-2.11-19.45-9.85-33.89-9.85-33.89l-.52-2.09-36.96-3.57-1.33,2.36Z"/>
        <g>
          <path class="cls-11" d="m397.63,345.32c-1.38-5.92-3.23-14.54-3.48-19.18-.42-7.52-.18-28.23-.18-28.23"/>
          <path class="cls-11" d="m399.16,351.61s-.34-1.34-.85-3.45"/>
          <path class="cls-11" d="m382.52,288.47c2.17,3.17,5.37,7.23,8.29,8.44"/>
          <path class="cls-11" d="m379.95,284.39s.43.77,1.17,1.94"/>
          <line class="cls-11" x1="396.8" y1="294.9" x2="405.42" y2="283.56"/>
        </g>
        <path class="cls-7" d="m406.54,419.74c-1.07.14-2.21.27-4.47.17-5.62-.23-11.74-4.49-11.74-4.49,0,.49-6.65,6.81-8.92,8.1-2.27,1.3-7.13,1.78-6.97,4.05.16,2.27,11.02,2.59,14.59,2.43s11.67-1.3,12.81-1.3,6.32.32,6.16-2.92c-.06-1.11-.5-4.42-1.46-6.06Z"/>
        <path class="cls-7" d="m429.83,410.96c-1.01,1.71-2.38,3.87-4.36,4-2.43.16-4.16-1.78-4.94-2.87.53,4.19,1.66,12,4.33,15.16,3.57,4.21,5.85,3.83,8.03,3.91,2.39.08,5.59-2.12,3.64-7.96-1.54-4.61-4.88-8.1-6.7-12.24Z"/>
      </g>
      <path class="cls-7" d="m390.82,198.94s.57,8.31.14,9.74c-.43,1.43-5.44,1.58-6.3,1.29-.86-.29-6.73-1.43-9.6,0-2.86,1.43-6.59,7.73-7.3,9.02s-2.86,3.15-2.86,3.15c0,0-5.16-19.91-5.16-21.48s1-6.3-2.29-12.46-5.87-10.17-8.31-12.03c-2.43-1.86-4.87-2.01-5.01-.57-.14,1.43,1,2.29,1.86,3.29.86,1,3.01,5.44,3.01,5.44,0,0-5.3,8.74-5.44,10.74-.14,2.01-.43,2.43,1,4.01,1.43,1.58,6.3,4.01,6.3,4.01,0,0-.29,6.73.72,12.75,1,6.02-1.58,14.61,2.15,22.06,3.72,7.45,9.02,9.17,9.88,8.45s10.17-7.16,10.17-7.16c0,0,1.15,14.32,1.29,14.9s-.72,4.73,0,6.3c.72,1.58,3.15,4.73,16.33,5.44,13.18.72,21.77-1,22.49-2.15s.43-3.15.43-4.15,2.15-16.33,2.15-16.33c0,0,4.73,11.31,5.3,12.89.57,1.58,1.72,5.87,1.72,5.87,0,0-.43,11.03,1.43,16.04,1.86,5.01,4.01,9.88,4.01,9.88l2.56,16.39s-1.43,2.86-1.15,4.87c.29,2.01.82,6.74.82,7.46s0,2.86,1.15,3.15c1.15.29,2.15-2.72,2.15-2.72,0,0,.72,5.59.57,6.44-.14.86,1.34,3.55,2.58.72.46-1.06.86-2.86,1.15-3.44.29-.57,1.72-3.58,2.15-5.73.43-2.15.62-4.46-.96-9.46-.39-1.22-1.58-3.72-1.58-4.15s.74-19.68-.12-27.13c-.86-7.45-3.29-14.04-3.29-14.04,0,0-3.44-22.49-3.44-23.35s.57-11.31-3.15-16.33c-3.72-5.01-10.31-6.02-14.32-7.02-4.01-1-8.31-2.58-9.02-3.01-.72-.43-.86-9.88-.86-9.88l-13.32-1.72Z"/>
      <path class="cls-7" d="m366.95,243.95c2.98-2.09,6.83-4.76,6.83-4.76,0,0,1.15,14.32,1.29,14.9.14.57-.72,4.73,0,6.3.72,1.58,3.15,4.73,16.33,5.44,13.18.72,21.77-1,22.49-2.15.72-1.15.43-3.15.43-4.15s2.15-16.33,2.15-16.33c0,0,3.82,9.14,5.01,12.13,2.92-.34,7.56-1.3,12.12-3.97-.96-6.39-2.09-13.98-2.09-14.47,0-.86.57-11.31-3.15-16.33-3.72-5.01-10.31-6.02-14.32-7.02-4.01-1-8.31-2.58-9.02-3.01-.72-.43-.86-9.88-.86-9.88l-13.32-1.72s.57,8.31.14,9.74c-.43,1.43-5.44,1.58-6.3,1.29-.86-.29-6.73-1.43-9.6,0-2.86,1.43-6.59,7.73-7.3,9.02s-2.86,3.15-2.86,3.15c0,0,4.3,5.73,4.15,11.89-.1,4.47-1.19,8.02-2.1,9.92Z"/>
      <path class="cls-7" d="m412.62,213.18c-3.56-.98-6.99-2.26-7.62-2.64-.72-.43-.86-9.88-.86-9.88l-13.32-1.72s.57,8.31.14,9.74c-.39,1.29-4.5,1.53-5.93,1.36.04,3.18,1.1,10.44,9.65,12.1,7.35,1.43,14.19-4.71,17.94-8.96Z"/>
      <polygon class="cls-8" points="397.12 204.39 391.45 204.77 390.82 198.94 397.12 204.39"/>
      <path class="cls-11" d="m394.69,222.15s-3.01,11.89-2.58,15.04"/>
      <path class="cls-11" d="m374.53,224.44c.79-1.83,1.54-3.01,1.54-3.01"/>
      <path class="cls-11" d="m373.77,239.19s-1.29-2.72-1-7.88c.1-1.81.54-3.58,1.06-5.1"/>
      <line class="cls-11" x1="416.45" y1="243.2" x2="418.13" y2="233.63"/>
      <g>
        <path class="cls-7" d="m396.12,170.73l-9.17,6.3s-.29,3.72-.29,7.73-1.15,7.45.86,11.17c2.01,3.72,6.3,8.45,9.6,8.45s7.45-1.86,10.03-3.87,3.87-5.87,3.87-5.87c0,0,3.58-1.43,3.29-3.72-.29-2.29-.72-3.87-1.29-4.01s-1.86-.43-1.86-.43l-1.86-7.73s-10.6-4.44-13.18-8.02Z"/>
        <path class="cls-11" d="m396.98,180.33v2.15s-3.15,2.58-1.86,3.58c1.29,1,2.01.43,2.58.29"/>
        <path class="cls-11" d="m393.25,191.07s3.44,3.72,8.59-.29"/>
        <path class="cls-11" d="m389.82,179.04s1.86-1.86,5.44-1"/>
        <path class="cls-11" d="m399.55,177.89s3.29-1.43,5.87,1.15"/>
        <path class="cls-13" d="m393.68,181.83c0,.67-.38,1.22-.86,1.22s-.86-.55-.86-1.22.38-1.22.86-1.22.86.55.86,1.22Z"/>
        <path class="cls-13" d="m403.42,181.83c0,.67-.38,1.22-.86,1.22s-.86-.55-.86-1.22.38-1.22.86-1.22.86.55.86,1.22Z"/>
        <path class="cls-7" d="m386.52,186.63s-2.86-1.58-3.01,1.29c-.14,2.86,2.43,5.01,2.43,5.01l.57-6.3Z"/>
      </g>
      <path class="cls-7" d="m349,184.34s-2.8-.84-4.02,1.59c-1.21,2.43.81,5,2.3,5.94,1.48.94,2.7.68,2.83-1.08.13-1.76-1.62-4.05-1.62-4.05l.51-2.4Z"/>
      <path class="cls-7" d="m344.44,187.55s-2.57,2.02-2.3,3.65c.27,1.62,3.38,3.78,5,3.65,1.62-.13,1.08-2.3,1.08-2.3,0,0-3.11-2.97-3.78-5Z"/>
      <path class="cls-7" d="m342.95,192.95s-2.03,1.49-.95,3.38c1.08,1.89,3.92,2.43,4.86,1.35.94-1.08.27-2.84.27-2.84,0,0-4.05-.95-4.19-1.89Z"/>
      <path class="cls-7" d="m354.83,199.29s-1.22-2.03-1.08-4.59c.13-2.57,2.43-5.81,2.43-5.81,0,0-.4-.94-.67-2.16-.27-1.22-1.89-5.67-.4-7.56,1.48-1.89,2.7,1.22,3.65,4.05.94,2.84,1.62,4.32,1.62,4.32,0,0,1.08,3.24.54,5.81-.54,2.57-2.02,7.16-2.02,7.16"/>
    </g>
  </g>
  <g id="Profile_3" data-name="Profile 3">
    <g>
      <g>
        <g>
          <line class="cls-7" x1="234.11" y1="330.9" x2="313.53" y2="330.9"/>
          <rect class="cls-12" x="224.43" y="327.51" width="5.32" height="5.32"/>
        </g>
        <g>
          <line class="cls-7" x1="234.11" y1="342.51" x2="313.53" y2="342.51"/>
          <rect class="cls-12" x="224.43" y="339.12" width="5.32" height="5.32"/>
        </g>
        <g>
          <line class="cls-7" x1="234.11" y1="354.13" x2="313.53" y2="354.13"/>
          <rect class="cls-12" x="224.43" y="350.73" width="5.32" height="5.32"/>
        </g>
        <g>
          <line class="cls-7" x1="234.11" y1="365.74" x2="313.53" y2="365.74"/>
          <rect class="cls-12" x="224.43" y="362.34" width="5.32" height="5.32"/>
        </g>
      </g>
      <rect class="cls-11" x="163.1" y="266.29" width="195" height="120.95"/>
      <rect class="cls-11" x="163.1" y="266.29" width="195" height="9.72"/>
      <line class="cls-11" x1="214.19" y1="276.69" x2="214.19" y2="386.21"/>
      <g>
        <circle class="cls-11" cx="240.29" cy="301.62" r="16.83"/>
        <path class="cls-11" d="m246.25,299.7c0,3.29-2.67,5.97-5.97,5.97s-5.97-2.67-5.97-5.97,2.67-5.97,5.97-5.97,5.97,2.67,5.97,5.97Z"/>
        <path class="cls-11" d="m240.29,318.45c3.81,0,7.3-1.28,10.12-3.41-.81-4.86-5.03-8.57-10.12-8.57s-9.31,3.71-10.12,8.57c2.82,2.13,6.32,3.41,10.12,3.41Z"/>
      </g>
      <g>
        <circle class="cls-11" cx="189.04" cy="300.39" r="8.1"/>
        <path class="cls-11" d="m191.91,299.46c0,1.58-1.28,2.87-2.87,2.87s-2.87-1.28-2.87-2.87,1.28-2.87,2.87-2.87,2.87,1.28,2.87,2.87Z"/>
        <path class="cls-11" d="m189.04,308.48c1.83,0,3.51-.61,4.87-1.64-.39-2.34-2.42-4.12-4.87-4.12s-4.48,1.78-4.87,4.12c1.36,1.02,3.04,1.64,4.87,1.64Z"/>
      </g>
      <g>
        <circle class="cls-11" cx="189.04" cy="334.29" r="8.1"/>
        <path class="cls-11" d="m191.91,333.36c0,1.58-1.28,2.87-2.87,2.87s-2.87-1.28-2.87-2.87,1.28-2.87,2.87-2.87,2.87,1.28,2.87,2.87Z"/>
        <path class="cls-11" d="m189.04,342.38c1.83,0,3.51-.61,4.87-1.64-.39-2.34-2.42-4.12-4.87-4.12s-4.48,1.78-4.87,4.12c1.36,1.02,3.04,1.64,4.87,1.64Z"/>
      </g>
      <g>
        <circle class="cls-11" cx="189.04" cy="368.19" r="8.1"/>
        <path class="cls-11" d="m191.91,367.27c0,1.58-1.28,2.87-2.87,2.87s-2.87-1.28-2.87-2.87,1.28-2.87,2.87-2.87,2.87,1.28,2.87,2.87Z"/>
        <path class="cls-11" d="m189.04,376.28c1.83,0,3.51-.61,4.87-1.64-.39-2.34-2.42-4.12-4.87-4.12s-4.48,1.78-4.87,4.12c1.36,1.02,3.04,1.64,4.87,1.64Z"/>
      </g>
      <line class="cls-11" x1="266.18" y1="292.03" x2="308.79" y2="292.03"/>
      <line class="cls-11" x1="266.18" y1="301.83" x2="308.79" y2="301.83"/>
      <line class="cls-11" x1="266.18" y1="311.63" x2="308.79" y2="311.63"/>
    </g>
  </g>
  <g id="Profile_2" data-name="Profile 2">
    <g>
      <rect class="cls-11" x="227.33" y="34.7" width="134.01" height="197.55"/>
      <circle class="cls-7" cx="290.94" cy="96.74" r="42.92"/>
      <line class="cls-7" x1="246.49" y1="153.5" x2="336.92" y2="153.5"/>
      <line class="cls-7" x1="246.49" y1="162.69" x2="336.92" y2="162.69"/>
      <g>
        <g>
          <line class="cls-7" x1="257.5" y1="178.18" x2="336.92" y2="178.18"/>
          <rect class="cls-12" x="247.82" y="174.78" width="5.32" height="5.32"/>
        </g>
        <g>
          <line class="cls-7" x1="257.5" y1="189.79" x2="336.92" y2="189.79"/>
          <rect class="cls-12" x="247.82" y="186.39" width="5.32" height="5.32"/>
        </g>
        <g>
          <line class="cls-7" x1="257.5" y1="201.4" x2="336.92" y2="201.4"/>
          <rect class="cls-12" x="247.82" y="198.01" width="5.32" height="5.32"/>
        </g>
        <g>
          <line class="cls-7" x1="257.5" y1="213.01" x2="336.92" y2="213.01"/>
          <rect class="cls-12" x="247.82" y="209.62" width="5.32" height="5.32"/>
        </g>
      </g>
      <g>
        <path class="cls-3" d="m281.45,68.27s5.61-9.62,18.03-9.22c12.42.4,15.43,14.02,15.03,18.03-.4,4.01-1.8,6.61-1.8,6.61l-5.41-4.61s5.45,5.05,8.46,13.06c3.01,8.01,1.56,18.39-2.25,20.8s-6.41,1.4-6.41,1.4l.4-5.41s-3.61,6.41-9.62,7.61c-6.01,1.2-23.24,2-25.84-1s-3.21-6.41-3.21-6.41l-.4,5.21s-5.41-4.01-5.61-8.61c-.2-4.61,2.6-11.02,4.01-14.42,1.4-3.41,2.4-5.21,2.8-10.42.4-5.21-.2-8.01,3.41-11.42s8.41-1.2,8.41-1.2Z"/>
        <g>
          <path class="cls-4" d="m273.08,122.9c-3.33,1.43-8.7,2.7-12.35,4.33,7.75,7.68,18.42,12.43,30.2,12.43s22.31-4.69,30.06-12.29c-.94-.49-2.3-1.03-4.39-1.61-6.42-1.78-15.53-7-16.6-8.78-1.07-1.78-2.13-8.04-2.13-8.04l-14.83-2s.73,7.76.73,9.19-5.71,4.64-10.7,6.78Z"/>
          <path class="cls-4" d="m279.24,89.7s1.2-9.02,4.01-13.82c2.8-4.81,8.81-3.41,11.22-1.8,2.4,1.6,6.21,10.22,8.41,15.83,2.2,5.61,3.21,8.81,3.21,8.81,0,0-3.49,7.29-8.21,10.22-5.04,3.12-10.52,3-14.83-2-2.41-2.8-3.61-5.81-3.61-5.81,0,0-5.01-1.6-6.21-5.81-1.2-4.21-.2-6.41,1.8-7.01,2-.6,4.21,1.4,4.21,1.4Z"/>
          <path class="cls-5" d="m294.87,86.7s-.2,3.01,1.4,5.21c1.6,2.2.2,4.61-2.6,4.01"/>
          <path class="cls-5" d="m296.27,99.52s-6.81,3.21-10.02-3.21"/>
          <path class="cls-13" d="m287.46,89.9c0,.89.36,1.6.8,1.6s.8-.72.8-1.6-.36-1.6-.8-1.6-.8.72-.8,1.6Z"/>
          <path class="cls-13" d="m297.28,89.9c0,.89.36,1.6.8,1.6s.8-.72.8-1.6-.36-1.6-.8-1.6-.8.72-.8,1.6Z"/>
          <path class="cls-5" d="m289.86,82.89s-2.2-1.6-4.61.6"/>
          <path class="cls-5" d="m295.67,83.29s1.6-1.8,3.81-.8"/>
        </g>
        <path class="cls-9" d="m307.12,121.8l-15.54,14.73-15.06-15.22c-1.13.56-2.3,1.1-3.43,1.59-3.33,1.43-8.7,2.7-12.35,4.33,7.75,7.68,18.42,12.43,30.2,12.43s22.31-4.69,30.06-12.29c-.94-.49-2.3-1.03-4.39-1.61-2.94-.82-6.45-2.36-9.49-3.96Z"/>
      </g>
    </g>
  </g>
  <g id="Profile_1" data-name="Profile 1">
    <g>
      <g>
        <rect class="cls-11" x="72.98" y="34.7" width="134.01" height="197.55"/>
        <line class="cls-7" x1="92.14" y1="153.5" x2="182.58" y2="153.5"/>
        <line class="cls-7" x1="92.14" y1="162.69" x2="182.58" y2="162.69"/>
        <g>
          <line class="cls-7" x1="103.16" y1="178.18" x2="182.58" y2="178.18"/>
          <rect class="cls-12" x="93.48" y="174.78" width="5.32" height="5.32"/>
        </g>
        <g>
          <line class="cls-7" x1="103.16" y1="189.79" x2="182.58" y2="189.79"/>
          <rect class="cls-12" x="93.48" y="186.39" width="5.32" height="5.32"/>
        </g>
        <g>
          <line class="cls-7" x1="103.16" y1="201.4" x2="182.58" y2="201.4"/>
          <rect class="cls-12" x="93.48" y="198.01" width="5.32" height="5.32"/>
        </g>
        <g>
          <line class="cls-7" x1="103.16" y1="213.01" x2="182.58" y2="213.01"/>
          <rect class="cls-12" x="93.48" y="209.62" width="5.32" height="5.32"/>
        </g>
      </g>
      <g>
        <circle class="cls-7" cx="136.59" cy="96.74" r="42.92"/>
        <path class="cls-3" d="m114.25,115.58l-10.7,8.56c7.87,9.48,19.75,15.52,33.04,15.52s24.62-5.78,32.49-14.89l-16.27-10.61-38.56,1.42Z"/>
        <g>
          <g>
            <path class="cls-2" d="m127.69,103.45s-9.44,1.22-12.06,5.07c-2.62,3.84-4.54,7.51-2.62,9.79,1.92,2.27,7.34,7.17,10.49,9.26s8.05,9.27,8.05,9.27c0,0,.68-5.25.68-9.1s-3.32-8.04-4.02-11.53c-.7-3.5,5.07-9.09,9.09-7.34,4.02,1.75,7.17,6.99,6.99,9.44s.7,5.42,1.57,9.61c.87,4.19,1.57,7.79,1.57,7.79,0,0,5.94-6.04,7.86-12.5,1.92-6.47,1.05-13.11-6.12-17.48-7.17-4.37-21.5-2.27-21.5-2.27Z"/>
            <path class="cls-4" d="m152.28,108.12c-.87-.85-1.88-1.66-3.09-2.4-7.17-4.37-21.5-2.27-21.5-2.27,0,0-9.44,1.22-12.06,5.07-.31.45-.6.89-.88,1.33-.31,1.88-.02,4.15,1.58,6.7,3.92,6.24,12.04,9.22,15.89,10.96-.13-3.78-3.32-7.88-4.01-11.31-.7-3.5,5.07-9.09,9.09-7.34,4.02,1.75,7.17,6.99,6.99,9.44s.7,5.42,1.57,9.61c.05.24.1.5.15.75.3-.29.6-.59.9-.93,4.54-5.07,5.94-10.66,5.94-15.55,0-1.44-.22-2.81-.58-4.07Z"/>
          </g>
          <g>
            <path class="cls-4" d="m126.12,96.64s1.05,12.58,1.4,16.08,2.27,12.41,8.21,14.16c5.94,1.75,9.44-5.07,8.56-10.14s-2.45-9.79-2.45-11.53-.17-2.27-.17-2.27l-15.55-6.29Z"/>
            <path class="cls-3" d="m141.67,102.93l-15.55-6.29s.8,9.57,1.23,14.34l14.49-6.11c-.02-1.47-.17-1.93-.17-1.93Z"/>
          </g>
          <g>
            <g>
              <path class="cls-4" d="m145.35,73.08s2.79,15.36,2.79,18.15-2.56,10.94-3.72,12.8c-1.16,1.86-6.98,3.03-9.31,2.09-2.33-.93-8.84-6.98-10.24-9.54-1.4-2.56-1.86-4.89-1.86-4.89,0,0-3.26,1.4-5.82-2.33s-1.16-7.22,1.4-7.45l2.33.7s-4.19-7.22-2.79-10.47c1.4-3.26,18.15-4.42,21.65-4.42s5.59,5.35,5.59,5.35Z"/>
              <path class="cls-3" d="m132.63,76.86l-3.71,1.64c-.54.24-.76.89-.48,1.41l.14.25c.27.48.87.66,1.36.41l3.58-1.89c.5-.27.69-.89.41-1.39h0c-.26-.45-.81-.64-1.29-.43Z"/>
              <path class="cls-3" d="m139.53,76.05l-.02.06c-.12.45.16.91.61,1.02l2.86.65c.51.12,1-.27,1-.8h0c0-.38-.26-.71-.62-.8l-2.85-.71c-.43-.11-.87.15-.99.58Z"/>
              <path class="cls-1" d="m147.17,96.36s-.45-5.31-1.52-6.07c-1.06-.76-8.95-.15-8.95-.15,0,0-8.04-2.28-8.19-.45-.11,1.34.24,8.44.58,11.76,2.25,2.15,4.75,4.18,6.02,4.68,2.33.93,8.15-.23,9.31-2.09.7-1.12,1.9-4.51,2.75-7.64,0-.02,0-.03,0-.03Zm-1.82.91c-.91,3.03-2.88,4.85-3.79,4.4-.91-.45-1.67-3.34-2.43-3.64s-1.37,1.21-2.28,2.58c-.91,1.37-3.34,1.82-4.4.91-1.06-.91-2.28-9.25-2.28-10.31s11.07.61,11.07.61c0,0,2.73-.3,3.49-.15.76.15,1.52,2.58.61,5.61Z"/>
              <path class="cls-5" d="m132,91.96s4.4,3.03,9.1,1.97"/>
              <path class="cls-4" d="m138.68,79.22s2.12,9.25,2.28,10.01c.15.76-1.52,3.19-3.34,1.82-1.82-1.37-2.12-2.73-2.12-2.73"/>
              <path class="cls-13" d="m133.94,83.72c.24.8.15,1.54-.21,1.65s-.85-.45-1.1-1.25c-.24-.8-.15-1.54.21-1.65.36-.11.85.45,1.1,1.25Z"/>
              <path class="cls-13" d="m142.92,82.48c.1.83-.13,1.54-.5,1.59-.37.04-.76-.6-.85-1.43-.1-.83.13-1.54.5-1.59.37-.04.76.6.85,1.43Z"/>
            </g>
            <path class="cls-3" d="m117.19,63.07s-6.05,6.05-3.72,11.17c2.33,5.12,8.15,14.66,8.15,14.66h1.16l-.23-3.96s3.72-1.4,3.03-4.66c-.7-3.26-2.33-5.35-2.33-5.35,0,0,3.96,3.03,8.61,2.33s6.75-6.28,8.38-4.42c1.63,1.86,4.19,3.03,9.08.47,4.89-2.56,8.01-11.23,2.65-14.72-5.35-3.49-10.33-.41-13.13.29-2.79.7-4.89-3.96-11.17-2.09-6.28,1.86-10.47,6.28-10.47,6.28Z"/>
          </g>
        </g>
      </g>
    </g>
  </g>
  <g id="Character_1" data-name="Character 1">
    <g>
      <g>
        <circle class="cls-10" cx="175.99" cy="186.95" r="14.6" transform="translate(-27.56 30.46) rotate(-9.18)"/>
        <line class="cls-6" x1="184.17" y1="199.8" x2="199.93" y2="220.82"/>
      </g>
      <g>
        <path class="cls-7" d="m158.63,176.01s.98,2.95.82,5.89c-.16,2.95.16,7.2.98,7.85.82.65,3.11,2.29,2.45,3.6s-2.13,1.96-2.13,1.96c0,0-.82,4.25-2.45,7.36-1.64,3.11-2.78,5.24-4.75,5.4-1.96.16-3.11-.33-3.11-.33l-2.13,2.13-16.2-3.44.49-7.2s-4.91-8.34-4.91-16.85,8.67-13.42,13.74-13.74c5.07-.33,14.56,1.8,17.18,7.36Z"/>
        <path class="cls-8" d="m162.88,171.92s.33,2.13-1.31,4.58-6.05,3.27-6.05,3.27c0,0-.16,3.6-1.15,5.07-.98,1.47-3.27,2.62-3.27,2.62,0,0-3.27.33-2.29,3.93.98,3.6,1.8,4.09.16,7.04-1.64,2.95-11.29,6.87-14.56,4.58-3.27-2.29-5.73-3.44-7.69-10.31s-3.93-16.53,1.64-23.07c5.56-6.55,18.16-4.91,18.16-4.91,0,0-3.27-3.11,1.31-2.95,4.58.16,7.69,3.44,7.69,3.44,0,0,.49-3.27,2.95-2.45,2.45.82,4.09,7.36,4.42,9.16Z"/>
        <path class="cls-7" d="m152.41,189.92s-2.78-5.24-4.91-3.27c-2.13,1.96,0,12.44,3.6,10.47"/>
        <line class="cls-11" x1="151.1" y1="187.46" x2="164.35" y2="187.46"/>
        <path class="cls-11" d="m158.88,184.19c.81-.34,1.74-.44,2.72-.19,1.46.37,2.63,1.58,2.97,3.06.4,1.76-.31,3.39-1.57,4.33"/>
      </g>
      <path class="cls-7" d="m152.01,214.66s0-3.66-4.8-6.4c-4.8-2.74-14.4-6.4-18.74-5.94-4.34.46-6.86,6.63-6.86,6.63,0,0,17.14,1.6,21.26,2.51s9.14,3.2,9.14,3.2Z"/>
      <g>
        <path class="cls-7" d="m80.25,238.43s-5.49,6.4-12.8,15.54c-7.31,9.14-13.26,18.51-13.26,18.51,0,0-6.86,5.94-7.77,8.46-.91,2.51-3.2,9.83-4.11,11.88-.91,2.06,3.2-.69,3.89-2.29.69-1.6,1.37-2.74,1.37-2.74l5.94-2.74s-1.83,4.57,0,5.26c1.83.69,2.06-2.51,4.11-5.03,2.06-2.51,3.89-4.34,4.11-7.31.23-2.97,0-6.17,0-6.17l29.25-18.97-10.74-14.4Z"/>
        <path class="cls-11" d="m47.57,287.8l2.71-4.07s1.89-.5,3.66-1.64c1.77-1.14,2.65-2.4,2.65-2.4"/>
      </g>
      <path class="cls-7" d="m179.58,229.47l7.41-15.58s1.28-6,1.79-6.9c.51-.89,3.58-5.75,4.72-5.87,1.15-.13,2.3.38,2.43,1.4.13,1.02-.38,1.79-.38,1.79,0,0,1.66.77,2.94,2.43,1.28,1.66,1.28,2.94,1.53,3.96s1.15,1.15.13,3.32c-1.02,2.17-2.68,2.81-3.58,3.45s-3.06,1.66-3.06,1.66c0,0-.13,14.69-1.92,20.43-1.79,5.75-3.06,7.66-3.06,7.66,0,0-3.06-10.47-4.85-12.51-1.79-2.04-4.09-5.24-4.09-5.24Z"/>
      <path class="cls-8" d="m90.3,272.03s-9.74,25.13-11.42,30.99-5.62,17.75-7.3,32.85c-.99,8.87.09,18.46.09,18.46,0,0-3.34,6.41-6.97,16.16-3.62,9.75-15.91,58.11-15.91,58.11,0,0,2.23,3.34,7.25,2.51l5.02-.84s1.67.28,3.62-.28c1.95-.56,6.41-.28,6.69-2.23s-1.11-2.51-2.79-4.46c-1.67-1.95-4.18-8.08-4.18-8.08,0,0,13.93-24.42,18.95-33.34,5.02-8.92,12.01-25.61,12.29-28.12.28-2.51,14.2-39.36,14.2-39.36h3.07l22,36.82s-.84,14.77,1.67,23.41c2.51,8.64,8.36,41.25,8.36,41.25l-.56,5.85s1.11,2.79,1.11,3.62v3.07s.84,1.95,6.41,1.95c2.51,0,10.87-.84,12.26-1.11s11.98-.56,12.26-1.95c.28-1.39.56-2.51-1.11-3.07s-13.66-6.13-13.66-6.13v-5.02s-2.23-1.67-2.79-3.34c-.56-1.67.56-46.54,0-54.34-.56-7.8.28-7.8-1.95-14.77-2.23-6.97-11.08-55.81-11.08-55.81l-4.51-7.77-47.38-9.75-3.65,4.72Z"/>
      <g>
        <path class="cls-7" d="m176.93,229.97s.91-2.97,4.8-1.6,9.83,12.57,8.46,18.51-5.03,8-8.23,7.77c-3.2-.23-7.09-4.11-6.17-4.57.91-.46,1.14-20.11,1.14-20.11Z"/>
        <path class="cls-7" d="m92.36,227.23s-1.6,0-3.89-.23c-2.29-.23-5.49,3.66-7.31,5.94s-4.11,3.66-2.51,8.46c1.6,4.8,5.94,10.97,12.34,11.43,6.4.46,10.06-2.97,10.06-2.97l-8.68-22.63Z"/>
        <path class="cls-9" d="m121.62,208.95s-3.66-.46-11.43,3.89c-7.77,4.34-24.45,17.83-25.6,20.11-1.14,2.29,2.06,12.57,6.17,14.4s7.77.46,7.77.46l-8.23,24.23s9.14-.46,24.45,2.29c15.31,2.74,31.08,10.51,31.08,10.51,0,0,1.14-.23,1.37-3.2.23-2.97,1.14-4.8,1.83-6.17.69-1.37,9.37-30.85,9.37-30.85,0,0,17.14,7.54,21.71,7.54s6.17-8.23,4.34-14.4c-1.83-6.17-5.71-8-5.71-8,0,0-5.26-1.6-9.6-5.26-4.34-3.66-17.14-9.83-17.14-9.83,0,0-18.28-7.77-30.4-5.71Z"/>
        <polyline class="cls-11" points="151.78 239.8 158.41 244.6 149.73 242.54"/>
        <line class="cls-11" x1="106.26" y1="223.63" x2="107.45" y2="219.92"/>
        <line class="cls-11" x1="98.53" y1="247.8" x2="105.11" y2="227.22"/>
      </g>
    </g>
  </g>
</svg>