<?xml version="1.0" encoding="UTF-8"?>
<svg xmlns="http://www.w3.org/2000/svg" viewBox="0 0 456.35 445.64">
  <defs>
    <style>
      .cls-1 {
        fill: #575757;
      }

      .cls-1, .cls-2, .cls-3, .cls-4, .cls-5, .cls-6, .cls-7, .cls-8, .cls-9, .cls-10, .cls-11, .cls-12 {
        stroke-linecap: round;
      }

      .cls-1, .cls-2, .cls-3, .cls-4, .cls-5, .cls-6, .cls-7, .cls-8, .cls-9, .cls-11, .cls-12 {
        stroke-linejoin: round;
      }

      .cls-1, .cls-2, .cls-3, .cls-4, .cls-5, .cls-6, .cls-9, .cls-10, .cls-12 {
        stroke: #263238;
      }

      .cls-2, .cls-13 {
        fill: #41c7a8;
      }

      .cls-3, .cls-14 {
        fill: #263238;
      }

      .cls-4 {
        fill: #a6a6a6;
      }

      .cls-5 {
        fill: #d1d1d1;
      }

      .cls-6, .cls-15 {
        fill: #fff;
      }

      .cls-7 {
        stroke: #000;
      }

      .cls-7, .cls-8, .cls-9, .cls-10, .cls-11, .cls-12 {
        fill: none;
      }

      .cls-8 {
        stroke: #787878;
      }

      .cls-15 {
        opacity: .7;
      }

      .cls-15, .cls-16, .cls-14, .cls-13, .cls-17 {
        stroke-width: 0px;
      }

      .cls-10 {
        stroke-miterlimit: 10;
      }

      .cls-11 {
        stroke: #fff;
      }

      .cls-11, .cls-12 {
        stroke-width: 2px;
      }

      .cls-18, .cls-17 {
        opacity: .2;
      }
    </style>
  </defs>
  <g id="Background_Simple" data-name="Background Simple">
    <g>
      <path class="cls-13" d="m430.2,130.17c-6.98-14.53-15.48-28.5-25.16-41.77-28.15-38.58-68.79-69.42-116.48-83.02-48.66-13.87-103.75-.28-142.7,33.11-20.19,17.31-35.68,39.12-45.6,63.08-7.03,17-14.56,34.16-26.42,48.8-10.35,12.78-23.85,23.01-34.93,35.24C15.97,210.96-.18,240.89,0,274.44c.23,42.88,17.5,99.07,61.86,117.53,36.69,15.27,77.69-4.7,115.56-7.22,35.36-2.36,66.09,15.89,100.42,16.28,81.9.93,149.94-64.35,168.2-138.62,11.41-46.41,3.71-91.52-15.85-132.23Z"/>
      <path class="cls-15" d="m430.2,130.17c-6.98-14.53-15.48-28.5-25.16-41.77-28.15-38.58-68.79-69.42-116.48-83.02-48.66-13.87-103.75-.28-142.7,33.11-20.19,17.31-35.68,39.12-45.6,63.08-7.03,17-14.56,34.16-26.42,48.8-10.35,12.78-23.85,23.01-34.93,35.24C15.97,210.96-.18,240.89,0,274.44c.23,42.88,17.5,99.07,61.86,117.53,36.69,15.27,77.69-4.7,115.56-7.22,35.36-2.36,66.09,15.89,100.42,16.28,81.9.93,149.94-64.35,168.2-138.62,11.41-46.41,3.71-91.52-15.85-132.23Z"/>
    </g>
  </g>
  <g id="Plants">
    <g>
      <path class="cls-14" d="m9.99,328.79c2.88,1.26,9.93,1.1,9.93,1.1.07,0-1.51-4.61-1.65-4.89-1.55-3.23-6.43-8.57-10.41-8.04-2.87.39-4.46,3.26-3.81,5.95.66,2.76,3.49,4.8,5.94,5.87Z"/>
      <path class="cls-14" d="m12.42,349.2c2.99.44,9.28-1.39,9.77-1.53.99,3.52,2.3,7.05,3.81,10.55.86,2,1.8,3.99,2.76,5.98-.57-.84-1.09-1.59-1.18-1.68-2.35-2.71-8.47-6.57-12.16-5-2.66,1.13-3.44,4.32-2.1,6.75,1.36,2.48,4.63,3.71,7.28,4.1,2.69.39,8.08-1.06,9.5-1.46.38.76.74,1.52,1.12,2.27,1.82,3.63,3.65,7.23,5.34,10.83.6,1.27,1.14,2.54,1.68,3.8-.51-.75-.95-1.37-1.02-1.46-2.34-2.71-8.47-6.57-12.16-5-2.66,1.13-3.44,4.32-2.1,6.75,1.37,2.48,4.63,3.71,7.28,4.1,2.57.37,7.55-.92,9.24-1.39.52,1.32,1.04,2.63,1.48,3.93.28.89.62,1.73.85,2.65.25.9.5,1.79.75,2.67.41,1.71.85,3.48,1.21,5.16.26,1.17.48,2.29.71,3.41-.58-1.27-1.76-3.73-1.89-3.92-1.91-3.03-7.38-7.78-11.27-6.78-2.8.71-4.06,3.75-3.1,6.35.97,2.66,4.02,4.37,6.58,5.15,2.82.86,9.06.07,9.84-.03.37,1.86.72,3.68,1.02,5.4.67,3.8,1.17,7.2,1.56,10.08h2.63c-.46-2.98-1.06-6.53-1.85-10.51-.37-1.89-.81-3.91-1.27-5.98.47-.19,3.13-1.26,5.49-2.58,2.05,2.22,7.32,4.83,8,5.16-.72,1.76-1.43,3.47-2.13,5.07-1.46,3.35-2.84,6.32-4.06,8.85h2.84c1.05-2.33,2.2-4.98,3.4-7.92.73-1.79,1.49-3.71,2.24-5.69.75.16,6.93,1.41,9.81.76,2.61-.59,5.77-2.07,6.94-4.65,1.14-2.53.12-5.64-2.62-6.56-3.8-1.28-9.61,3.04-11.74,5.93-.13.17-1.28,2.17-1.99,3.44.3-.81.61-1.6.91-2.43.61-1.65,1.16-3.32,1.77-5.12.26-.88.53-1.76.8-2.66.28-.88.47-1.85.71-2.78.52-2.17.94-4.4,1.31-6.65,1.45.53,6.63,2.33,9.31,2.14,2.67-.19,6.02-1.17,7.57-3.54,1.51-2.32.97-5.56-1.6-6.89-3.57-1.84-9.96,1.55-12.5,4.08-.16.16-1.78,2.18-2.64,3.3.21-1.36.43-2.71.6-4.09.49-3.98.87-8.02,1.26-12.06.12-1.24.25-2.46.38-3.7.51.19,6.62,2.47,9.63,2.26,2.67-.19,6.02-1.17,7.57-3.54,1.51-2.32.97-5.56-1.6-6.89-3.57-1.84-9.96,1.55-12.5,4.08-.19.19-2.52,3.1-3.07,3.87.29-2.71.6-5.41,1.01-8.06.57-3.65,1.32-7.21,2.31-10.6.24.09,6.6,2.49,9.68,2.28,2.67-.19,6.02-1.17,7.57-3.54,1.51-2.32.97-5.56-1.6-6.89-3.57-1.84-9.96,1.55-12.5,4.08-.2.2-2.7,3.33-3.11,3.93.06-.2.1-.42.16-.62,1.1-3.61,2.62-6.96,4.2-10.03.91-1.79,1.89-3.44,2.87-5.03,1.14.57,6.38,3.11,9.17,3.22,2.67.11,6.11-.5,7.91-2.69,1.76-2.14,1.58-5.42-.83-7.02-3.34-2.22-10.07.45-12.87,2.68-.15.12-1.56,1.53-2.58,2.57.45-.71.91-1.45,1.36-2.13,1.68-2.53,3.37-4.74,4.89-6.69.87-1.1,1.68-2.08,2.45-2.98,1.41-.02,7.09-.2,9.57-1.36,2.42-1.14,5.19-3.26,5.78-6.03.57-2.71-1.1-5.54-3.97-5.85-3.99-.43-8.73,5.04-10.19,8.31-.13.28-1.59,4.93-1.51,4.93,0,0,.07,0,.09,0-.76.86-1.56,1.79-2.41,2.82-1.56,1.92-3.31,4.1-5.05,6.6-1.75,2.5-3.57,5.26-5.23,8.34-1.67,3.09-3.27,6.42-4.47,10.06-.01.04-.02.09-.04.13.02-1.18-.03-4.47-.06-4.72-.46-3.55-3.44-10.15-7.39-10.88-2.84-.52-5.25,1.7-5.48,4.47-.23,2.82,1.82,5.65,3.81,7.43,2.25,2.01,8.5,3.96,9,4.11-1.11,3.48-1.97,7.15-2.64,10.9-.38,2.15-.7,4.32-.99,6.51-.01-1.02-.04-1.93-.05-2.05-.46-3.55-3.44-10.15-7.39-10.88-2.84-.53-5.25,1.7-5.48,4.47-.23,2.82,1.82,5.65,3.81,7.43,2.03,1.81,7.32,3.58,8.73,4.03-.1.84-.22,1.68-.32,2.52-.48,4.03-.94,8.05-1.52,11.98-.2,1.39-.45,2.74-.7,4.1-.01-.9-.03-1.66-.05-1.78-.46-3.55-3.44-10.15-7.39-10.88-2.84-.53-5.25,1.7-5.48,4.47-.23,2.82,1.82,5.65,3.81,7.43,1.93,1.73,6.81,3.4,8.48,3.94-.29,1.38-.58,2.77-.93,4.1-.26.9-.44,1.79-.75,2.68-.29.89-.57,1.77-.85,2.64-.6,1.66-1.21,3.37-1.84,4.97-.43,1.12-.86,2.17-1.29,3.24.22-1.38.59-4.08.59-4.31.05-2.38-.79-6.25-2.47-8.97.01-.35,0-.7-.07-1.05-.44-2.74-3.01-4.77-5.81-4.03-3.88,1.03-6.34,7.84-6.52,11.42-.01.21.13,2.52.24,3.97-.2-.84-.38-1.66-.59-2.53-.41-1.72-.86-3.42-1.35-5.25-.26-.88-.53-1.76-.8-2.65-.25-.89-.63-1.8-.94-2.71-.77-2.1-1.65-4.19-2.58-6.27,1.5-.36,6.81-1.71,8.95-3.35,2.12-1.63,4.38-4.3,4.36-7.13-.02-2.77-2.25-5.18-5.13-4.86-3.99.43-7.45,6.79-8.18,10.3-.05.22-.28,2.8-.38,4.21-.57-1.25-1.13-2.5-1.75-3.74-1.78-3.59-3.7-7.17-5.6-10.75-.58-1.1-1.15-2.2-1.72-3.29.54-.12,6.89-1.6,9.28-3.43,2.12-1.63,4.38-4.3,4.36-7.13-.02-2.77-2.26-5.18-5.13-4.86-3.99.43-7.45,6.79-8.18,10.3-.05.26-.39,3.97-.43,4.92-1.26-2.42-2.49-4.84-3.6-7.28-1.54-3.36-2.87-6.74-3.92-10.12.25-.06,6.88-1.56,9.33-3.44,2.12-1.63,4.38-4.3,4.36-7.13-.02-2.77-2.25-5.17-5.13-4.86-3.99.43-7.45,6.79-8.18,10.3-.06.28-.41,4.27-.43,4.99-.06-.2-.15-.4-.21-.6-1.07-3.62-1.65-7.25-2.03-10.68-.22-1.99-.33-3.91-.38-5.78,1.26-.15,7.03-.92,9.42-2.37,2.29-1.39,4.82-3.79,5.11-6.61.28-2.76-1.67-5.39-4.56-5.4-4.01,0-8.15,5.93-9.26,9.34-.06.19-.46,2.14-.74,3.56-.01-.84-.04-1.71-.04-2.52,0-3.03.2-5.81.39-8.27.12-1.4.26-2.66.39-3.84,1.16-.8,5.8-4.08,7.23-6.42,1.39-2.29,2.53-5.58,1.49-8.22-1.02-2.58-3.97-4.01-6.54-2.69-3.57,1.84-4.5,9.02-3.91,12.56.05.31,1.4,4.99,1.46,4.95,0,0,.06-.04.07-.05-.16,1.13-.31,2.35-.45,3.68-.24,2.46-.5,5.24-.57,8.29-.08,3.04-.08,6.36.23,9.84.31,3.49.82,7.16,1.82,10.86.01.04.03.08.04.13-.63-.99-2.49-3.71-2.66-3.9-2.34-2.71-8.47-6.57-12.16-5-2.66,1.13-3.44,4.32-2.1,6.75,1.37,2.48,4.63,3.71,7.28,4.1Z"/>
      <path class="cls-14" d="m81.24,330.34c.06.04,1.28-4.68,1.32-4.99.49-3.55-.64-10.7-4.25-12.45-2.6-1.26-5.51.26-6.46,2.86-.97,2.66.26,5.93,1.71,8.18,1.71,2.64,7.67,6.39,7.68,6.4Z"/>
    </g>
  </g>
  <g id="Graphics_2" data-name="Graphics 2">
    <path class="cls-17" d="m45.75,212.38c-9.22,0-16.71,7.5-16.71,16.71,0,5.29,2.47,10,6.32,13.06l-4.42,7.78c-1.37.01-2.69.71-3.43,1.98l-12.02,20.81c-1.11,1.91-.45,4.36,1.46,5.46.63.36,1.32.54,2,.54,1.38,0,2.73-.72,3.47-2l12.02-20.81c.74-1.29.67-2.81-.02-4.01l4.35-7.66c2.13.99,4.49,1.55,6.99,1.55,9.22,0,16.71-7.5,16.71-16.71s-7.5-16.71-16.71-16.71Zm0,30.43c-7.56,0-13.71-6.15-13.71-13.71s6.15-13.71,13.71-13.71,13.71,6.15,13.71,13.71-6.15,13.71-13.71,13.71Z"/>
    <path class="cls-17" d="m359.39,35.61c-2.25,8.94,3.19,18.04,12.12,20.29,5.13,1.29,10.3.04,14.21-2.93l6.46,6.19c-.32,1.33.03,2.79,1.09,3.81l17.24,16.75c1.58,1.54,4.12,1.5,5.66-.08.51-.52.84-1.15,1.01-1.81.34-1.34-.03-2.82-1.09-3.85l-17.24-16.75c-1.07-1.04-2.56-1.34-3.89-.96l-6.36-6.09c1.48-1.82,2.6-3.98,3.21-6.4,2.25-8.94-3.18-18.04-12.12-20.29-8.94-2.25-18.04,3.19-20.29,12.12Zm29.5,7.44c-1.85,7.33-9.32,11.79-16.65,9.95-7.33-1.85-11.79-9.32-9.95-16.65,1.85-7.33,9.32-11.79,16.65-9.95,7.33,1.85,11.79,9.32,9.94,16.65Z"/>
    <g class="cls-18">
      <circle class="cls-7" cx="390.34" cy="215.5" r="17.62" transform="translate(-28.8 63.42) rotate(-8.96)"/>
      <path class="cls-7" d="m396.08,230.79l2.82-2.25-.28-1.41-.85-2.54-1.69-1.97-6.2-1.97s-.85.28-2.54,1.13-1.69.28-2.82.28-2.54-.85-2.54-.85l-1.97-3.38,1.41-3.38,1.69-1.97.56-3.1,2.25-5.92.56-3.94c-.09-.49-.28-.83-.53-1.07-5.64,1.44-10.17,5.59-12.15,10.99-.23,1.14-.27,1.91-.27,1.91l.28,3.1,1.13,1.69,2.25,1.97,1.41,1.97,2.54,3.94,2.82,1.13,1.97,2.54v4.85c.33.08.65.17.98.24,1.02.03,2.59.11,3.42.34.28,0,.55-.03.82-.04,1.77-.39,4.92-2.29,4.92-2.29Z"/>
      <path class="cls-7" d="m397.43,199.38l-.51.71-.85,3.1s-1.97,2.82-.84,4.51c1.13,1.69,3.66,3.1,3.66,3.1h2.54l2.25-.85s.84-.28.84,1.69,1.97,5.07,1.97,5.07l1.03,2.59c.27-1.22.42-2.49.42-3.79,0-7.2-4.33-13.39-10.52-16.12Z"/>
    </g>
    <g class="cls-18">
      <circle class="cls-7" cx="81.79" cy="62.06" r="17.62"/>
      <path class="cls-7" d="m87.53,77.35l2.82-2.25-.28-1.41-.85-2.54-1.69-1.97-6.2-1.97s-.85.28-2.54,1.13c-1.69.85-1.69.28-2.82.28s-2.54-.85-2.54-.85l-1.97-3.38,1.41-3.38,1.69-1.97.56-3.1,2.25-5.92.56-3.94c-.09-.49-.28-.83-.53-1.07-5.64,1.44-10.17,5.59-12.15,10.99-.23,1.14-.27,1.91-.27,1.91l.28,3.1,1.13,1.69,2.25,1.97,1.41,1.97,2.54,3.94,2.82,1.13,1.97,2.54v4.85c.33.08.65.17.98.24,1.02.03,2.59.11,3.42.34.28,0,.55-.03.82-.04,1.77-.39,4.92-2.29,4.92-2.29Z"/>
      <path class="cls-7" d="m88.89,45.94l-.51.71-.85,3.1s-1.97,2.82-.84,4.51c1.13,1.69,3.66,3.1,3.66,3.1h2.54l2.25-.85s.84-.28.84,1.69,1.97,5.07,1.97,5.07l1.03,2.59c.27-1.22.42-2.49.42-3.79,0-7.2-4.33-13.39-10.52-16.12Z"/>
    </g>
    <g class="cls-18">
      <circle class="cls-7" cx="100.83" cy="255.91" r="24.88" transform="translate(-58.56 31.74) rotate(-13.91)"/>
      <path class="cls-7" d="m108.94,277.5l3.98-3.18-.4-1.99-1.19-3.58-2.39-2.78-8.75-2.78s-1.19.4-3.58,1.59c-2.39,1.19-2.39.4-3.98.4s-3.58-1.19-3.58-1.19l-2.78-4.77,1.99-4.77,2.39-2.78.8-4.38,3.18-8.35.8-5.57c-.13-.69-.39-1.17-.76-1.51-7.96,2.04-14.36,7.89-17.16,15.51-.33,1.61-.38,2.7-.38,2.7l.4,4.38,1.59,2.39,3.18,2.78,1.99,2.78,3.58,5.57,3.98,1.59,2.78,3.58v6.85c.46.12.92.24,1.39.34,1.44.04,3.65.16,4.83.48.39,0,.77-.04,1.16-.06,2.5-.54,6.94-3.23,6.94-3.23Z"/>
      <path class="cls-7" d="m110.85,233.15l-.72,1-1.19,4.38s-2.78,3.98-1.19,6.36c1.59,2.39,5.17,4.38,5.17,4.38h3.58l3.18-1.19s1.19-.4,1.19,2.39,2.78,7.16,2.78,7.16l1.46,3.65c.38-1.73.59-3.52.59-5.36,0-10.17-6.11-18.9-14.86-22.76Z"/>
    </g>
    <g class="cls-18">
      <path class="cls-16" d="m92.09,300.94v7.32h-1.81v-16.27h1.81v7.32h4v-7.32h1.81v16.27h-1.81v-7.32h-4Z"/>
      <path class="cls-16" d="m102.1,308.26v-14.62h-3v-1.65h7.79v1.65h-3v14.62h-1.79Z"/>
      <path class="cls-16" d="m110.47,308.26v-14.62h-3v-1.65h7.79v1.65h-3v14.62h-1.79Z"/>
      <path class="cls-16" d="m120.05,291.99c2.56,0,3.65,1.51,3.65,3.98v1.95c0,2.58-1.21,3.93-3.79,3.93h-1.6v6.42h-1.81v-16.27h3.56Zm-.14,8.23c1.35,0,2-.63,2-2.19v-2.16c0-1.49-.54-2.23-1.86-2.23h-1.74v6.58h1.6Z"/>
      <path class="cls-16" d="m126.86,297.15v2.25h-1.74v-2.25h1.74Zm0,8.86v2.25h-1.74v-2.25h1.74Z"/>
      <path class="cls-16" d="m136.16,291.99l-6.42,16.27h-1.58l6.42-16.27h1.58Z"/>
      <path class="cls-16" d="m140.71,291.99l-6.42,16.27h-1.58l6.42-16.27h1.58Z"/>
      <path class="cls-16" d="m146.34,308.26h-2.49l-2.23-16.27h1.77l1.91,13.86,1.81-13.83h1.79l1.79,13.86,1.84-13.88h1.58l-2.21,16.27h-2.39l-1.56-11.04-1.6,11.04Z"/>
      <path class="cls-16" d="m159.89,308.26h-2.49l-2.23-16.27h1.77l1.91,13.86,1.81-13.83h1.79l1.79,13.86,1.84-13.88h1.58l-2.21,16.27h-2.39l-1.56-11.04-1.6,11.04Z"/>
      <path class="cls-16" d="m173.44,308.26h-2.49l-2.23-16.27h1.77l1.91,13.86,1.81-13.83h1.79l1.79,13.86,1.84-13.88h1.58l-2.21,16.27h-2.39l-1.56-11.04-1.6,11.04Z"/>
      <path class="cls-16" d="m183.48,306.01v2.25h-1.74v-2.25h1.74Z"/>
      <path class="cls-16" d="m187.09,306.01v2.25h-1.74v-2.25h1.74Z"/>
      <path class="cls-16" d="m190.69,306.01v2.25h-1.74v-2.25h1.74Z"/>
    </g>
    <g class="cls-18">
      <path class="cls-16" d="m357.75,95.36v7.32h-1.81v-16.27h1.81v7.32h4v-7.32h1.81v16.27h-1.81v-7.32h-4Z"/>
      <path class="cls-16" d="m367.77,102.68v-14.62h-3v-1.65h7.79v1.65h-3v14.62h-1.79Z"/>
      <path class="cls-16" d="m376.13,102.68v-14.62h-3v-1.65h7.79v1.65h-3v14.62h-1.79Z"/>
      <path class="cls-16" d="m385.71,86.41c2.56,0,3.65,1.51,3.65,3.98v1.95c0,2.58-1.21,3.93-3.79,3.93h-1.6v6.42h-1.81v-16.27h3.56Zm-.14,8.23c1.35,0,2-.63,2-2.19v-2.16c0-1.49-.54-2.23-1.86-2.23h-1.74v6.58h1.6Z"/>
      <path class="cls-16" d="m392.52,91.57v2.26h-1.74v-2.26h1.74Zm0,8.86v2.26h-1.74v-2.26h1.74Z"/>
      <path class="cls-16" d="m401.82,86.41l-6.42,16.27h-1.58l6.42-16.27h1.58Z"/>
      <path class="cls-16" d="m406.38,86.41l-6.42,16.27h-1.58l6.42-16.27h1.58Z"/>
      <path class="cls-16" d="m412,102.68h-2.49l-2.23-16.27h1.77l1.91,13.86,1.81-13.83h1.79l1.79,13.86,1.84-13.88h1.58l-2.21,16.27h-2.39l-1.56-11.04-1.6,11.04Z"/>
      <path class="cls-16" d="m425.55,102.68h-2.49l-2.23-16.27h1.77l1.91,13.86,1.81-13.83h1.79l1.79,13.86,1.84-13.88h1.58l-2.21,16.27h-2.39l-1.56-11.04-1.6,11.04Z"/>
      <path class="cls-16" d="m439.11,102.68h-2.49l-2.23-16.27h1.77l1.91,13.86,1.81-13.83h1.79l1.79,13.86,1.84-13.88h1.58l-2.21,16.27h-2.39l-1.56-11.04-1.6,11.04Z"/>
      <path class="cls-16" d="m449.15,100.43v2.26h-1.74v-2.26h1.74Z"/>
      <path class="cls-16" d="m452.75,100.43v2.26h-1.74v-2.26h1.74Z"/>
      <path class="cls-16" d="m456.35,100.43v2.26h-1.74v-2.26h1.74Z"/>
    </g>
    <g class="cls-18">
      <path class="cls-16" d="m38.75,24.36v7.32h-1.81V15.41h1.81v7.32h4v-7.32h1.81v16.27h-1.81v-7.32h-4Z"/>
      <path class="cls-16" d="m48.77,31.68v-14.62h-3v-1.65h7.79v1.65h-3v14.62h-1.79Z"/>
      <path class="cls-16" d="m57.13,31.68v-14.62h-3v-1.65h7.79v1.65h-3v14.62h-1.79Z"/>
      <path class="cls-16" d="m66.71,15.41c2.56,0,3.65,1.51,3.65,3.98v1.95c0,2.58-1.21,3.93-3.79,3.93h-1.6v6.42h-1.81V15.41h3.56Zm-.14,8.23c1.35,0,2-.63,2-2.19v-2.16c0-1.49-.54-2.23-1.86-2.23h-1.74v6.58h1.6Z"/>
      <path class="cls-16" d="m73.52,20.57v2.26h-1.74v-2.26h1.74Zm0,8.86v2.26h-1.74v-2.26h1.74Z"/>
      <path class="cls-16" d="m82.82,15.41l-6.42,16.27h-1.58l6.42-16.27h1.58Z"/>
      <path class="cls-16" d="m87.38,15.41l-6.42,16.27h-1.58l6.42-16.27h1.58Z"/>
      <path class="cls-16" d="m93,31.68h-2.49l-2.23-16.27h1.77l1.91,13.86,1.81-13.83h1.79l1.79,13.86,1.84-13.88h1.58l-2.21,16.27h-2.39l-1.56-11.04-1.6,11.04Z"/>
      <path class="cls-16" d="m106.55,31.68h-2.49l-2.23-16.27h1.77l1.91,13.86,1.81-13.83h1.79l1.79,13.86,1.84-13.88h1.58l-2.21,16.27h-2.39l-1.56-11.04-1.6,11.04Z"/>
      <path class="cls-16" d="m120.11,31.68h-2.49l-2.23-16.27h1.77l1.91,13.86,1.81-13.83h1.79l1.79,13.86,1.84-13.88h1.58l-2.21,16.27h-2.39l-1.56-11.04-1.6,11.04Z"/>
      <path class="cls-16" d="m130.15,29.43v2.26h-1.74v-2.26h1.74Z"/>
      <path class="cls-16" d="m133.75,29.43v2.26h-1.74v-2.26h1.74Z"/>
      <path class="cls-16" d="m137.35,29.43v2.26h-1.74v-2.26h1.74Z"/>
    </g>
  </g>
  <g id="Graphic_1" data-name="Graphic 1">
    <path class="cls-14" d="m221.56,6.65c-71.97,0-130.52,58.55-130.52,130.52s58.55,130.52,130.52,130.52,130.52-58.55,130.52-130.52S293.53,6.65,221.56,6.65Zm123.47,127.02h-56.99c-.3-22.67-3.49-44.38-9.23-63.4,10.83-5.29,20.97-12.11,30.1-20.35,21.57,21.59,35.2,51.11,36.12,83.75Zm-123.47,127.02c-15.44,0-30.15-12.52-41.43-35.26-2.7-5.45-5.11-11.33-7.23-17.54,15.21-6.52,31.72-9.95,48.67-9.95s33.45,3.43,48.67,9.95c-2.13,6.21-4.53,12.09-7.23,17.54-11.28,22.74-26,35.26-41.43,35.26Zm0-69.75c-17.69,0-34.91,3.54-50.82,10.26-5.39-18.15-8.37-38.86-8.67-60.53h118.97c-.29,21.66-3.28,42.38-8.67,60.53-15.91-6.72-33.13-10.26-50.82-10.26Zm-59.49-57.27c.29-21.64,3.27-42.34,8.65-60.47,15.91,6.73,33.14,10.27,50.83,10.27s34.92-3.54,50.83-10.27c5.38,18.14,8.36,38.83,8.65,60.47h-118.97ZM221.56,13.65c15.44,0,30.15,12.52,41.43,35.26,2.71,5.46,5.12,11.36,7.25,17.59-15.22,6.53-31.73,9.96-48.68,9.96s-33.47-3.44-48.68-9.96c2.13-6.23,4.54-12.13,7.25-17.59,11.28-22.74,26-35.26,41.43-35.26Zm82.25,31.45c-8.29,7.4-17.43,13.58-27.19,18.45-2.17-6.27-4.62-12.22-7.36-17.74-6.42-12.94-14-22.89-22.31-29.52,21.54,4.52,41.03,14.66,56.86,28.82Zm-129.95.7c-2.74,5.52-5.19,11.47-7.36,17.74-9.76-4.86-18.9-11.04-27.19-18.45,15.83-14.16,35.32-24.3,56.86-28.82-8.32,6.64-15.9,16.58-22.32,29.52Zm-39.65,4.12c9.14,8.24,19.27,15.06,30.1,20.35-5.75,19.02-8.93,40.73-9.23,63.4h-56.99c.91-32.64,14.55-62.16,36.12-83.75Zm-36.12,90.75h56.99c.3,22.7,3.49,44.42,9.25,63.45-10.83,5.29-20.96,12.1-30.09,20.33-21.59-21.6-35.23-51.13-36.15-83.78Zm41.26,88.61c8.28-7.39,17.42-13.57,27.17-18.42,2.17,6.25,4.61,12.18,7.34,17.69,6.42,12.94,14,22.89,22.32,29.52-21.52-4.51-41-14.65-56.83-28.79Zm129.91-.73c2.73-5.51,5.17-11.44,7.34-17.69,9.75,4.86,18.89,11.03,27.17,18.42-15.83,14.14-35.3,24.28-56.82,28.79,8.32-6.64,15.9-16.58,22.31-29.52Zm39.62-4.09c-9.13-8.23-19.26-15.04-30.09-20.33,5.76-19.03,8.95-40.76,9.25-63.45h56.99c-.91,32.66-14.56,62.19-36.15,83.78Z"/>
  </g>
  <g id="Url">
    <g>
      <rect class="cls-17" x="141.7" y="121.99" width="257.88" height="42.71"/>
      <rect class="cls-17" x="41.2" y="121.99" width="90.67" height="42.71" rx="7.31" ry="7.31"/>
      <rect class="cls-6" x="144.7" y="114.99" width="257.88" height="42.71"/>
      <g>
        <g>
          <path class="cls-14" d="m185.22,138.28v10.05h-2.49v-22.33h2.49v10.05h5.49v-10.05h2.49v22.33h-2.49v-10.05h-5.49Z"/>
          <path class="cls-14" d="m198.97,148.33v-20.07h-4.12v-2.27h10.69v2.27h-4.12v20.07h-2.46Z"/>
          <path class="cls-14" d="m210.45,148.33v-20.07h-4.12v-2.27h10.69v2.27h-4.12v20.07h-2.46Z"/>
          <path class="cls-14" d="m223.6,126c3.51,0,5.01,2.07,5.01,5.46v2.68c0,3.54-1.66,5.39-5.2,5.39h-2.2v8.81h-2.49v-22.33h4.88Zm-.19,11.3c1.85,0,2.74-.86,2.74-3v-2.97c0-2.04-.73-3.06-2.55-3.06h-2.39v9.03h2.2Z"/>
          <path class="cls-14" d="m232.94,133.08v3.09h-2.39v-3.09h2.39Zm0,12.16v3.09h-2.39v-3.09h2.39Z"/>
          <path class="cls-14" d="m245.7,126l-8.81,22.33h-2.17l8.81-22.33h2.17Z"/>
          <path class="cls-14" d="m251.96,126l-8.81,22.33h-2.17l8.81-22.33h2.17Z"/>
          <path class="cls-14" d="m259.68,148.33h-3.41l-3.06-22.33h2.42l2.62,19.02,2.49-18.98h2.46l2.46,19.02,2.52-19.05h2.17l-3.03,22.33h-3.29l-2.14-15.16-2.2,15.16Z"/>
          <path class="cls-14" d="m278.27,148.33h-3.41l-3.06-22.33h2.43l2.62,19.02,2.49-18.98h2.46l2.46,19.02,2.52-19.05h2.17l-3.03,22.33h-3.29l-2.14-15.16-2.2,15.16Z"/>
          <path class="cls-14" d="m296.87,148.33h-3.41l-3.06-22.33h2.43l2.62,19.02,2.49-18.98h2.46l2.46,19.02,2.52-19.05h2.17l-3.03,22.33h-3.29l-2.14-15.16-2.2,15.16Z"/>
          <path class="cls-14" d="m310.65,145.24v3.09h-2.39v-3.09h2.39Z"/>
          <path class="cls-14" d="m315.6,145.24v3.09h-2.39v-3.09h2.39Z"/>
          <path class="cls-14" d="m320.54,145.24v3.09h-2.39v-3.09h2.39Z"/>
        </g>
        <g>
          <circle class="cls-2" cx="161.55" cy="136.34" r="12.12" transform="translate(-26.22 39.24) rotate(-12.82)"/>
          <path class="cls-6" d="m165.5,146.86l1.94-1.55-.19-.97-.58-1.74-1.16-1.36-4.26-1.36s-.58.19-1.74.78c-1.16.58-1.16.19-1.94.19s-1.74-.58-1.74-.58l-1.36-2.33.97-2.33,1.16-1.36.39-2.13,1.55-4.07.39-2.71c-.06-.34-.19-.57-.37-.74-3.88.99-7,3.85-8.36,7.56-.16.78-.19,1.32-.19,1.32l.19,2.13.78,1.16,1.55,1.36.97,1.36,1.74,2.71,1.94.78,1.36,1.74v3.34c.22.06.45.12.68.16.7.02,1.78.08,2.35.23.19,0,.38-.02.57-.03,1.22-.27,3.38-1.57,3.38-1.57Z"/>
          <path class="cls-6" d="m166.44,125.25l-.35.49-.58,2.13s-1.36,1.94-.58,3.1c.78,1.16,2.52,2.13,2.52,2.13h1.74l1.55-.58s.58-.19.58,1.16,1.36,3.49,1.36,3.49l.71,1.78c.18-.84.29-1.71.29-2.61,0-4.96-2.98-9.21-7.24-11.09Z"/>
        </g>
      </g>
      <g>
        <rect class="cls-6" x="44.2" y="114.99" width="90.67" height="42.71" rx="7.31" ry="7.31"/>
        <path class="cls-3" d="m51.76,138.42l21.27,11.14c1.14.6,2.5-.23,2.5-1.51v-22.27c0-1.28-1.36-2.11-2.5-1.51l-21.27,11.14c-1.22.64-1.22,2.39,0,3.03Z"/>
        <path class="cls-3" d="m125.28,138.42l-21.27,11.14c-1.14.6-2.5-.23-2.5-1.51v-22.27c0-1.28,1.36-2.11,2.5-1.51l21.27,11.14c1.22.64,1.22,2.39,0,3.03Z"/>
      </g>
    </g>
  </g>
  <g id="Character">
    <path class="cls-14" d="m386.23,287.27h-112.9c-4.99,0-9.21,3.69-9.87,8.63l-16.84,125.37h133l16.48-122.71c.8-5.97-3.84-11.29-9.87-11.29Z"/>
    <g>
      <g>
        <path class="cls-2" d="m170,376.88c7.28,4.16,21.84,5.2,23.92,3.12,2.08-2.08,20.1-33.62,20.1-33.62,0,0,2.08,26.69,2.08,37.09,0,7.05-3.82,26.19-6.28,37.8h116.82l4.2-39.19s5.89,8.67,14.21,15.6c8.32,6.93,16.98,5.2,25.65.35,8.67-4.85,12.82-15.25,10.4-25.65-2.43-10.4-22.53-55.11-25.65-61.01-3.12-5.89-4.16-20.1-8.32-20.45-4.16-.35-45.06-15.25-45.06-15.25,0,0-24.96-6.93-28.77-5.89-3.81,1.04-33.62,2.77-35.36,2.77s-22.18,1.73-27.04,4.16c-4.85,2.43-12.83,16.98-14.56,22.88-1.73,5.89-38.13,52.34-39.17,59.97-1.04,7.63,5.55,13.17,12.82,17.33Z"/>
        <path class="cls-9" d="m278.9,383.38c-10.02,7.54-25.55,18.78-37.11,25.12"/>
        <path class="cls-9" d="m288.93,375.67s-1.39,1.1-3.76,2.93"/>
        <path class="cls-9" d="m271.03,395.96s-18.5,13.13-28.65,17.91"/>
        <path class="cls-9" d="m330.86,319.88c.56-1.25,1.16-2.55,1.79-3.9"/>
        <path class="cls-9" d="m323.07,342.12s1.17-6.46,5.93-17.93"/>
        <path class="cls-9" d="m319.59,340.38s-.44-7.4,2.18-12.2"/>
        <line class="cls-9" x1="214.02" y1="346.37" x2="207.64" y2="325.57"/>
      </g>
      <g>
        <path class="cls-6" d="m237.13,294.98s.63,5.35,1.26,7.87c.63,2.52,1.57,10.08,1.57,10.08,0,0,5.04-7.56,6.3-9.13,1.26-1.57-2.83-10.08-2.83-10.08l-6.3,1.26Z"/>
        <path class="cls-6" d="m243.74,283.64l-6.61,11.34s5.98,7.56,11.97,11.97c5.98,4.41,15.12,11.65,15.12,11.65,0,0-4.41-14.49-5.35-18.58-.94-4.09-8.82-17.95-8.82-17.95,0,0-4.09-1.57-6.3,1.57Z"/>
        <path class="cls-6" d="m303.58,251.52s1.26,2.52-.63,3.46c-1.89.94-5.98,2.2-5.98,2.2l.31,14.49s-13.23,23.62-17.32,29.29c-4.09,5.67-15.75,17.64-15.75,17.64,0,0-10.88-14.96-12.14-18.74s-6.1-17.86-6.1-17.86c0,0,19.82-2.14,23.91-4.98,4.09-2.83,11.34-11.02,13.23-18.58,1.89-7.56-2.52-11.97,3.46-16.38,5.98-4.41,9.76-6.3,12.28-5.04,2.52,1.26,4.72,14.49,4.72,14.49Z"/>
        <path class="cls-3" d="m292.44,252.05l4.53,5.14s4.31,1.42,6.61-5.67c2.31-7.09-4.72-14.49-4.72-14.49l-6.41,15.02Z"/>
        <polygon class="cls-6" points="273.66 297.82 264.22 318.6 283.43 305.38 273.66 297.82"/>
        <path class="cls-6" d="m297.57,264.23s-7.53,12.8-11.31,18.16c-3.78,5.35-12.6,15.43-12.6,15.43l11.34,17.64s10.57-19.53,13.86-25.83c3.78-7.24,4.41-12.6,4.41-12.6l-5.7-12.8Z"/>
        <path class="cls-6" d="m298.54,246.17s-1.89,4.41-2.52,5.35c-.63.94-5.67,3.46-5.67,3.46l-2.2-2.83.31-18.27v-14.49s9.76,2.83,11.34,8.5-1.26,18.27-1.26,18.27Z"/>
        <g>
          <path class="cls-1" d="m232.72,225.38s-4.41-3.78-5.98-8.5c-1.57-4.72-3.78-11.02,1.26-18.27,5.04-7.24,19.84-25.2,36.22-25.2s35.9,10.71,44.41,17.32c8.5,6.61,15.12,19.53,17.95,25.2,2.83,5.67-.63,9.76-1.89,12.28-2.76,5.52-1.33,12.45-3.89,18.09-3.3,7.25-11.18,7.02-17.84,8.68-1.26.31-3.78-.94-5.67-5.98-1.89-5.04-1.57-14.49-7.24-24.88-5.67-10.39-37.79-21.1-57.32,1.26Z"/>
          <path class="cls-9" d="m323.21,229.44s-1.1-21.08-12.05-35.05"/>
          <g>
            <path class="cls-8" d="m251.18,182.58c4.49-3.11,8.09-5.28,14.02-6.38"/>
            <path class="cls-8" d="m232.42,205.75s5.91-14.77,15.19-20.67"/>
            <path class="cls-8" d="m266.48,182.17c5.2-1.65,8.38-2.48,8.38-2.48"/>
            <path class="cls-8" d="m238.6,202.53s8.06-13.43,18.54-17.19c1.54-.55,3.02-1.07,4.41-1.54"/>
            <path class="cls-8" d="m249.88,203.06s3.76-7.25,12.63-11.28c8.86-4.03,16.12-5.91,21.76-5.91"/>
            <path class="cls-8" d="m278.65,192.41c2.28-.76,3.73-1.16,3.73-1.16"/>
            <path class="cls-8" d="m258.21,202.79s7.52-5.37,13.43-7.79c.96-.39,1.89-.76,2.78-1.09"/>
            <path class="cls-8" d="m286.41,216.76s10.21-4.57,19.34-4.84"/>
          </g>
        </g>
        <g>
          <path class="cls-6" d="m242.48,205.54s-11.34,1.89-11.97,9.76c-.63,7.87.63,21.42,1.89,25.2,1.26,3.78,0,15.75-1.26,24.25-1.26,8.5,5.04,17.32,10.08,20.47,5.04,3.15,12.6,4.72,21.73,1.89,9.13-2.83,17.95-8.19,21.73-13.54s3.46-6.3,4.09-7.24c.63-.94,1.57-5.98,1.57-11.34v-18.9c0-4.72-.31-11.97-.31-11.97,0,0-17.64-25.51-47.56-18.58Z"/>
          <g>
            <path class="cls-3" d="m277.65,212.35c.54,4.14,2.01,11.78,5.78,13.66,4.41,2.2,4.41,5.35,3.46,10.71-.94,5.35-1.89,17.95-5.98,21.42-4.09,3.46-6.3,5.67-11.02,3.78s-6.61-4.72-13.86-5.04c-7.24-.32-11.34-1.26-14.49.31s-5.04,3.15-5.04,3.15c0,0-2.09-3.14-3.94-7.47-.34,3.99-.88,8.24-1.42,11.87-1.26,8.5,5.04,17.32,10.08,20.47s12.6,4.72,21.73,1.89c9.13-2.83,17.95-8.19,21.73-13.54s3.46-6.3,4.09-7.24c.63-.94,1.57-5.98,1.57-11.34v-18.9c0-4.72,3.22-4.7,3.22-4.7,0,0-1.34-8.56-15.92-19.04Z"/>
            <path class="cls-3" d="m238.69,206.62c1.42,2.28,5.36,7.42,11.98,7.42s12.42-4.89,15.62-7.42c-6.69-2.28-14.68-3.2-23.81-1.08,0,0-1.69.28-3.79,1.08Z"/>
          </g>
          <path class="cls-9" d="m247.21,228.84l1.57,5.67s-1.57,10.08-1.89,14.17c-.31,4.09-2.83,8.19,4.41,8.19s8.5-3.15,8.5-5.35"/>
          <path class="cls-12" d="m257.29,226.95s.94-1.89,7.24-1.89,10.39,4.09,10.39,4.09"/>
          <path class="cls-12" d="m243.11,227.58s-4.72-2.83-9.76,0"/>
          <path class="cls-11" d="m243.8,262.05c3.22,1.27,9.56,2.81,16.95-.45"/>
          <ellipse class="cls-14" cx="266.26" cy="235.93" rx="2.05" ry="2.68"/>
          <ellipse class="cls-14" cx="241.85" cy="235.93" rx="2.05" ry="2.68"/>
          <path class="cls-9" d="m246.89,238.92s-2.2,2.2-4.41,3.15"/>
          <path class="cls-9" d="m261.7,239.24s2.52,4.09,5.98,3.78"/>
        </g>
        <path class="cls-6" d="m257.11,303.15s-4.33-2.45-6.79-4.91-3.03-5.92-5.2-2.89c-2.17,3.03-1.15,5.63,1.73,7.65s11.12,3.32,11.12,3.32c0,0,2.17-1.59-.87-3.18Z"/>
      </g>
      <g>
        <g>
          <path class="cls-6" d="m258.12,304.01s-10.97-4.04-12.85-3.75c-1.88.29-3.9,1.88-4.33,4.33-.43,2.45,1.73,4.19,1.73,4.19,0,0-1.88,3.32-1.88,4.48s.43,2.74.43,2.74c0,0-2.31,2.31-2.31,4.04s1.88,3.61,1.88,3.61c0,0-.72,2.45.43,4.76s8.23,8.81,12.42,10.68c4.19,1.88,11.55,3.61,11.55,3.61l17.9,11.55,10.25-17.76s-11.98-8.52-13.71-10.68c-1.73-2.17-5.77-8.95-7.07-13.14-1.3-4.19-13.71-8.66-13.71-8.66h-.72Z"/>
          <line class="cls-9" x1="242.67" y1="308.78" x2="249.45" y2="312.51"/>
          <line class="cls-9" x1="241.23" y1="316" x2="247.95" y2="320.76"/>
          <line class="cls-9" x1="240.79" y1="323.65" x2="245.45" y2="327.26"/>
        </g>
        <g>
          <path class="cls-6" d="m235.03,339.01h-20.16c-1.34,0-2.47-1-2.63-2.33l-4.68-38.7c-.19-1.58,1.04-2.97,2.63-2.97h29.52c1.59,0,2.82,1.39,2.63,2.97l-4.68,38.7c-.16,1.33-1.29,2.33-2.63,2.33Z"/>
          <g>
            <path class="cls-10" d="m211.81,292.55s3.04-2.23,2.63-6.48c-.4-4.25-5.06-4.05-5.06-8.7s2.43-4.65,3.64-9.51"/>
            <path class="cls-10" d="m223.34,292.34s1.62-1.21,1.62-4.86-2.83-3.04-3.44-7.08"/>
          </g>
        </g>
        <polygon class="cls-2" points="290.63 332.86 277.11 353.31 290.28 363.36 304.14 340.13 290.63 332.86"/>
        <path class="cls-2" d="m377.28,362.66s6.24,16.98,6.93,22.88c.69,5.89-4.51,18.72-7.97,23.57-3.47,4.85-24.26,0-39.51-7.28-15.25-7.28-44.02-26.69-46.45-29.46-2.43-2.77,0-9.01,0-9.01l13.86-23.22s2.43-2.77,5.55-2.43c3.12.35,48.87,20.8,48.87,20.8"/>
      </g>
      <path class="cls-2" d="m160.3,353.31s-8.67,9.01-10.75,19.76c-2.08,10.75,2.43,18.37,4.85,23.57,2.43,5.2,4.16,7.28,7.97,7.63,3.81.35,24.96-2.77,26.34-6.24s5.89-11.44,5.2-20.45-11.44-19.41-20.8-18.72"/>
      <path class="cls-2" d="m162.38,404.26s-1.73-8.67,11.09-12.83c12.82-4.16,17.33-.35,16.64,4.51-.69,4.85-20.1,12.82-27.73,8.32Z"/>
      <path class="cls-6" d="m191.22,396.82s3.74,4.12,7.49,4.12,9.74,6.74,12.36,8.61c2.62,1.87,8.61,2.25,6.74,7.11-1.87,4.87-9.36,1.87-12.73,0-3.37-1.87-5.24-5.62-7.86-5.62s-5.24.75-12.36,2.62c-7.11,1.87-15.73-1.12-10.86-6.74,4.87-5.62,17.22-10.11,17.22-10.11Z"/>
      <g>
        <path class="cls-6" d="m164.64,403.94s-5.24,0-6.37,4.67c-1.12,4.67,0,11.13,4.49,12.93,4.49,1.8,2.25-3.23,2.25-6.46v-8.98l-.37-2.15Z"/>
        <path class="cls-6" d="m172.13,397.94s-8.61,2.62-8.61,7.49,2.62,14.98,6.37,15.73c3.74.75,4.12-2.25,3.37-7.86-.75-5.62-1.12-15.35-1.12-15.35Z"/>
        <path class="cls-6" d="m181.12,394.57s-5.99-3.74-8.24,1.12c-2.25,4.87-1.12,16.85,1.12,20.22,2.25,3.37,7.11,2.62,7.49-2.62.37-5.24-.37-18.72-.37-18.72Z"/>
        <path class="cls-6" d="m192.34,395.49c.02-2.4-1.37-4.68-3.62-5.51-.86-.32-1.89-.46-3.11-.27-4.87.75-5.62,4.12-4.87,7.11.75,3-.37,17.22,2.25,19.84s7.11,1.12,8.24-1.5c.9-2.09,1.08-14.69,1.11-19.68Z"/>
      </g>
    </g>
    <line class="cls-9" x1="438.95" y1="421.27" x2="16.29" y2="421.27"/>
  </g>
  <g id="Device">
    <g>
      <polygon class="cls-5" points="256.51 433.02 152.41 419.02 83.7 420.37 163.25 445.14 256.51 433.02"/>
      <polygon class="cls-9" points="175.7 423.21 162.13 424.29 191.17 428.63 208.54 428.09 175.7 423.21"/>
      <polyline class="cls-9" points="159.96 425.38 203.38 432.43 161.32 434.88"/>
      <polygon class="cls-5" points="64.2 335.02 83.7 420.37 163.25 445.14 141.65 338.71 64.2 335.02"/>
      <path class="cls-4" d="m146.07,360.5c-11.02,10.47-23.64,27.95-38.12,45.43-8.45,10.19-17.28,13.13-24.54,13.21l.28,1.23,79.56,24.76-17.18-84.64Z"/>
      <path class="cls-6" d="m113.5,379.82c1.09,4.71-.46,9.09-3.45,9.78s-6.31-2.56-7.4-7.27c-1.09-4.71.46-9.09,3.45-9.78s6.31,2.56,7.4,7.27Z"/>
      <polygon class="cls-4" points="163.25 445.14 256.51 437.23 256.51 433.02 161.67 438.29 163.25 445.14"/>
    </g>
  </g>
</svg>