<?xml version="1.0" encoding="UTF-8"?>
<svg xmlns="http://www.w3.org/2000/svg" viewBox="0 0 464.45 413.4">
  <defs>
    <style>
      .cls-1 {
        fill: #878787;
      }

      .cls-1, .cls-2, .cls-3, .cls-4, .cls-5, .cls-6, .cls-7, .cls-8, .cls-9, .cls-10, .cls-11, .cls-12 {
        stroke-linecap: round;
        stroke-linejoin: round;
      }

      .cls-1, .cls-2, .cls-3, .cls-4, .cls-5, .cls-6, .cls-7, .cls-10, .cls-11, .cls-12 {
        stroke: #263238;
      }

      .cls-2 {
        fill: #757575;
      }

      .cls-3, .cls-13 {
        fill: #41c7a8;
      }

      .cls-4, .cls-14, .cls-11, .cls-15, .cls-16 {
        fill: #263238;
      }

      .cls-5 {
        fill: #c9c9c9;
      }

      .cls-6, .cls-17, .cls-18 {
        fill: #fff;
      }

      .cls-7 {
        fill: #919191;
      }

      .cls-8 {
        stroke: #fff;
      }

      .cls-8, .cls-9, .cls-10, .cls-12 {
        fill: none;
      }

      .cls-9 {
        stroke: #919191;
      }

      .cls-17 {
        opacity: .7;
      }

      .cls-17, .cls-14, .cls-18, .cls-15, .cls-16, .cls-13 {
        stroke-width: 0px;
      }

      .cls-14 {
        opacity: .2;
      }

      .cls-11, .cls-12 {
        stroke-width: 2px;
      }

      .cls-18 {
        opacity: .5;
      }

      .cls-15 {
        opacity: .3;
      }
    </style>
  </defs>
  <g id="Background_Simple" data-name="Background Simple">
    <g>
      <path class="cls-13" d="m459.78,193.97c-5.24-25.64-14.44-50.65-25.38-73.65-18.86-39.68-49.76-72.63-89.29-92.19C248.11-19.87,178.11.13,140.11,39.13s-27,106-68,135S2.11,216.13.11,269.13s24,93,66,106,105,55,231,31c126-24,157-91,165-139,4.03-24.15,2.62-48.93-2.33-73.16Z"/>
      <path class="cls-17" d="m459.78,193.97c-5.24-25.64-14.44-50.65-25.38-73.65-18.86-39.68-49.76-72.63-89.29-92.19C248.11-19.87,178.11.13,140.11,39.13s-27,106-68,135S2.11,216.13.11,269.13s24,93,66,106,105,55,231,31c126-24,157-91,165-139,4.03-24.15,2.62-48.93-2.33-73.16Z"/>
    </g>
  </g>
  <g id="Bookshelf">
    <g>
      <line class="cls-10" x1="139.24" y1="99.76" x2="139.24" y2="40.67"/>
      <line class="cls-10" x1="139.24" y1="395.49" x2="139.24" y2="105.64"/>
      <g>
        <g>
          <rect class="cls-5" x="155.37" y="47.65" width="9.06" height="40.15"/>
          <rect class="cls-6" x="155.37" y="53.69" width="9.06" height="3.92"/>
          <rect class="cls-6" x="155.37" y="78.59" width="9.06" height="3.92"/>
          <rect class="cls-1" x="162.32" y="47.65" width="12.68" height="40.15"/>
        </g>
        <g>
          <rect class="cls-5" x="165.03" y="47.65" width="9.06" height="40.15"/>
          <rect class="cls-6" x="165.03" y="53.69" width="9.06" height="3.92"/>
          <rect class="cls-6" x="165.03" y="78.59" width="9.06" height="3.92"/>
          <rect class="cls-1" x="171.98" y="47.65" width="12.68" height="40.15"/>
        </g>
        <g>
          <rect class="cls-5" x="174.69" y="47.65" width="9.06" height="40.15"/>
          <rect class="cls-6" x="174.69" y="53.69" width="9.06" height="3.92"/>
          <rect class="cls-6" x="174.69" y="78.59" width="9.06" height="3.92"/>
          <rect class="cls-5" x="181.64" y="47.65" width="12.68" height="40.15"/>
        </g>
        <g>
          <polygon class="cls-6" points="202.58 88.21 223.86 88.21 229.52 83.09 202.58 83.09 202.58 88.21"/>
          <polygon class="cls-6" points="227.11 88.47 226.43 87.3 202.13 87.25 202.84 88.47 227.11 88.47"/>
          <rect class="cls-5" x="191.86" y="48.04" width="9.06" height="40.15" transform="translate(-7.72 107.47) rotate(-30.04)"/>
          <rect class="cls-6" x="185.82" y="55.7" width="9.06" height="3.92" transform="translate(-3.3 103.03) rotate(-30.04)"/>
          <rect class="cls-6" x="198.29" y="77.27" width="9.06" height="3.92" transform="translate(-12.42 112.17) rotate(-30.04)"/>
          <polygon class="cls-5" points="229.37 83.44 210.15 83.39 190.05 48.63 209.27 48.68 229.37 83.44"/>
        </g>
        <g>
          <g>
            <path class="cls-3" d="m239.86,67.88s-3.5-1.25-4.5-6.75-2.75-13.25-.75-15,5.75-2.75,6.25.75-.25,10.25.5,11.75c.75,1.5,3.25.5,3.25-2.5,0-4.94-2.03-10-1.29-15.04,1.02-6.92,8-7.67,8.75-.04.42,4.24.54,8.57.54,12.83,0,1.75,3,2.75,2.75-1.5-.18-3.04,2-6.5,5-5.5s.5,14.25-.5,16.5-7.25,2.75-7.25,2.75v5.75l-7.5.25-.25-5.75s-2.5,1.5-5,1.5Z"/>
            <path class="cls-10" d="m246.61,56.92c.09,1.25.15,2.04.15,2.04"/>
            <path class="cls-10" d="m247.14,37.53s-1.65,1.14-1.52,4.57c.08,2.08.48,7.83.79,12.05"/>
            <line class="cls-10" x1="249.93" y1="49.32" x2="250.18" y2="57.69"/>
            <path class="cls-10" d="m253.59,63.12c-.97.15-1.75.15-1.75.15"/>
            <path class="cls-10" d="m258.81,49.07s-.89,1.52-.89,3.55.13,7.61-1.14,9.13c-.28.33-.67.59-1.11.8"/>
            <path class="cls-10" d="m237.07,60.31c.53,1.8,1.19,3.27,2.08,3.97,2.28,1.78,4.44.13,4.44.13"/>
            <path class="cls-10" d="m236.87,46.78s-2.54,0-1.65,4.44c.37,1.87.73,4.17,1.18,6.33"/>
            <line class="cls-10" x1="246.38" y1="63.65" x2="246.89" y2="69.1"/>
          </g>
          <polygon class="cls-6" points="259.36 69.63 258.45 77.09 257.83 82.17 257.11 88.08 239.12 88.08 238.4 82.17 237.78 77.09 236.87 69.63 259.36 69.63"/>
          <polygon class="cls-3" points="258.45 77.09 257.83 82.17 238.4 82.17 237.78 77.09 258.45 77.09"/>
        </g>
        <g>
          <rect class="cls-6" x="153.77" y="88.08" width="115.47" height="7.65"/>
          <rect class="cls-6" x="242.62" y="88.08" width="26.62" height="7.65"/>
          <g>
            <path class="cls-7" d="m240.03,95.76c12.37,4.57,10.14,13.18,10.14,13.18h11.72v-13.18h-21.85Z"/>
            <path class="cls-6" d="m243.97,95.76c12.37,4.57,10.14,13.18,10.14,13.18h11.72v-13.18h-21.85Z"/>
          </g>
          <g>
            <path class="cls-7" d="m160.78,95.76c12.37,4.57,10.14,13.18,10.14,13.18h11.72v-13.18h-21.85Z"/>
            <path class="cls-6" d="m164.72,95.76c12.37,4.57,10.14,13.18,10.14,13.18h11.72v-13.18h-21.85Z"/>
          </g>
        </g>
      </g>
    </g>
  </g>
  <g id="Picture">
    <g>
      <rect class="cls-7" x="326.59" y="49.08" width="103.56" height="143.76"/>
      <rect class="cls-13" x="331.08" y="55.32" width="94.57" height="131.28"/>
      <rect class="cls-18" x="331.08" y="55.32" width="94.57" height="131.28"/>
      <path class="cls-10" d="m351.88,176.63c-2.95,4.42-6.25,7.64-9.46,9.98h83.24V55.32h-15.33c-.66.2-1.34.41-2.02.63-15.04,4.73-30.5,18.42-39.29,43.3"/>
      <path class="cls-10" d="m367.57,103.61c-3.17,10.35-5.23,22.47-5.74,36.5-.54,14.85-3.7,25.52-7.92,33.18"/>
      <path class="cls-10" d="m416.4,88.64c-13.75,8.04-29.76,21.44-35.74,42.05-3.21,11.04-.2,20.92,5.75,29.41"/>
      <path class="cls-10" d="m389.63,164.23c8.26,9.67,20,17.26,29.51,22.37h6.5v-102.82c-1.86.87-3.84,1.86-5.9,2.97"/>
      <path class="cls-10" d="m346.81,89.54c7.24-14.75,8.03-26.46,7.17-34.22h-22.89v60.06c3.39-4.81,7.53-11.24,12.53-19.86.3-.52.6-1.04.89-1.56"/>
      <path class="cls-10" d="m355.77,146.4c-1.12,7.27-4.45,12.54-8.39,12.54-4.86,0-8.79-8.01-8.79-17.9s3.94-17.9,8.79-17.9,8.79,8.01,8.79,17.9"/>
      <path class="cls-10" d="m359.94,104.31c0,3.82-1.69,6.91-3.77,6.91s-3.77-3.09-3.77-6.91,1.69-6.91,3.77-6.91,3.77,3.09,3.77,6.91Z"/>
      <path class="cls-10" d="m407.92,133.5c3.63,1.73,6.03,4.75,6.03,8.18,0,5.38-5.9,9.73-13.19,9.73s-13.19-4.36-13.19-9.73,5.9-9.73,13.19-9.73c1.2,0,2.36.12,3.46.34"/>
      <path class="cls-10" d="m406.29,141.67c0,2.25-2.48,4.08-5.53,4.08s-5.53-1.83-5.53-4.08,2.48-4.08,5.53-4.08,5.53,1.83,5.53,4.08Z"/>
      <path class="cls-10" d="m415.21,116.87c0,3.12-3.09,5.65-6.91,5.65s-6.91-2.53-6.91-5.65,3.09-5.65,6.91-5.65,6.91,2.53,6.91,5.65Z"/>
      <ellipse class="cls-10" cx="365.28" cy="73.85" rx="4.71" ry="11.62"/>
      <path class="cls-10" d="m378.15,173.7c0,3.64-2.95,6.59-6.59,6.59s-6.59-2.95-6.59-6.59,2.95-6.59,6.59-6.59,6.59,2.95,6.59,6.59Z"/>
      <path class="cls-10" d="m408.93,75.73c0,2.25-1.83,4.08-4.08,4.08s-4.08-1.83-4.08-4.08,1.83-4.08,4.08-4.08,4.08,1.83,4.08,4.08Z"/>
      <path class="cls-10" d="m383.18,104.62c0,1.21-.98,2.2-2.2,2.2s-2.2-.98-2.2-2.2.98-2.2,2.2-2.2,2.2.98,2.2,2.2Z"/>
      <rect class="cls-10" x="331.08" y="55.32" width="94.57" height="131.28"/>
    </g>
  </g>
  <g id="Device">
    <g>
      <rect class="cls-4" x="245.41" y="242.52" width="25.69" height="9.67"/>
      <g>
        <g>
          <polygon class="cls-7" points="305.57 243.97 203.32 243.97 208.16 164.72 310.41 164.72 305.57 243.97"/>
          <polygon class="cls-4" points="302.64 243.97 200.38 243.97 205.22 164.72 307.48 164.72 302.64 243.97"/>
          <polygon class="cls-6" points="297.23 239.57 206.33 239.57 210.64 169.12 301.53 169.12 297.23 239.57"/>
        </g>
        <g>
          <g>
            <polygon class="cls-7" points="270.79 229.07 209.05 229.07 212.36 174.77 274.1 174.77 270.79 229.07"/>
            <g>
              <g>
                <path class="cls-6" d="m233.4,205.74s-12.86,5.1-12.94,6.47c-.08,1.37-2.6,16.86-2.6,16.86h38.22l-3.22-17.84-14.15-5.88-5.32.39Z"/>
                <path class="cls-6" d="m233.79,202.61s-1.59.39-2.63,1.37-2.22,4.31-2.22,4.31l-.04,3.92,5.07-2.74,5.12-.39,4.82,4.51.61-6.86s-.74-3.92-2.3-4.12-8.43,0-8.43,0Z"/>
                <polygon class="cls-6" points="233.63 198.88 233.4 205.74 236.44 210.64 241.45 205.55 242.23 199.28 233.63 198.88"/>
                <path class="cls-6" d="m245.98,190.87c-.35,5.75-4.17,12.72-8.37,12.72s-7.16-6.97-6.81-12.72c.35-5.75,4.03-10.41,8.22-10.41s7.3,4.66,6.95,10.41Z"/>
                <path class="cls-6" d="m230.74,191.63s-1.35-3.53-1.91-.78c-.56,2.74,2.2,5.68,2.2,5.68l-.29-4.9Z"/>
                <path class="cls-6" d="m245.98,190.87s3.31-1.39,2.35,1.55c-.96,2.94-3.36,3.72-3.36,3.72l1.02-5.27Z"/>
                <path class="cls-6" d="m237.21,191.63c.09-1.52-1.06-2.74-2.58-2.74s-2.82,1.23-2.91,2.74c-.09,1.52,1.06,2.74,2.58,2.74s2.82-1.23,2.91-2.74Z"/>
                <line class="cls-10" x1="243.87" y1="191.63" x2="246.86" y2="190.85"/>
                <path class="cls-6" d="m243.87,191.63c.09-1.52-1.06-2.74-2.58-2.74s-2.82,1.23-2.91,2.74c-.09,1.52,1.06,2.74,2.58,2.74s2.82-1.23,2.91-2.74Z"/>
                <path class="cls-4" d="m238.35,179.28s-3.04-1.57-5.26-.59c-2.22.98-3.91,6.27-3.8,7.64s1.44,5.29,1.44,5.29l2.38-6.86,6.24-2.74-1.01-2.74Z"/>
                <path class="cls-4" d="m235.33,180.66s4.94-3.92,8.94-1.96c4,1.96,3.59,5.49,3.53,6.47-.06.98-.14,5.49-.14,5.49l-2.38.39-1.14-3.72s-1.86-.71-3.93-1.87c0,0-5.32-.68-4.87-4.8Z"/>
                <polyline class="cls-6" points="237.21 191.63 236.86 197.32 238.23 197.32"/>
                <line class="cls-6" x1="236.14" y1="199.47" x2="239.08" y2="199.47"/>
                <line class="cls-10" x1="236.44" y1="210.64" x2="235.35" y2="228.48"/>
                <path class="cls-10" d="m252.87,211.23s-4.09,9.21-4.21,11.17c-.12,1.96-.58,6.27-.58,6.27"/>
                <path class="cls-10" d="m220.46,212.21s4.08,7.06,4.61,8.04c.53.98-.12,8.43-.12,8.43"/>
              </g>
              <polygon class="cls-6" points="255.59 217.9 256.95 211.82 259.25 209.47 261.42 205.94 262.4 205.94 261.19 209.66 264.24 207.9 266.2 204.76 267.34 205.35 264.54 212.6 260.1 214.76 259.33 217.7 255.59 217.9"/>
              <polygon class="cls-6" points="259.4 229.07 259.77 216.92 255.31 216.13 251.79 229.07 259.4 229.07"/>
            </g>
            <polygon class="cls-6" points="270.51 233.58 208.77 233.58 209.05 229.07 270.79 229.07 270.51 233.58"/>
            <line class="cls-6" x1="211.29" y1="230.83" x2="267.94" y2="230.83"/>
          </g>
          <g>
            <polygon class="cls-3" points="297.33 189.27 276.55 189.27 277.43 174.96 298.2 174.96 297.33 189.27"/>
            <polygon class="cls-6" points="297.33 189.27 276.55 189.27 276.7 186.92 297.47 186.92 297.33 189.27"/>
            <polygon class="cls-6" points="290.62 181.28 285.22 178.05 284.83 184.51 290.62 181.28"/>
          </g>
          <g>
            <polygon class="cls-3" points="295.98 211.42 275.2 211.42 276.07 197.11 296.85 197.11 295.98 211.42"/>
            <polygon class="cls-6" points="295.98 211.42 275.2 211.42 275.34 209.07 296.12 209.07 295.98 211.42"/>
            <polygon class="cls-6" points="289.26 203.43 283.87 200.21 283.47 206.66 289.26 203.43"/>
          </g>
          <g>
            <polygon class="cls-3" points="294.62 233.58 273.85 233.58 274.72 219.27 295.5 219.27 294.62 233.58"/>
            <polygon class="cls-6" points="294.62 233.58 273.85 233.58 273.99 231.23 294.77 231.23 294.62 233.58"/>
            <polygon class="cls-6" points="287.91 225.59 282.51 222.36 282.12 228.82 287.91 225.59"/>
          </g>
          <g>
            <line class="cls-10" x1="276.6" y1="191.63" x2="296.79" y2="191.63"/>
            <line class="cls-10" x1="276.46" y1="193.98" x2="296.65" y2="193.98"/>
          </g>
          <g>
            <line class="cls-10" x1="275.24" y1="213.98" x2="295.43" y2="213.98"/>
            <line class="cls-10" x1="275.1" y1="216.33" x2="295.28" y2="216.33"/>
          </g>
        </g>
      </g>
      <path class="cls-6" d="m266.28,252.19h-15.15c0-3.15,2.55-5.7,5.7-5.7h3.74c3.15,0,5.7,2.55,5.7,5.7h0Z"/>
      <g>
        <rect class="cls-7" x="169.65" y="249.07" width="74.22" height="3.11"/>
        <rect class="cls-6" x="225.21" y="249.07" width="18.65" height="3.11"/>
      </g>
    </g>
  </g>
  <g id="Table">
    <g>
      <path class="cls-7" d="m274.17,272.92l8.97,121.33c.07.91.83,1.62,1.74,1.62.97,0,1.76-.79,1.75-1.77l-1.32-121.18h-11.14Z"/>
      <path class="cls-6" d="m280.96,272.92l4.76,122.73c.55-.3.93-.88.92-1.55l-1.32-121.18h-4.35Z"/>
      <path class="cls-7" d="m330.74,272.92l8.97,121.33c.07.91.83,1.62,1.74,1.62.97,0,1.76-.79,1.75-1.77l-1.32-121.18h-11.14Z"/>
      <path class="cls-6" d="m337,272.92l5.55,122.56c.4-.32.66-.82.66-1.38l-1.32-121.18h-4.88Z"/>
      <path class="cls-4" d="m181.63,274.25l-9.03,120.01c-.07.91-.83,1.62-1.74,1.62h0c-.97,0-1.76-.79-1.75-1.77l1.34-120.2,11.18.34Z"/>
      <path class="cls-4" d="m125.06,274.25l-9.03,120.01c-.07.91-.83,1.62-1.74,1.62h0c-.97,0-1.76-.79-1.75-1.77l1.34-120.2,11.18.34Z"/>
      <rect class="cls-7" x="110.56" y="255.01" width="234.63" height="18.9"/>
      <rect class="cls-6" x="277.95" y="255.01" width="67.24" height="18.9"/>
      <rect class="cls-4" x="110.56" y="258.01" width="234.63" height="5.21"/>
      <rect class="cls-7" x="107.18" y="252.3" width="241.39" height="6.32"/>
      <rect class="cls-6" x="282.28" y="252.3" width="66.29" height="6.32"/>
    </g>
  </g>
  <g id="Text_Baloon" data-name="Text Baloon">
    <g>
      <path class="cls-6" d="m277.4,135.13h-32.58c-3.53,0-6.4,2.87-6.4,6.4v12.02c0,3.53,2.87,6.4,6.4,6.4h17.06l-6.4,17.84,12.24-17.84h9.67c3.53,0,6.4-2.87,6.4-6.4v-12.02c0-3.53-2.87-6.4-6.4-6.4Z"/>
      <circle class="cls-16" cx="252.38" cy="147.93" r="2.33"/>
      <circle class="cls-16" cx="261.11" cy="147.93" r="2.33"/>
      <path class="cls-16" d="m272.16,147.93c0-1.29-1.04-2.33-2.33-2.33s-2.33,1.04-2.33,2.33,1.04,2.33,2.33,2.33,2.33-1.04,2.33-2.33Z"/>
    </g>
  </g>
  <g id="Floor">
    <g>
      <line class="cls-10" x1="432.11" y1="396.13" x2="459.11" y2="396.13"/>
      <line class="cls-10" x1="6.11" y1="396.13" x2="418.11" y2="396.13"/>
    </g>
  </g>
  <g id="Character">
    <g>
      <g>
        <g>
          <g>
            <path class="cls-6" d="m164.74,219.41c-2.93-4.98-11.55-24.24-11.55-24.24,0,0,.54-4.12,1.25-6.09s2.51-8.06,2.15-9.31c-.36-1.25-5.55-3.58-6.09-3.76s.72-3.22-1.25-3.94c-1.97-.72-2.69.36-2.69.36l-.74,4.99-2.3,3.6s-1.43-1.07-3.04-1.97c-1.61-.9-5.37-1.25-5.55.18-.18,1.43,3.04,2.69,4.12,3.58,1.07.9,2.51,5.19,3.76,6.45s3.22,3.94,3.22,3.94l.72,2.33s2.45,23.59,2.75,29.45c.29,5.86,1.17,21.4,2.93,23.75,1.76,2.35,2.05,3.81,7.04,2.05,4.98-1.76,5.86-4.1,7.04-9.38,1.17-5.28,1.17-17-1.76-21.99Z"/>
            <path class="cls-3" d="m166.5,241.39c1.17-5.28,1.17-17-1.76-21.99-.32-.54-.71-1.26-1.14-2.1-6.63-1.93-12.93,1.22-12.93,1.22l-1.61.71c.21,2.45.37,4.5.44,5.74.29,5.86,1.17,21.4,2.93,23.75,1.76,2.35,2.05,3.81,7.04,2.05,4.98-1.76,5.86-4.1,7.04-9.38Z"/>
          </g>
          <g>
            <path class="cls-6" d="m143.37,140.07s1.2,4.22,1.2,8.13-1.2,6.32.6,7.53,3.31,1.2,3.01,3.61c-.3,2.41-1.51,3.61-1.51,3.61,0,0-.6,12.34-1.2,13.55-.6,1.2-8.43-.3-10.24-.6-1.81-.3-6.93,2.11-10.24-4.52-3.31-6.62-.6-16.56,5.42-21.68s12.95-9.63,12.95-9.63Z"/>
            <path class="cls-10" d="m144.57,148.2s-1.64-1.22-2.49.92"/>
            <path class="cls-10" d="m143.15,153.19s-.43,1.93.21,3.64"/>
            <path class="cls-10" d="m146.15,167.32s-1.93.64-2.57-1.5"/>
          </g>
          <g>
            <path class="cls-6" d="m149.52,223.92s-1.05,4.58-1.89,7c-.85,2.42-16.85,6.87-23.8,7.79-6.95.92-13.81.91-13.81.91l.44,12.66s13.46.26,14.41.04c.96-.22,23.61-10.4,23.61-10.4l9.79-1.28s4.11-.99,4.27-4.19-3.47-12.25-5.12-13.67c-1.64-1.41-5.14-5.15-7.22-2.85-2.08,2.3-.68,3.99-.68,3.99Z"/>
            <path class="cls-3" d="m119.5,246.66c0-5.48,1.4-5.62,2.98-7.78-6.46.75-12.45.74-12.45.74l-.33,11.61s7.37.68,11.86.98c-.34.6-2.05-2.04-2.05-5.55Z"/>
          </g>
          <g>
            <path class="cls-3" d="m162.97,271.26c-8.19-9.6-19.66-13.11-19.66-13.11l-17.56,7.49s-2.11-5.38-5.38-9.36l-3.28-3.98,2.11-11.47s12.64-8.66,14.28-12.41c.02-.04.04-.08.06-.12,2.53,3.93,13.56,20.94,15.63,22.59,2.34,1.87,9.36,2.11,12.41-.7,3.04-2.81,4.45-4.68,3.75-8.89,0,0-4.68-10.07-7.26-14.51-2.57-4.45-8.19-20.36-11-25.28-2.01-3.52-2.83-5.96-4.25-7.67-1.15-1.95-2.4-3.57-3.48-4.74-2.81-3.04-10.53-3.75-12.17-4.45-1.64-.7-1.87-.94-11.24-3.75-9.36-2.81-19.9-4.45-27.39,1.4,0,0-10.07,11.94-14.04,31.6s-4.21,39.56-4.68,43.07c-.47,3.51-4.45,20.6-5.62,30.43-1.17,9.83,9.13,19.66,15.45,22.71,6.32,3.04,33.47,3.51,49.39,0,15.92-3.51,41.2-19.43,41.2-19.43,0,0,.94-9.83-7.26-19.43Z"/>
            <g>
              <line class="cls-10" x1="121.57" y1="228.01" x2="118.37" y2="227.9"/>
              <path class="cls-10" d="m120.37,222.9c6.33,2,13.11,5.52,13.11,5.52l-8.24-.28"/>
            </g>
          </g>
          <g>
            <path class="cls-6" d="m163.86,228.81s1.66,2.59,1.66,4.8.37,5.17-.55,4.25c-.92-.92-1.29-4.06-1.29-4.06l.18-4.99Z"/>
            <path class="cls-6" d="m158.31,226.23s3.47-1.88,4.97.38c1.5,2.26,1.13,6.77,0,9.02-1.13,2.26-2.42.1-2.26-1.88.16-1.98-2.72-7.52-2.72-7.52Z"/>
            <path class="cls-6" d="m157.02,223.82s3.47-1.88,4.97.38c1.5,2.26,1.13,6.77,0,9.02-1.13,2.26-2.42.1-2.26-1.88s-2.72-7.52-2.72-7.52Z"/>
            <path class="cls-6" d="m155.43,221.24s3.47-1.88,4.97.38c1.5,2.26,1.13,6.77,0,9.02-1.13,2.26-2.42.1-2.26-1.88.16-1.98-2.72-7.52-2.72-7.52Z"/>
          </g>
          <g>
            <path class="cls-4" d="m146.65,130.74c.05,3.78-1.11,7.83-2.68,10.24-5.12,7.83-9.94,6.93-12.04,13.25s-5.12,12.95-1.81,16.56c3.31,3.61,6.02,1.51,6.02,1.51,0,0,2.11,5.42-3.31,10.84-5.42,5.42-14.75,3.31-17.16,2.41-2.41-.9-4.22-2.41-4.22-2.41,0,0-1.51,4.22-9.03,4.22s-15.96-5.12-15.96-14.45,5.12-15.66,6.32-19.27c1.2-3.61-2.11-14.75,3.01-21.68,5.12-6.93,12.95-12.04,18.97-12.04s17.72,3.29,17.76,3.31c.79.43,5.85-1.63,7.22-1.54,5.01.33,6.85,4.49,6.91,9.06Z"/>
            <path class="cls-9" d="m127.09,173.56c1.02.15,2.13.17,3.29.03"/>
            <path class="cls-9" d="m142.31,135.99c-.43,2.35-1.29,4.99-2.91,7.55-4.67,7.35-10.02,10.02-16.36,17.03-4.1,4.53-3.32,9.06,0,11.43"/>
            <path class="cls-9" d="m142.4,128.18s.27,1.3.29,3.34"/>
            <path class="cls-9" d="m136.06,135.19s-1,10.35-5.34,16.36-13.02,9.02-12.69,15.36"/>
          </g>
        </g>
        <g>
          <g>
            <path class="cls-6" d="m176.41,308.44s6.23,32.06,11.58,47.64c5.34,15.58,10.69,29.83,12.02,31.17,1.34,1.34,4.9,6.23,4.9,6.23,0,0-2.67,2.23-5.79,2.23s-7.12-4.01-10.69-6.23c-3.56-2.23-4.01-3.56-11.13-6.23-7.12-2.67-1.34-9.79.45-13.36,1.78-3.56,1.78-6.23,1.78-6.23,0,0-3.56-14.69-14.69-27.16-11.13-12.47-13.36-41.41-13.36-41.41l21.37-8.01,3.56,21.37Z"/>
            <g>
              <path class="cls-3" d="m199.07,385.65l-1.29.26s-7.57-10.24-13.36-13.8c-2.93-1.8-5.18-2.24-6.68-2.22-1.78,3.56-7.57,10.68-.44,13.35,7.12,2.67,7.57,4.01,11.13,6.23,3.56,2.23,7.57,6.23,10.69,6.23s5.79-2.23,5.79-2.23c0,0-3.56-4.9-4.9-6.23-.21-.21-.53-.76-.94-1.59Z"/>
              <g>
                <path class="cls-3" d="m195.51,394.44c-3.52-2.43-6.7-7.83-12.43-11.2-5.21-3.06-7.89-3.18-9.05-2.95.38,1.2,1.36,2.23,3.26,2.95,7.12,2.67,7.57,4.01,11.13,6.23,2.3,1.44,4.78,3.6,7.08,4.97Z"/>
                <path class="cls-3" d="m199.12,395.7c-.23,0-.45-.03-.68-.06.23.04.46.06.68.06Z"/>
              </g>
            </g>
          </g>
          <path class="cls-6" d="m136.73,260.12s21.39-7.58,23.39-2.58,11.16,23.65,7.83,31.31c-3.33,7.67-26.83-21.98-30.16-22.65s-1.46-3.84-1.06-6.09Z"/>
          <path class="cls-6" d="m157.7,269.9s24.33-2,29,2.33c4.67,4.33-11.33,56.33-20,72.67-13.55,25.54-9.48,32.21-9.48,32.21,0,0,1,4,7.67,10.33,6.67,6.33,8.67,7.33,6.33,8.33-2.33,1-12.33,0-13.33-.67s-8.33-6.67-15-8.67c-6.67-2-5.67-3.33-2.67-9.33s2.67-1,6-11.33c3.61-11.19,7.53-27.26,9.44-38.85,1.76-10.71,4.47-22.47,3.71-33.36,0,0-1.67-23.67-1.67-23.67Z"/>
          <path class="cls-4" d="m175.52,286.18s-3.12-8.9-12.55-14.92c-10.64-6.79-19.66-13.11-19.66-13.11l-17.56,7.49s4.28,7.26-17.72,10.93c-16.94,2.82-32.49-1.27-40.88-6.2-1.17,5.8-2.4,12.27-2.96,17.04-1.17,9.83,9.13,19.66,15.45,22.71,6.32,3.04,57.24,9.37,70.95.55,24.93-16.03,24.93-24.49,24.93-24.49Z"/>
          <path class="cls-3" d="m123.76,271.14c-2.35,1.92-6.93,3.96-15.73,5.43-16.94,2.82-32.49-1.27-40.88-6.2-.3,1.49-.6,3.02-.9,4.55,5.75,3.45,17.83,9.32,31.45,7.65,16.25-2,23.47-6.43,26.06-11.43Z"/>
          <g>
            <path class="cls-8" d="m110.78,292.55c-.78,1.02-1.59,2.03-2.42,3.02"/>
            <path class="cls-8" d="m123.03,273.57s-4.21,7.98-10.28,16.34"/>
            <path class="cls-8" d="m115.7,279.9s-6,8-12.33,12.67"/>
          </g>
          <g>
            <path class="cls-3" d="m164.89,387.45c-6.67-6.33-7.67-10.33-7.67-10.33,0,0-.26-.19-.53-.75-.45.48-1.81,1.36-5.14.08-2.89-1.11-5.63-2.96-8.52-4.27-.69,1.23-1.36,2.02-2.82,4.93-3,6-4,7.33,2.67,9.33,6.67,2,14,8,15,8.67s11,1.67,13.33.67c2.33-1,.33-2-6.33-8.33Z"/>
            <line class="cls-10" x1="171.03" y1="289.57" x2="182.37" y2="282.57"/>
          </g>
        </g>
      </g>
      <g>
        <path class="cls-7" d="m35.56,226.19s36.12-4.52,59.2,2.01l3.51,87.8h-54.19s3.51-47.16-8.53-89.81Z"/>
        <path class="cls-2" d="m94.76,228.19c-23.08-6.52-59.2-2.01-59.2-2.01,4.13,14.64,6.43,29.81,7.67,43.42,15.98,7.99,35.87,20.4,54.75,38.96l-3.22-80.37Z"/>
        <g>
          <path class="cls-6" d="m162.87,398.17c-.81,0-1.58-.5-1.87-1.3-8.02-21.56-10.04-77.52-10.12-79.89-.04-1.1.83-2.03,1.93-2.07,1.09-.04,2.03.83,2.07,1.93.02.57,2.08,57.69,9.88,78.64.39,1.04-.14,2.19-1.18,2.57-.23.09-.47.13-.7.13Z"/>
          <path class="cls-6" d="m119.32,398.17c-.81,0-1.58-.5-1.87-1.3-8.02-21.56-10.04-77.52-10.12-79.89-.04-1.1.83-2.03,1.93-2.07,1.09-.04,2.03.83,2.07,1.93.02.57,2.08,57.69,9.88,78.64.39,1.04-.14,2.19-1.18,2.57-.23.09-.47.13-.7.13Z"/>
          <path class="cls-7" d="m162.32,315.96H43.16v-3.97h115.19c2.19,0,3.97,1.78,3.97,3.97h0Z"/>
          <rect class="cls-6" x="43.16" y="314.99" width="119.16" height="3.97"/>
        </g>
        <path class="cls-6" d="m93.87,398.17c-.14,0-.28-.01-.42-.04-1.08-.23-1.77-1.29-1.54-2.37,11.31-53.58.97-166.24.86-167.38-.1-1.1.71-2.07,1.81-2.18,1.09-.1,2.07.71,2.18,1.81.11,1.14,10.5,114.4-.93,168.57-.2.94-1.03,1.59-1.95,1.59Z"/>
        <path class="cls-6" d="m31.87,396.67c-.18,0-.36-.02-.54-.08-1.06-.3-1.68-1.4-1.38-2.47,26.02-92.3,3.93-166.61,3.7-167.35-.32-1.06.27-2.17,1.33-2.5,1.05-.32,2.17.27,2.5,1.33.23.75,22.68,76.13-3.68,169.61-.25.88-1.05,1.46-1.92,1.46Z"/>
      </g>
    </g>
  </g>
  <g id="Plants">
    <g>
      <path class="cls-12" d="m397.49,231.78s-12.29-6.83-13.2,8.65c-.91,15.48-3.19,116.09-3.19,116.09"/>
      <path class="cls-12" d="m377.9,241.79s10.03,22.31,5.47,113.36"/>
      <g>
        <path class="cls-13" d="m387.75,234.89s-4.7,3.01-7.38-.44c-2.68-3.45,1.81-9.76-2.14-12.46-3.95-2.7-10.78,1.42-10.78,1.42,0,0,5.26,1.54,5.09,4.41-.17,2.87-2.7,3.95-3.04,2.7-.34-1.25-2.84-7.57-7.11-4.94-4.27,2.63-4.92,6.7-4.92,6.7,0,0,9.93-1.06,10.54,2.68s-4.07-.65-8.17-.89c-4.1-.24-7.84.36-7.57,2.84.26,2.48-.39,6.56-.39,6.56,0,0,3.47-3.09,7.98-2.82,4.51.27,4.34,3.13.24,2.89-4.1-.24-7.62,3.66-7.62,3.66,0,0,3.74,6.39,8.48,9.55,4.75,3.16,6.46,2.03,7.02-.41.55-2.43-.72-8.68,2.15-8.51s-4.75,10.82-1.09,11.45c3.66.63,6.61-.43,7.57-2.84l.96-2.41s-1.28-6.24-.72-8.68c.55-2.43,1.23.07,1.88,2.99.65,2.92,1.06,9.93,2.31,9.6,1.25-.34,5.26-5.45,6.2-7.45.94-2-5.28-8.13-5.21-9.36.07-1.23,4.87,1.11,5.62,2.39.75,1.28,1.47,2.97,1.47,2.97,0,0,2.99-1.88,2.92-7.64-.07-5.76-4.29-3.95-4.29-3.95Z"/>
        <path class="cls-15" d="m387.75,234.89s-4.7,3.01-7.38-.44c-2.68-3.45,1.81-9.76-2.14-12.46-3.95-2.7-10.78,1.42-10.78,1.42,0,0,5.26,1.54,5.09,4.41-.17,2.87-2.7,3.95-3.04,2.7-.34-1.25-2.84-7.57-7.11-4.94-4.27,2.63-4.92,6.7-4.92,6.7,0,0,9.93-1.06,10.54,2.68s-4.07-.65-8.17-.89c-4.1-.24-7.84.36-7.57,2.84.26,2.48-.39,6.56-.39,6.56,0,0,3.47-3.09,7.98-2.82,4.51.27,4.34,3.13.24,2.89-4.1-.24-7.62,3.66-7.62,3.66,0,0,3.74,6.39,8.48,9.55,4.75,3.16,6.46,2.03,7.02-.41.55-2.43-.72-8.68,2.15-8.51s-4.75,10.82-1.09,11.45c3.66.63,6.61-.43,7.57-2.84l.96-2.41s-1.28-6.24-.72-8.68c.55-2.43,1.23.07,1.88,2.99.65,2.92,1.06,9.93,2.31,9.6,1.25-.34,5.26-5.45,6.2-7.45.94-2-5.28-8.13-5.21-9.36.07-1.23,4.87,1.11,5.62,2.39.75,1.28,1.47,2.97,1.47,2.97,0,0,2.99-1.88,2.92-7.64-.07-5.76-4.29-3.95-4.29-3.95Z"/>
        <path class="cls-10" d="m363.92,248.41c3.07-3.79,7.58-8.92,11.37-11.37"/>
        <path class="cls-10" d="m360.36,253.02s.79-1.09,2.06-2.73"/>
        <path class="cls-10" d="m377.29,237.98s4.56,6.44,5.4,13.07"/>
        <path class="cls-10" d="m372.13,241.79s1.28-.75.79,7.45"/>
        <path class="cls-10" d="m375.46,234.17s2.6-2.31,1.23-6.92"/>
        <line class="cls-10" x1="371.94" y1="238.07" x2="370.08" y2="234.67"/>
        <path class="cls-10" d="m368.03,241.54s-5.91-4.46-9.59-4.68"/>
      </g>
      <g>
        <path class="cls-13" d="m404.51,222.75s-.19,6.76-5.46,7.09c-5.28.33-8.54-8.47-13.94-6.35-5.4,2.12-5.92,11.76-5.92,11.76,0,0,5.13-4.21,7.89-2.08s2.12,5.4.63,4.88c-1.49-.52-9.52-2.31-9.8,3.75-.28,6.06,3.36,9.49,3.36,9.49,0,0,5.71-10.67,9.86-8.72,4.15,1.94-3.43,3.64-6.47,7.57-3.04,3.94-4.98,8.09-2.31,9.52,2.67,1.43,6.3,4.86,6.3,4.86,0,0-.72-5.58,2.62-9.91,3.34-4.33,6.1-2.21,3.06,1.73-3.04,3.94-1.53,10.13-1.53,10.13,0,0,8.94.61,15.34-1.99,6.4-2.6,6.43-5.09,4.37-7.3-2.06-2.22-9.18-5.19-7.06-7.95,2.12-2.76,7.6,12.14,10.72,8.89,3.13-3.24,4.07-6.91,2.31-9.52l-1.76-2.61s-7.12-2.98-9.18-5.19c-2.06-2.22.91-1.18,4.27.16,3.36,1.34,10.67,5.71,11.18,4.23.52-1.49-1.87-8.98-3.23-11.28-1.36-2.31-11.73-.25-12.92-1.16-1.18-.91,4.43-4.12,6.22-4,1.79.12,3.97.55,3.97.55,0,0,.16-4.27-5.66-8.13-5.82-3.86-6.88,1.6-6.88,1.6Z"/>
        <path class="cls-14" d="m404.51,222.75s-.19,6.76-5.46,7.09c-5.28.33-8.54-8.47-13.94-6.35-5.4,2.12-5.92,11.76-5.92,11.76,0,0,5.13-4.21,7.89-2.08s2.12,5.4.63,4.88c-1.49-.52-9.52-2.31-9.8,3.75-.28,6.06,3.36,9.49,3.36,9.49,0,0,5.71-10.67,9.86-8.72,4.15,1.94-3.43,3.64-6.47,7.57-3.04,3.94-4.98,8.09-2.31,9.52,2.67,1.43,6.3,4.86,6.3,4.86,0,0-.72-5.58,2.62-9.91,3.34-4.33,6.1-2.21,3.06,1.73-3.04,3.94-1.53,10.13-1.53,10.13,0,0,8.94.61,15.34-1.99,6.4-2.6,6.43-5.09,4.37-7.3-2.06-2.22-9.18-5.19-7.06-7.95,2.12-2.76,7.6,12.14,10.72,8.89,3.13-3.24,4.07-6.91,2.31-9.52l-1.76-2.61s-7.12-2.98-9.18-5.19c-2.06-2.22.91-1.18,4.27.16,3.36,1.34,10.67,5.71,11.18,4.23.52-1.49-1.87-8.98-3.23-11.28-1.36-2.31-11.73-.25-12.92-1.16-1.18-.91,4.43-4.12,6.22-4,1.79.12,3.97.55,3.97.55,0,0,.16-4.27-5.66-8.13-5.82-3.86-6.88,1.6-6.88,1.6Z"/>
        <path class="cls-10" d="m401.79,255.82c-1.71-5.65-3.76-13.67-3.63-19.13"/>
        <path class="cls-10" d="m403.99,262.53s-.56-1.53-1.33-3.93"/>
        <path class="cls-10" d="m400.47,235.33s9.55-.17,16.76,3.5"/>
        <path class="cls-10" d="m400.76,243.09s.12-1.79,8,4.28"/>
        <path class="cls-10" d="m395.41,234.56s-.54-4.18-6.09-5.95"/>
        <line class="cls-10" x1="396.92" y1="240.75" x2="392.25" y2="240.29"/>
        <path class="cls-10" d="m397.73,247.03s-8.49,2.87-11.22,6.42"/>
      </g>
      <path class="cls-12" d="m347.87,267.74s26.86,17.76,26.41,86.5"/>
      <g>
        <path class="cls-13" d="m380.99,263.05s-.86,7.78-6.97,7.67c-6.12-.12-9.06-10.58-15.49-8.64-6.43,1.93-7.95,13.01-7.95,13.01,0,0,6.31-4.37,9.3-1.66,2.98,2.71,1.93,6.43.27,5.69-1.66-.74-10.76-3.57-11.66,3.4s2.98,11.27,2.98,11.27c0,0,7.6-11.77,12.2-9.13,4.61,2.64-4.3,3.87-8.18,8.13-3.87,4.26-6.51,8.87-3.57,10.76s6.81,6.2,6.81,6.2c0,0-.31-6.51,3.96-11.19,4.26-4.68,7.24-1.97,3.37,2.29-3.87,4.26-2.72,11.54-2.72,11.54,0,0,10.26,1.55,17.89-.84,7.63-2.4,7.9-5.26,5.74-8.01-2.17-2.75-10.11-6.86-7.39-9.84,2.71-2.98,7.62,14.72,11.54,11.28,3.91-3.45,5.35-7.59,3.57-10.76l-1.78-3.18s-7.94-4.11-10.11-6.86c-2.17-2.75,1.16-1.28,4.92.58,3.76,1.86,11.77,7.6,12.51,5.93.74-1.67-1.31-10.53-2.67-13.32-1.35-2.79-13.52-1.4-14.79-2.56-1.28-1.16,5.5-4.34,7.55-4.02,2.05.31,4.53,1.01,4.53,1.01,0,0,.58-4.92-5.77-9.92-6.35-5-8.09,1.2-8.09,1.2Z"/>
        <path class="cls-15" d="m380.99,263.05s-.86,7.78-6.97,7.67c-6.12-.12-9.06-10.58-15.49-8.64-6.43,1.93-7.95,13.01-7.95,13.01,0,0,6.31-4.37,9.3-1.66,2.98,2.71,1.93,6.43.27,5.69-1.66-.74-10.76-3.57-11.66,3.4s2.98,11.27,2.98,11.27c0,0,7.6-11.77,12.2-9.13,4.61,2.64-4.3,3.87-8.18,8.13-3.87,4.26-6.51,8.87-3.57,10.76s6.81,6.2,6.81,6.2c0,0-.31-6.51,3.96-11.19,4.26-4.68,7.24-1.97,3.37,2.29-3.87,4.26-2.72,11.54-2.72,11.54,0,0,10.26,1.55,17.89-.84,7.63-2.4,7.9-5.26,5.74-8.01-2.17-2.75-10.11-6.86-7.39-9.84,2.71-2.98,7.62,14.72,11.54,11.28,3.91-3.45,5.35-7.59,3.57-10.76l-1.78-3.18s-7.94-4.11-10.11-6.86c-2.17-2.75,1.16-1.28,4.92.58,3.76,1.86,11.77,7.6,12.51,5.93.74-1.67-1.31-10.53-2.67-13.32-1.35-2.79-13.52-1.4-14.79-2.56-1.28-1.16,5.5-4.34,7.55-4.02,2.05.31,4.53,1.01,4.53,1.01,0,0,.58-4.92-5.77-9.92-6.35-5-8.09,1.2-8.09,1.2Z"/>
        <path class="cls-10" d="m374.72,300.96c-1.43-6.68-3.05-16.13-2.38-22.42"/>
        <path class="cls-10" d="m376.63,308.91s-.5-1.82-1.17-4.66"/>
        <path class="cls-10" d="m375.13,277.19s11.04.7,19.01,5.62"/>
        <path class="cls-10" d="m374.74,286.17s.31-2.05,8.83,5.7"/>
        <path class="cls-10" d="m369.36,275.83s-.23-4.88-6.46-7.44"/>
        <line class="cls-10" x1="370.52" y1="283.11" x2="365.18" y2="282.14"/>
        <path class="cls-10" d="m370.86,290.43s-10.07,2.51-13.56,6.35"/>
      </g>
      <path class="cls-12" d="m358.34,321.92s17.3,13.2,19.12,32.78l-3.64-65.56"/>
      <path class="cls-12" d="m400.22,312.36c-22.76-4.1-22.76,42.34-22.76,42.34"/>
      <path class="cls-12" d="m380.19,354.24s-13.2-96.06,25.04-96.06"/>
      <g>
        <path class="cls-13" d="m391.55,309.6c-3.11-3.5-9.72-3.5-13.6,5.44-3.89,8.94-.39,7.38-.39,7.38,0,0,7.38-2.33,12.05-3.89,4.66-1.55,10.88-5.44,11.27-3.11.39,2.33-3.11,4.66-7.38,5.44-4.28.78-15.55,3.89-14.38,6.22,1.17,2.33,3.89,9.33,3.89,9.33,0,0,5.44-4.66,10.49-7.77,5.05-3.11,8.16-1.94,5.44,1.55-2.72,3.5-10.49,7.38-8.94,12.05,1.55,4.66,10.88,10.49,10.88,10.49,0,0,1.17-9.72,3.89-12.83s2.72.39,1.94,5.83c-.78,5.44-.78,7-.78,7l10.88,3.89s3.89-5.83,5.83-7.77l1.94-1.94s-8.55-7.38-8.94-12.05c-.39-4.66,5.83,0,7.77.78,1.94.78,5.05,6.22,5.05,6.22,0,0,1.94-8.94,2.33-12.05l.39-3.11s-8.16-3.11-11.27-3.11-4.66,2.33-4.66-.78,3.11-5.05,6.61-4.66c3.5.39,9.33,2.33,9.33,2.33,0,0,2.33-1.94,1.55-7.77-.78-5.83-2.72-5.83-7.38-4.28-4.66,1.55-7.77,5.05-11.27,5.05s-1.55-4.28.78-5.44c2.33-1.17,8.16-3.5,9.33-3.89,1.17-.39-6.22-5.83-10.11-6.61-3.89-.78-8.92,1.96-8.55,5.83.78,8.16-10.88,9.72-13.99,6.22Z"/>
        <path class="cls-10" d="m416.57,349.62c.12,1.17.2,2.34.24,3.51"/>
        <path class="cls-10" d="m408.76,321.72c2.73,6.31,5.89,15.01,7.32,24.08"/>
        <path class="cls-10" d="m407.36,318.6c-1.93-4.14-3.37-6.66-3.37-6.66,0,0,3.5-1.55,5.05-4.66,1.55-3.11,3.89-4.66,3.89-4.66"/>
        <path class="cls-10" d="m390.38,325.15s13.99-5.83,13.99-4.66"/>
        <path class="cls-10" d="m412.15,317.76s6.22-3.11,11.66-3.11"/>
        <path class="cls-10" d="m409.82,327.09s-3.5,2.72-7.38,7.38c-3.89,4.66-5.44,8.94-5.44,8.94"/>
        <path class="cls-10" d="m414.09,328.64s8.16-2.33,12.44,1.55"/>
      </g>
      <g>
        <path class="cls-13" d="m428.88,276.13c-4.23-2.5-8.91-2.56-11.2-5.2-2.29-2.64,2.21-3.98,4.62-2.98,2.41,1,7.99,3.87,9.05,4.5,1.06.63.33-8.52-1.64-11.96-1.96-3.44-7.33-5.45-10.01-2.64-5.65,5.94-14.47-1.85-13.87-6.49.6-4.64-3.73-9.63-13.03-6.71-9.3,2.93-5.83,4.55-5.83,4.55,0,0,6.6,4.05,10.83,6.55,4.23,2.5,11.24,4.65,9.74,6.47-1.51,1.82-5.56.71-8.95-2.01-3.39-2.72-13.13-9.19-14.12-6.78-1,2.41-4.5,9.05-4.5,9.05,0,0,7.09,1.05,12.75,2.83,5.66,1.78,6.82,4.89,2.39,5.13-4.43.24-12.46-3.08-14.96,1.15-2.5,4.23-.79,15.1-.79,15.1,0,0,8.1-5.49,12.23-5.47,4.13.02,1.49,2.31-3.13,5.29-4.62,2.98-5.79,4-5.79,4l4.2,10.77s6.95-.89,9.69-.69l2.74.19s-.03-11.3,3.24-14.65c3.27-3.35,3.82,4.4,4.51,6.38.69,1.98-1.38,7.89-1.38,7.89,0,0,8.02-4.39,10.63-6.14l2.6-1.74s-3-8.2-5.04-10.55c-2.04-2.35-4.82-1.99-2.47-4.03,2.35-2.04,5.85-.96,7.85,1.93,2,2.9,4.35,8.57,4.35,8.57,0,0,3,.49,6.89-3.92,3.89-4.41,2.62-5.88-1.61-8.38Zm-36.78,12.44c-3.11-1.55,4.28-4.66,4.28-4.66,2.72-.39-1.17,6.22-4.28,4.66Zm5.24-14.51c-1.33-.66,2.65-1.99,2.65-1.99,5.74,1.1-1.33,2.65-2.65,1.99Z"/>
        <path class="cls-10" d="m392.01,296.48c-.81.85-1.64,1.69-2.49,2.49"/>
        <path class="cls-10" d="m407.96,272.3c-2.97,6.2-7.47,14.28-13.39,21.31"/>
        <path class="cls-10" d="m409.4,269.19c1.86-4.17,2.82-6.92,2.82-6.92,0,0,3.47,1.62,6.83.76,3.37-.86,6.07-.12,6.07-.12"/>
        <path class="cls-10" d="m406.02,268.18c.88-.76-12.69-7.51-12.69-7.51"/>
        <path class="cls-10" d="m413.17,272.26s6.42,2.66,9.99,6.77"/>
        <path class="cls-10" d="m404.6,276.62s-4.35-.86-10.42-.74c-6.07.12-10.32,1.75-10.32,1.75"/>
        <path class="cls-10" d="m406.23,280.86s7.11,4.63,6.98,10.41"/>
      </g>
      <g>
        <path class="cls-13" d="m368.48,329.98c-3.41-2.01-7.17-2.06-9.02-4.18-1.85-2.13,1.78-3.2,3.72-2.4,1.94.8,6.43,3.11,7.28,3.62.85.5.26-6.85-1.32-9.63-1.58-2.77-5.9-4.39-8.05-2.12-4.55,4.78-11.65-1.49-11.16-5.22.49-3.73-3-7.75-10.48-5.4-7.48,2.35-4.69,3.66-4.69,3.66,0,0,5.31,3.26,8.72,5.27,3.41,2.01,9.05,3.74,7.84,5.21-1.21,1.47-4.47.57-7.2-1.62-2.73-2.19-10.56-7.4-11.37-5.46-.8,1.94-3.62,7.28-3.62,7.28,0,0,5.7.85,10.26,2.28,4.56,1.43,5.49,3.93,1.93,4.13-3.56.19-10.02-2.48-12.04.92-2.01,3.41-.64,12.15-.64,12.15,0,0,6.52-4.42,9.84-4.4,3.32.01,1.2,1.86-2.52,4.26-3.72,2.4-4.66,3.22-4.66,3.22l3.38,8.66s5.59-.71,7.8-.56l2.21.16s-.02-9.09,2.61-11.79c2.63-2.7,3.08,3.54,3.63,5.13s-1.11,6.35-1.11,6.35c0,0,6.46-3.54,8.55-4.94l2.09-1.4s-2.42-6.6-4.06-8.49c-1.64-1.89-3.88-1.6-1.99-3.24,1.89-1.64,4.71-.78,6.32,1.55,1.61,2.33,3.5,6.9,3.5,6.9,0,0,2.41.39,5.54-3.16,3.13-3.55,2.11-4.73-1.3-6.74Zm-29.6,10.01c-2.5-1.25,3.44-3.75,3.44-3.75,2.19-.31-.94,5-3.44,3.75Zm4.21-11.68c-1.07-.53,2.13-1.6,2.13-1.6,4.62.89-1.07,2.13-2.13,1.6Z"/>
        <path class="cls-10" d="m338.81,346.36c-.65.69-1.32,1.36-2.01,2"/>
        <path class="cls-10" d="m351.65,326.9c-2.39,4.99-6.01,11.49-10.78,17.15"/>
        <path class="cls-10" d="m352.81,324.4c1.5-3.35,2.27-5.57,2.27-5.57,0,0,2.79,1.31,5.5.61,2.71-.7,4.88-.1,4.88-.1"/>
        <path class="cls-10" d="m339.87,317.54s10.92,5.43,10.22,6.04"/>
        <path class="cls-10" d="m355.84,326.87s5.17,2.14,8.04,5.45"/>
        <path class="cls-10" d="m348.94,330.38s-3.5-.69-8.38-.59c-4.88.1-8.3,1.41-8.3,1.41"/>
        <path class="cls-10" d="m350.25,333.79s5.72,3.73,5.62,8.38"/>
      </g>
      <g>
        <path class="cls-13" d="m354.6,265.8s-4.28,3.11-7,0c-2.72-3.11,1.17-9.33-2.72-11.66-3.89-2.33-10.11,1.94-10.11,1.94,0,0,5.05,1.17,5.05,3.89s-2.33,3.89-2.72,2.72c-.39-1.17-3.11-7-7-4.28-3.89,2.72-4.28,6.61-4.28,6.61,0,0,9.33-1.55,10.11,1.94.78,3.5-3.89-.39-7.77-.39s-7.38.78-7,3.11c.39,2.33,0,6.22,0,6.22,0,0,3.11-3.11,7.38-3.11s4.28,2.72.39,2.72-7,3.89-7,3.89c0,0,3.89,5.83,8.55,8.55s6.22,1.55,6.61-.78c.39-2.33-1.17-8.16,1.55-8.16s-3.89,10.49-.39,10.88c3.5.39,6.22-.78,7-3.11l.78-2.33s-1.55-5.83-1.17-8.16c.39-2.33,1.17,0,1.94,2.72.78,2.72,1.55,9.33,2.72,8.94,1.17-.39,4.66-5.44,5.44-7.38.78-1.94-5.44-7.38-5.44-8.55s4.66.78,5.44,1.94c.78,1.17,1.55,2.72,1.55,2.72,0,0,2.72-1.94,2.33-7.38-.39-5.44-4.28-3.5-4.28-3.5Z"/>
        <path class="cls-10" d="m332.82,279.9c2.69-3.75,6.67-8.85,10.11-11.38"/>
        <path class="cls-10" d="m329.72,284.46s.68-1.08,1.8-2.7"/>
        <path class="cls-10" d="m344.88,269.3s4.66,5.83,5.83,12.05"/>
        <path class="cls-10" d="m340.21,273.18s1.17-.78,1.17,7"/>
        <path class="cls-10" d="m342.94,265.8s2.33-2.33.78-6.61"/>
        <line class="cls-10" x1="339.83" y1="269.69" x2="337.88" y2="266.58"/>
        <path class="cls-10" d="m336.33,273.18s-5.83-3.89-9.33-3.89"/>
      </g>
      <rect class="cls-11" x="363.8" y="352.88" width="30.05" height="43.25"/>
    </g>
  </g>
</svg>