<?xml version="1.0" encoding="UTF-8"?>
<svg xmlns="http://www.w3.org/2000/svg" viewBox="0 0 469.35 459.42">
  <defs>
    <style>
      .cls-1 {
        fill: #6e6e6e;
      }

      .cls-1, .cls-2, .cls-3, .cls-4, .cls-5, .cls-6, .cls-7, .cls-8, .cls-9, .cls-10, .cls-11, .cls-12 {
        stroke-linecap: round;
        stroke-linejoin: round;
      }

      .cls-1, .cls-2, .cls-3, .cls-4, .cls-5, .cls-6, .cls-8, .cls-13, .cls-9, .cls-10, .cls-11, .cls-12 {
        stroke: #263238;
      }

      .cls-2 {
        fill: #ababab;
      }

      .cls-3, .cls-14, .cls-11 {
        fill: #41c7a8;
      }

      .cls-4, .cls-15, .cls-12 {
        fill: #263238;
      }

      .cls-5 {
        fill: #d6d6d6;
      }

      .cls-6, .cls-16 {
        fill: #fff;
      }

      .cls-7 {
        stroke: #8f8f8f;
      }

      .cls-7, .cls-8, .cls-13, .cls-9, .cls-10 {
        fill: none;
      }

      .cls-16 {
        opacity: .7;
      }

      .cls-16, .cls-15, .cls-14 {
        stroke-width: 0px;
      }

      .cls-13 {
        stroke-miterlimit: 10;
      }

      .cls-13, .cls-11, .cls-12 {
        stroke-width: .75px;
      }

      .cls-9 {
        stroke-width: 2px;
      }

      .cls-10 {
        stroke-width: .5px;
      }
    </style>
  </defs>
  <g id="Background_Simple" data-name="Background Simple">
    <g>
      <path class="cls-14" d="m316.7,14.72s-77.4-27.52-153.37,16.29C87.36,74.83,49.03,161.81,16.11,231.48c-32.92,69.67-13.97,140.54,44.03,172.86,58,32.31,97.43-15.32,178.79-17.64,81.36-2.32,103.24,9.31,170.75-36.65,67.51-45.96,79.72-154.51,26.46-234.82-53.26-80.32-119.43-100.51-119.43-100.51Z"/>
      <path class="cls-16" d="m316.7,14.72s-77.4-27.52-153.37,16.29C87.36,74.83,49.03,161.81,16.11,231.48c-32.92,69.67-13.97,140.54,44.03,172.86,58,32.31,97.43-15.32,178.79-17.64,81.36-2.32,103.24,9.31,170.75-36.65,67.51-45.96,79.72-154.51,26.46-234.82-53.26-80.32-119.43-100.51-119.43-100.51Z"/>
    </g>
  </g>
  <g id="Window">
    <g>
      <g>
        <line class="cls-8" x1="151.89" y1="258.45" x2="39" y2="258.45"/>
        <polyline class="cls-8" points="173.38 245.92 173.38 258.45 157.16 258.45"/>
        <polyline class="cls-8" points="173.38 261.13 173.38 273.66 39 273.66"/>
        <polyline class="cls-8" points="173.38 276.34 173.38 288.87 39 288.87"/>
        <line class="cls-8" x1="73.28" y1="304.09" x2="39" y2="304.09"/>
        <polyline class="cls-8" points="173.38 291.56 173.38 304.09 79.99 304.09"/>
        <polyline class="cls-8" points="173.38 306.77 173.38 319.3 39 319.3"/>
        <polyline class="cls-8" points="173.38 321.98 173.38 334.51 39 334.51"/>
        <line class="cls-8" x1="45" y1="349.73" x2="39" y2="349.73"/>
        <polyline class="cls-8" points="173.38 337.2 173.38 349.73 51.23 349.73"/>
        <polyline class="cls-8" points="173.38 352.41 173.38 364.94 39 364.94"/>
        <polyline class="cls-8" points="173.38 367.62 173.38 380.15 39 380.15"/>
        <line class="cls-8" x1="98.2" y1="395.37" x2="39" y2="395.37"/>
        <polyline class="cls-8" points="173.38 382.84 173.38 395.37 103.95 395.37"/>
        <line class="cls-8" x1="46.92" y1="410.58" x2="39" y2="410.58"/>
        <polyline class="cls-8" points="173.38 398.05 173.38 410.58 53.15 410.58"/>
      </g>
      <g>
        <line class="cls-8" x1="297.12" y1="258.45" x2="177.47" y2="258.45"/>
        <polyline class="cls-8" points="311.85 245.92 311.85 258.45 301.91 258.45"/>
        <polyline class="cls-8" points="311.85 261.13 311.85 273.66 177.47 273.66"/>
        <polyline class="cls-8" points="311.85 276.34 311.85 288.87 177.47 288.87"/>
        <polyline class="cls-8" points="311.85 291.56 311.85 304.09 177.47 304.09"/>
        <polyline class="cls-8" points="311.85 306.77 311.85 319.3 177.47 319.3"/>
        <polyline class="cls-8" points="311.85 321.98 311.85 334.51 177.47 334.51"/>
        <polyline class="cls-8" points="311.85 337.2 311.85 349.73 177.47 349.73"/>
        <polyline class="cls-8" points="311.85 352.41 311.85 364.94 177.47 364.94"/>
        <polyline class="cls-8" points="311.85 367.62 311.85 380.15 177.47 380.15"/>
        <polyline class="cls-8" points="311.85 382.84 311.85 395.37 177.47 395.37"/>
        <polyline class="cls-8" points="311.85 398.05 311.85 410.58 177.47 410.58"/>
      </g>
    </g>
  </g>
  <g id="Table_2" data-name="Table 2">
    <line class="cls-8" x1="39.74" y1="447.48" x2="448.44" y2="447.48"/>
  </g>
  <g id="Table_1" data-name="Table 1">
    <line class="cls-8" x1="39.74" y1="212" x2="448.44" y2="212"/>
  </g>
  <g id="Character_2" data-name="Character 2">
    <g>
      <path class="cls-4" d="m216.17,242.73s-7.78,2.98-8.11,8.44c-.33,5.46,2.81,7.12,2.98,9.1.17,1.99-5.13,24.83-6.62,37.41-1.49,12.58,3.15,21.02,10.26,23.67s31.29,2.65,42.54,1.99c11.26-.66,20.03-2.32,24-9.6,3.97-7.28,5.63-15.73,1.49-27.15s-6.46-18.87-7.12-22.68c-.66-3.81-5.13-19.37-16.72-25.49-11.59-6.12-23.84-6.62-29.13-2.65s-13.57,6.95-13.57,6.95Z"/>
      <g>
        <path class="cls-6" d="m213.89,261.4s.89,21,.89,29.04,2.46,14.97,4.92,18.32c2.46,3.35,10.72,10.5,10.72,10.5,0,0,.45,6.93-.45,8.94-.89,2.01-5.81,3.13-5.81,3.13,0,0,1.56,5.59,20.55,5.81,18.99.22,31.95-8.04,31.95-8.04,0,0-8.71-.22-12.29-2.9-3.57-2.68-5.36-5.81-5.59-10.05-.22-4.24-.22-11.17-.22-11.17,0,0,1.56-3.35,2.01-5.14.45-1.79.89-5.36.89-5.36,0,0,6.03-4.02,6.93-7.37.89-3.35-.45-9.83-1.34-10.72-.89-.89-1.34,3.57-3.8,4.24-2.46.67-3.13-2.46-6.03-6.03-2.9-3.57-7.84-.54-14.55-9.25-6.7-8.71-2.21-11.08-6.23-13.09-4.02-2.01-21.45,3.8-22.57,9.16Z"/>
        <path class="cls-4" d="m231.01,253.11s1.09,12.39,8.01,16.03c6.92,3.64,17.85,1.82,17.85,1.82,0,0-16.76-.36-20.4-8.74-3.64-8.38-4.01-13.48-4.01-13.48l-1.46,4.37Z"/>
        <path class="cls-8" d="m225.15,280.09s2.87,2.87,3.23,6.1"/>
        <path class="cls-8" d="m227.07,298.94s1.49,1.63,2.44,1.9c.95.27,4.07-1.09,4.07-1.09"/>
        <path class="cls-8" d="m226.39,303.41s4.61,1.63,6.78,1.36c2.17-.27,8.68-2.58,10.18-3.66"/>
        <path class="cls-15" d="m223.4,285.5c0,1.5-.76,2.71-1.7,2.71s-1.7-1.22-1.7-2.71.76-2.71,1.7-2.71,1.7,1.21,1.7,2.71Z"/>
        <path class="cls-15" d="m242.19,285.5c0,1.5-.76,2.71-1.7,2.71s-1.7-1.22-1.7-2.71.76-2.71,1.7-2.71,1.7,1.21,1.7,2.71Z"/>
        <path class="cls-8" d="m215.94,277.91s4.88-3.66,8.28.54"/>
        <path class="cls-8" d="m236.84,277.63s6.38-3.8,11.94.95"/>
        <path class="cls-4" d="m230.43,319.27s2.88,2.19,5.73,1.24,12.48-6.65,12.48-6.65l-18.18,13.43-.03-8.03Z"/>
      </g>
      <g>
        <path class="cls-3" d="m224.93,328.67s6.97,8.55,18.22,8.77c11.24.22,31.71-10.35,31.71-10.35,0,0,14.84-2.92,21.81-.45,6.97,2.47,11.69,11.24,11.47,20.24-.22,9-.9,34.63-.9,34.63,0,0,.45,6.52,1.8,9.9,1.35,3.37-1.57,6.07-1.57,6.07,0,0,.67,4.72.67,7.2s-1.35,3.6-1.8,4.5c-.45.9-1.12,13.72-1.12,13.72h-90.63l-22.94-42.96s3.82-28.56,3.82-32.61,2.18-13.8,6.75-17.54c4.95-4.05,17.99-2.47,22.71-1.12Z"/>
        <line class="cls-8" x1="209.03" y1="363.71" x2="207.44" y2="392.75"/>
        <path class="cls-8" d="m294.82,390.62s4.26-1.86,10.66.53"/>
        <path class="cls-8" d="m305.75,397.28s-4-4.53-8.79-5.33"/>
      </g>
      <g>
        <path class="cls-6" d="m182.18,324.31l12.17,33.55c.23.63.84,1.04,1.5,1.02l18.6-.58c1.05-.03,1.77-1.08,1.41-2.07l-12.05-33.54c-.23-.63-.83-1.05-1.51-1.02l-18.72.57c-1.05.03-1.77,1.09-1.41,2.08Z"/>
        <path class="cls-6" d="m187.87,332.38s-5.72,3.55-5.61,5.49c.11,1.94,2.4,25.28,2.97,27.23.57,1.94,2.75,5.72,3.09,6.18.34.46,4.12,2.63,4.92,2.17.8-.46,1.6-.57,1.72-1.83s.57-8.35.57-9.84-.46-5.83-.46-5.83c0,0,12.01-2.75,12.7-3.2.69-.46.92-1.03.69-1.94s-1.14-.46-1.14-.46c0,0,1.6-1.26.8-2.75-.8-1.49-17.62.11-17.62.11,0,0,9.72-4.81,12.36-5.95,2.63-1.14,4.35-3.43,4.23-4.35s-1.72-.92-3.32-.23c-1.6.69-13.04,6.18-13.5,6.29-.46.11-3.89,1.37-3.89,1.37,0,0-.46-3.66.34-5.38.8-1.72,8.58-6.52,10.07-8.12,1.49-1.6,2.17-3.78.23-3.09-1.94.69-8.01,2.97-9.15,4.12Z"/>
        <path class="cls-8" d="m207.32,350.34s-14.41,1.37-15.33,1.72c-.92.34-3.89,1.03-3.89,2.17"/>
        <line class="cls-8" x1="195.08" y1="355.94" x2="191.76" y2="357.55"/>
      </g>
      <g>
        <g>
          <path class="cls-4" d="m232.69,447.48l-8.35-22.15s-10.24-19.97-14.77-28.86c-4.53-8.89-12.58-27.18-22.99-30.37-10.4-3.19-21.14,1.85-25.84,7.55-4.7,5.7-6.04,17.95-7.22,22.65-1.17,4.7-7.72,38.43-9.73,43.79-1.34,3.57-2.3,6.09-2.8,7.39h91.69Z"/>
          <path class="cls-7" d="m188.77,390.09c9.74,15.88,2.51,35.15-.91,51.97"/>
          <line class="cls-7" x1="184.41" y1="387.07" x2="189.77" y2="400.49"/>
        </g>
        <g>
          <path class="cls-4" d="m290.37,447.48c-.62-3.92-4.98-30.73-9.49-43.46,0,0-13.26-25.17-22.99-30.04-9.73-4.87-22.15-7.55-28.36,1.34-6.21,8.89-6.54,26.68-7.22,36.41-.62,8.96-1.23,32.11-1.33,35.74h69.38Z"/>
          <path class="cls-7" d="m263.44,397.98c.12,14.42-.68,29.68.59,44.14"/>
          <path class="cls-7" d="m228.37,386.06c-2.55,18.3-5.77,37.58-8.65,56.13"/>
        </g>
      </g>
      <g>
        <path class="cls-6" d="m272.79,344.93s-6.76-2.76-8.66-3.9c-1.9-1.14-3.78-2.03-3.64.25.14,2.28,4.27,4.8,7.25,6.64,2.98,1.84,7.11,2.75,7.11,2.75l-2.06-5.74Z"/>
        <g>
          <g>
            <path class="cls-8" d="m247.19,334.1s.54-3.32,1.61-4.82c1.07-1.5,1.82-4.18,1.82-5.46"/>
            <path class="cls-8" d="m251.47,334.1s.21-2.89,1.61-5.57c1.39-2.68,2.14-6,.96-10.6"/>
          </g>
          <path class="cls-6" d="m227.84,335.75h36.42v16.08c0,10.05-8.16,18.21-18.21,18.21h0c-10.05,0-18.21-8.16-18.21-18.21v-16.08h0Z"/>
        </g>
        <path class="cls-6" d="m282.22,370.91s-1.38-8.04-2.13-14.57-6.15-18.96-8.54-20.6c-2.39-1.63-8.41-7.41-10.17-6.03-1.76,1.38.13,2.51,1,3.39s4.65,3.89,4.65,3.89l4.14,7.66s-9.47-2.68-11.48-3.56-1.97,1.4-1.47,2.41c.5,1,2.41,1.53,4.16,2.54,1.76,1,3.64,1.88,3.64,1.88,0,0-8.04-.5-9.29-.38-1.26.13-1.13,1.63.38,2.51,1.51.88,4.9,1.51,6.78,2.01,1.88.5,5.9,2.01,5.9,2.01l1.38,1.26s-4.14,4.02-4.27,6.66c-.13,2.64,5.78,14.57,6.66,16.2.88,1.63,6.53,36.04,7.66,42.32s5.02,12.31,8.79,14.07c3.77,1.76,11.18,2.51,12.94.5,1.76-2.01,4.14-7.66,2.76-15.32s-9.92-23.36-15.07-32.02c-5.15-8.67-6.78-10.93-8.41-16.83Z"/>
        <path class="cls-6" d="m269.66,358.36s-7.66.13-10.93.25-3.27,1.51-2.13,2.26,13.06,2.14,14.07,2.26"/>
        <path class="cls-6" d="m264.26,338.13s5.4-2.01,9.29-1.38c3.89.63,4.27,5.9,4.02,9.8-.25,3.89-1.76,7.41-4.65,9.42-2.89,2.01-9.67,2.14-9.67,2.14l.75-2.51s4.9.38,7.41-2.64,3.01-9.8,1-11.3c-2.01-1.51-8.29-.63-8.29-.63l.13-2.89Z"/>
        <line class="cls-8" x1="266.02" y1="347.93" x2="272.92" y2="349.92"/>
      </g>
    </g>
  </g>
  <g id="Device">
    <g>
      <g>
        <polygon class="cls-6" points="317.91 458.92 285.11 448.55 432 456.47 432 458.92 317.91 458.92"/>
        <polygon class="cls-5" points="317.91 456.47 285.11 447.39 403.26 447.39 432 456.47 317.91 456.47"/>
        <polygon class="cls-1" points="285.11 449.84 285.11 447.39 317.91 456.47 317.91 458.92 285.11 449.84"/>
      </g>
      <g>
        <polygon class="cls-1" points="429.49 456.79 317.91 457.62 315.4 456.79 327.85 388.91 440.98 388.91 444.45 389.75 429.49 456.79"/>
        <polygon class="cls-2" points="432 457.62 317.91 457.62 330.36 389.75 444.45 389.75 432 457.62"/>
        <path class="cls-6" d="m390.36,428.87c-2.32,4.39-7.69,6.1-12,3.82-4.31-2.28-5.93-7.68-3.61-12.07,2.32-4.39,7.69-6.1,12-3.82,4.31,2.28,5.93,7.68,3.61,12.07Z"/>
      </g>
    </g>
  </g>
  <g id="Character_1" data-name="Character 1">
    <g>
      <path class="cls-3" d="m182.77,97.42s-13.48,6.29-14.37,8.54c-.9,2.25-5.84,105.79-5.84,105.79h132.29l-8.76-96.36s-1.8-15.72-2.92-16.62c-1.12-.9-44.02-7.86-44.02-7.86l-50.09,4.27-2.24.32-4.05,1.92Z"/>
      <path class="cls-8" d="m269.85,148.46c1.87,7.49,4.81,19.82,5.48,26.13,1.01,9.44-1.35,25.63-1.35,25.63"/>
      <path class="cls-8" d="m268.25,142.21s.27,1.02.71,2.73"/>
      <path class="cls-4" d="m284.08,34.28c-.06-.15-.21-.24-.37-.24.2-1.78,3.03-2.29,3.62-7.07.64-5.12-11.74-13.66-11.74-13.66,0,0-11.1-7.26-15.15-2.99-4.05,4.27,5.33,18.14,5.33,20.91s-30.73,27.31-35,37.77c-4.27,10.46,11.52,16,11.52,16l-4.48,16.43s6.4,9.6,6.62,14.51c.21,4.91,5.55,15.36,11.95,18.57,6.4,3.2,15.36.64,15.36.64,0,0-1.71-.43-2.77-1.92-1.07-1.49.21-5.12,3.41-11.31s19.85-35.85,17.92-51.85c-1.62-13.49-5.06-28.04-6.22-33.56,2.68,7.02,11.43,31.99,8.37,52.22-.03.22.12.42.34.46.02,0,.04,0,.06,0,.2,0,.37-.14.4-.34,3.62-23.88-9.06-54.27-9.19-54.57Z"/>
      <g>
        <path class="cls-3" d="m241.09,97.16s10.24,4.95,10.07,6.49c-.17,1.54-.51,2.05-1.37,3.93-.85,1.88-4.1,12.29-5.98,13.83-1.88,1.54-15.88-3.93-20.32-6.32-4.44-2.39-11.27-4.95-11.61-13.32-.34-8.37,4.95-17.24,6.32-18.27,1.37-1.02,3.07-.34,3.76.34.68.68,13.32,10.24,19.12,13.32Z"/>
        <path class="cls-8" d="m249.11,103.31s-3.76-.85-7.51-3.07"/>
      </g>
      <path class="cls-6" d="m246.38,87.94l-4.78,12.29s-7.85-3.24-14.34-7.34c-4.48-2.83-6.49-8.19-6.49-8.19l4.1-14.34s16.39,14.17,21.51,17.59Z"/>
      <path class="cls-6" d="m266.85,23.92s9.06,9.06,10.39,14.12-4,22.65-4,22.65c0,0-.53,7.46-1.86,11.72s-14.12,20.25-14.12,20.25c0,0-1.6,4.53-7.73,1.87-6.13-2.66-21.85-13.05-23.71-16.25s-2.13-4.8-2.13-6.66,1.07-5.86,1.6-6.93c.53-1.07,16.52-19.72,25.31-27.18,8.79-7.46,16.25-13.59,16.25-13.59Z"/>
      <path class="cls-9" d="m255.52,53.25s-4.23-2.82-7.52-3.13c-3.29-.31-6.42,1.1-6.42,1.1"/>
      <path class="cls-9" d="m265.86,53.25s3.76-2.19,5.95-2.19,2.98.16,2.98.16"/>
      <path class="cls-8" d="m271.65,60.14s-3.45,2.66-7.2.16"/>
      <path class="cls-8" d="m252.55,60.29s-6.26,2.51-11.59-1.41"/>
      <path class="cls-8" d="m263.2,67.81s1.41,4.54.16,5.64c-1.25,1.1-3.92,2.19-5.64.94"/>
      <g>
        <path class="cls-6" d="m280.53,81.68s6.92-4.51,7.97-4.51,6.47,6.47,9.33,10.68c2.86,4.21,3.31,6.02,3.16,7.67-.15,1.65-.43,8.69-1.34,11.09-.9,2.41-6.64,17.34-6.64,17.34l2.71,14.44-16.7,7.37s-3.31-27.08-3.46-27.98c-.15-.9-2.41-5.27-2.71-9.03-.3-3.76-.3-7.22-.3-11.88s1.65-16.55,1.65-16.55l6.32,1.35Z"/>
        <path class="cls-8" d="m298.13,91.31s-6.02-6.17-7.07-6.32c-1.05-.15-11.43,3.31-11.43,3.31"/>
        <path class="cls-8" d="m297.68,96.73s-7.07-4.51-8.27-4.66c-1.2-.15-10.53,3.76-10.98,3.61"/>
        <path class="cls-8" d="m297.38,101.84s-8.42-4.36-9.48-4.21c-1.05.15-6.47,4.81-7.07,5.72-.6.9-3.46,6.47-2.71,7.37.75.9,2.86,0,2.86,0l4.06-5.42,5.1,2.06"/>
        <line class="cls-8" x1="278.42" y1="102.14" x2="279.02" y2="105.45"/>
        <path class="cls-8" d="m284.69,111.36s-4.76,7.18-3.86,9.14c.9,1.96,2.56,2.86,2.56,2.86"/>
      </g>
      <g>
        <path class="cls-6" d="m280.27,76.74s1.59,15.92-2.63,26.41c0,0-5.34,1.59-11.14,1.43-5.79-.16-11.6.03-12.54-1.69-.94-1.72-3.92-15.66-4.07-25.53,0,0,16.45-5.79,30.38-.63Z"/>
        <path class="cls-8" d="m255.04,102.89c0,.65,4.88,1.18,10.89,1.18s10.89-.53,10.89-1.18-4.88-1.18-10.89-1.18-10.89.53-10.89,1.18Z"/>
      </g>
      <path class="cls-3" d="m274.07,211.73h44.29c-.45-11.9-6.31-35.36-5.91-37.74.51-3.07-.34-11.95-1.88-14.17-1.54-2.22-7.68-2.22-7.68-2.22,0,0-23.9,5.98-24.93,6.49-1.02.51-2.39,1.54-4.27,3.76s-1.37,3.24-1.2,11.61c.11,5.61,1,22.06,1.57,32.28Z"/>
      <path class="cls-3" d="m296.23,131.65s-21.39,4.09-22.08,5.29c-.68,1.2-.51,2.9-.17,3.93.34,1.02,4.32,23.56,4.32,24.76s.17,2.9,8.2,3.07c5.49.12,15.68-1.47,17.79-7.55,1-2.87-.96-6.35-1.83-9.09-1.24-3.92-2.45-7.86-3.54-11.83-.5-1.81-.91-2.37-.77-4.28.17-2.39-.72-4.3-1.92-4.3Z"/>
      <path class="cls-15" d="m265.9,12.01s-4.69-8.69-13.1-9.33c-8.41-.65-29.14,1.2-41.11,15.27-11.97,14.07-15.12,33.7-18.93,42.32-7.05,15.96-14.48,40.1-14.48,40.1l8.54-4.87s.81,2.26,1.29,4.04c.49,1.78,8.89,18.44,17.95,24.42,9.06,5.98,10.51,11,11.32,10.67.81-.32,6.31-5.01,7.76-19.57,1.46-14.55-2.59-23.77-2.59-28.14,0-3.74,1.9-19.08,5.28-25.45,29.13-14.04,37.01-30.42,38.88-35.73,1.51-1.56,2.59-2.79,3.06-3.51,3.23-5.01-3.88-10.23-3.88-10.23Zm-37.26,48.19c.33-.45.68-.83,1.04-1.09,3.68-2.63,25.76-22.05,35.62-31.91-2.71,6.32-11.29,20.48-36.66,33Z"/>
      <g>
        <path class="cls-3" d="m174.68,116.51s16.17,26.73,16.4,31.22-13.07,37.51-13.07,37.51c0,0,11.95,1.12,13.52,2.47,1.57,1.35,3.59,2.7,3.59,2.7,0,0,4.27.45,11.23.67,6.96.22,9.43,1.35,9.66,2.02.22.67.9,2.7.9,2.7,0,0-3.37,22.24-5.17,22.91-1.8.67-47.44,3.59-53.73,2.7-6.29-.9-19.54-5.62-24.93-5.84-5.39-.22-5.84-3.37-5.62-7.19.22-3.82,19.59-55.03,25.65-66.93,6.06-11.9,12.58-34.81,15.27-35.49,2.7-.67,6.29,2.47,6.29,2.47"/>
        <path class="cls-8" d="m146.57,194.47c-2.16,1.55-3.61,2.68-3.61,2.68"/>
        <path class="cls-8" d="m178.01,185.24s-13.7-.9-20.21,2.25c-2.4,1.16-5.04,2.77-7.43,4.35"/>
        <path class="cls-8" d="m191.46,137.72s3.03,8.9,2.65,12.69-3.41,9.09-3.41,9.09"/>
      </g>
      <g>
        <path class="cls-6" d="m232.69,196.77s6.99-1.55,11.13-3.8c4.15-2.25,9.68-3.63,13.13-2.76s14.17,1.56,16.76,1.73c2.59.17,5.53,0,5.18.52-.35.52,13.48-.69,16.76-1.38,3.28-.69,13.03-2.83,13.03-1.62s-1.73,3.8-4.84,5.01c-3.11,1.21-16.14,3.87-16.14,3.87,0,0-14.69,6.74-18.66,7.78-3.97,1.04-15.72,1.04-16.59,1.04s-21.74,5.95-21.74,5.95c0,0-.1-10.62,1.97-16.33Z"/>
        <path class="cls-8" d="m278.9,192.46s1.73,1.04-2.07,2.94c-3.8,1.9-7.43,3.28-9.16,3.11-1.73-.17-6.22-1.21-6.74-1.38-.52-.17-4.15,1.04-6.57,1.9"/>
      </g>
      <path class="cls-3" d="m236.15,195.48s-1.51,11.17-1.33,16.1c.19,4.92.38,6.06-1.14,6.44-1.51.38-21.97,1.33-23.67,1.33s-4.73-1.14-5.11-3.79c-.38-2.65.19-17.23,2.46-18.75,2.27-1.51,2.65-1.7,3.79-1.51,1.14.19,10.04-.19,14.96-.19s9.47-.76,10.04.38Z"/>
      <g>
        <path class="cls-6" d="m245.39,187.39c0,2.73,16.13,6.85,33.75,6.85s33.75-4.11,33.75-6.85-16.13-3.06-33.75-3.06-33.75.32-33.75,3.06Z"/>
        <path class="cls-6" d="m245.39,187.39c0,2.73,15.11,4.95,33.75,4.95s33.75-2.22,33.75-4.95-15.11-4.95-33.75-4.95-33.75,2.22-33.75,4.95Z"/>
        <ellipse class="cls-6" cx="279.14" cy="187.39" rx="21.92" ry="2.63"/>
      </g>
    </g>
  </g>
  <g id="Books">
    <g>
      <g>
        <rect class="cls-6" x="322.23" y="206.84" width="102.81" height="7.02"/>
        <rect class="cls-6" x="384.9" y="206.84" width="44.42" height="7.02"/>
      </g>
      <g>
        <g>
          <rect class="cls-3" x="316.84" y="185.31" width="102.81" height="7.02"/>
          <rect class="cls-6" x="379.51" y="185.31" width="44.42" height="7.02"/>
        </g>
        <polygon class="cls-3" points="379.51 185.31 423.67 181.79 353.86 181.79 316.84 185.31 379.51 185.31"/>
        <line class="cls-10" x1="379.88" y1="187.85" x2="391.79" y2="187.85"/>
        <line class="cls-10" x1="386.34" y1="189.86" x2="394.41" y2="189.86"/>
        <line class="cls-10" x1="423.67" y1="188.25" x2="409.95" y2="188.25"/>
        <line class="cls-10" x1="415.8" y1="189.46" x2="401.72" y2="189.46"/>
      </g>
      <line class="cls-10" x1="339.38" y1="198.16" x2="331.55" y2="198.16"/>
      <g>
        <g>
          <rect class="cls-6" x="322.23" y="192.49" width="102.81" height="7.02"/>
          <rect class="cls-6" x="384.9" y="192.49" width="44.42" height="7.02"/>
        </g>
        <line class="cls-10" x1="322.2" y1="194.09" x2="332.47" y2="194.09"/>
        <line class="cls-10" x1="324.23" y1="195.52" x2="346.5" y2="195.52"/>
        <line class="cls-10" x1="384.52" y1="194.8" x2="366.63" y2="194.8"/>
        <line class="cls-10" x1="377.3" y1="196.94" x2="396.72" y2="196.94"/>
        <line class="cls-10" x1="398.55" y1="196.84" x2="402.42" y2="196.84"/>
      </g>
      <g>
        <g>
          <rect class="cls-3" x="325.29" y="199.66" width="102.81" height="7.02"/>
          <rect class="cls-6" x="387.96" y="199.66" width="44.42" height="7.02"/>
        </g>
        <line class="cls-10" x1="388.09" y1="202.33" x2="401.81" y2="202.33"/>
        <line class="cls-10" x1="403.95" y1="202.53" x2="410.35" y2="202.53"/>
        <line class="cls-10" x1="390.63" y1="203.95" x2="410.25" y2="203.95"/>
        <line class="cls-10" x1="432.01" y1="204.36" x2="425.2" y2="204.36"/>
      </g>
      <line class="cls-10" x1="429.16" y1="210.56" x2="412.18" y2="210.56"/>
      <line class="cls-10" x1="400.38" y1="210.97" x2="406.79" y2="210.97"/>
      <line class="cls-10" x1="405.67" y1="209.75" x2="419.6" y2="209.75"/>
      <line class="cls-10" x1="393.27" y1="212.39" x2="429.05" y2="212.39"/>
      <line class="cls-10" x1="385.23" y1="216.05" x2="391.74" y2="216.05"/>
      <g>
        <g>
          <rect class="cls-4" x="318.96" y="214.01" width="102.81" height="7.02"/>
          <rect class="cls-6" x="381.63" y="214.01" width="44.42" height="7.02"/>
        </g>
        <line class="cls-10" x1="425.48" y1="216.26" x2="419.78" y2="216.26"/>
        <line class="cls-10" x1="425.98" y1="217.88" x2="412.87" y2="217.88"/>
        <line class="cls-10" x1="425.68" y1="219.31" x2="420.9" y2="219.31"/>
        <line class="cls-10" x1="382.37" y1="218.09" x2="386.94" y2="218.09"/>
        <line class="cls-10" x1="384.1" y1="219.41" x2="411.34" y2="219.41"/>
      </g>
      <line class="cls-10" x1="356.17" y1="210.44" x2="386.91" y2="210.44"/>
      <line class="cls-10" x1="343.76" y1="210.26" x2="351.31" y2="210.26"/>
      <line class="cls-10" x1="323.09" y1="209.36" x2="330.28" y2="209.36"/>
      <line class="cls-10" x1="325.96" y1="211.52" x2="336.03" y2="211.52"/>
    </g>
  </g>
  <g id="Plant">
    <g>
      <g>
        <path class="cls-11" d="m56.41,89.78s-2.71,7.45-8.47,8.47c-5.76,1.02-15.92-10.16-9.48-15.92,6.44-5.76,15.24,3.39,17.95,7.45Z"/>
        <path class="cls-11" d="m65.21,53.2s-8.47,20.66-5.08,30.82c3.39,10.16,24.39,17.61,30.49,4.4,6.1-13.21-7.45-31.84-12.53-35.91-5.08-4.06-11.18-2.71-12.87.68Z"/>
        <path class="cls-11" d="m114.67,62.01s-14.57,13.21-16.26,26.42c-1.69,13.21,8.13,17.95,18.29,16.26s15.24-27.44,12.19-39.29c-3.05-11.86-14.23-3.39-14.23-3.39Z"/>
        <g>
          <path class="cls-11" d="m117.38,135.17s-16.26.68-16.94,8.47c-.68,7.79,7.11,9.48,14.9,2.71,7.79-6.77,8.81-10.84,2.03-11.18Z"/>
          <path class="cls-13" d="m100.71,145.5s12.81-5.86,18.58-6.88"/>
        </g>
        <g>
          <path class="cls-11" d="m121,186.15s-11.94-11.05-17.95-6.04c-6,5.01-1.71,11.73,8.59,12.48,10.3.75,13.9-1.4,9.36-6.44Z"/>
          <path class="cls-13" d="m101.93,181.61s13.19,4.95,17.98,8.33"/>
        </g>
        <g>
          <path class="cls-11" d="m58,182.9s16.46-15.24,24.74-8.33c8.28,6.91,2.36,16.17-11.83,17.2-14.19,1.03-19.16-1.92-12.9-8.88Z"/>
          <path class="cls-13" d="m84.3,176.64s-18.18,6.83-24.79,11.48"/>
        </g>
        <path class="cls-11" d="m77.07,151.43s-1.69,8.13-7.79,11.18c-6.1,3.05-16.94-3.39-11.18-13.21,5.76-9.82,15.92-2.03,18.97,2.03Z"/>
        <path class="cls-11" d="m62.84,126.03s-3.05-6.77-14.9-2.37c-11.86,4.4-16.6,11.18-9.15,13.55,7.45,2.37,24.05-11.18,24.05-11.18Z"/>
        <path class="cls-13" d="m60.57,125.72s-12.56,1.36-19.35,7.13"/>
        <path class="cls-11" d="m96.72,44.73s2.03,4.74,6.1,3.73c4.06-1.02,5.08-7.11,11.52-5.42,6.44,1.69,11.86,9.15,11.86,5.76s-8.13-12.19-17.28-12.19-11.86,3.73-12.19,8.13Z"/>
        <path class="cls-13" d="m62.84,126.03s14.59-2.8,20.66,13.4c.6,1.59,1.1,3.25,1.52,4.96"/>
        <path class="cls-11" d="m123.71,110.34s3.05-6.77,14.9-2.37c11.86,4.4,16.6,11.18,9.15,13.55-7.45,2.37-24.05-11.18-24.05-11.18Z"/>
        <path class="cls-13" d="m126.42,110.78s12.22-.68,17.99,6.45"/>
        <path class="cls-13" d="m123.71,110.34s-4.83-.93-10.1,1.38"/>
        <path class="cls-13" d="m70.62,98.19c-7.15-7.3-14.21-8.4-14.21-8.4,0,0-10.43-2.76-14.5.97"/>
        <g>
          <line class="cls-13" x1="72.07" y1="60.66" x2="71.43" y2="57.83"/>
          <path class="cls-13" d="m88.56,210.41s1.52-58.33,0-76.05c-1.52-17.72-8.6-38.47-8.6-38.47l-7.22-32.23"/>
          <line class="cls-13" x1="118.67" y1="73.19" x2="119.97" y2="70.39"/>
          <path class="cls-13" d="m92.11,210.35s.51-53.21,2.53-68.39c2.02-15.18,10.12-38.97,10.12-38.97l12.43-26.62"/>
          <path class="cls-13" d="m100.71,145.5s-3.54,30.51-5.57,64.92"/>
          <path class="cls-13" d="m83.5,210.35s1.01-48.65-1.01-55.23c-2.02-6.58-5.42-3.68-5.42-3.68,0,0-9.37,1.1-12.76,6.53"/>
          <path class="cls-13" d="m85.83,148.17c2.65,14.84.21,62.23.21,62.23"/>
          <path class="cls-13" d="m110.75,113.3c-2.93,2.01-5.75,5.24-7.69,10.43-6.07,16.2-5.38,86.69-5.38,86.69"/>
          <path class="cls-13" d="m72.38,100.12c3.16,3.72,6.23,8.74,8.59,15.52,8.1,23.28,11.14,83.58,9.62,94.71"/>
          <path class="cls-13" d="m92.95,121.91c-.49,29.38-.84,88.44-.84,88.44"/>
        </g>
        <path class="cls-13" d="m93.01,118.25c.33-19.43.73-38.45,1.12-48.67,1.01-26.32,2.58-24.84,2.58-24.84,0,0,1.87-5.91,12.4-5.23"/>
        <g>
          <path class="cls-11" d="m80.05,140.44s-8.47-7.55-5.08-11.27c3.39-3.71,24.39-6.44,30.49-1.61,6.1,4.83-7.45,11.64-12.53,13.12-5.08,1.49-11.18.99-12.87-.25Z"/>
          <path class="cls-13" d="m87.87,134.26c-.12.76-.19,1.52-.19,2.25"/>
          <path class="cls-13" d="m90.78,125.44s-1.26,2.52-2.17,5.61"/>
        </g>
        <g>
          <path class="cls-11" d="m80.05,189.81s-8.47-7.55-5.08-11.27c3.39-3.71,24.39-6.44,30.49-1.61,6.1,4.83-7.45,11.64-12.53,13.12-5.08,1.49-11.18.99-12.87-.25Z"/>
          <path class="cls-13" d="m90.78,174.82s-3.1,6.2-3.1,11.07"/>
        </g>
        <g>
          <path class="cls-11" d="m86.35,168.93s-5.75-5.13-3.45-7.65c2.3-2.52,16.56-4.37,20.7-1.09,4.14,3.28-5.06,7.9-8.51,8.91-3.45,1.01-7.59.67-8.74-.17Z"/>
          <path class="cls-13" d="m93.64,158.75s-2.1,4.21-2.1,7.52"/>
        </g>
      </g>
      <rect class="cls-12" x="78.4" y="201.95" width="22.92" height="10.88"/>
    </g>
  </g>
  <g id="Picture">
    <g>
      <rect class="cls-8" x="336.6" y=".5" width="80.34" height="96.81"/>
      <rect class="cls-8" x="341.23" y="6.08" width="71.07" height="85.65"/>
      <rect class="cls-8" x="361.5" y="30.51" width="30.53" height="36.79"/>
    </g>
  </g>
</svg>